{"glyphs":{"0":{"ha":817,"x_min":69,"x_max":747,"o":"m 410 -14 q 243 29 321 -14 q 117 153 165 72 q 69 346 69 235 q 117 538 69 457 q 243 664 165 619 q 410 708 321 708 q 576 664 499 708 q 700 538 653 619 q 747 346 747 457 q 700 153 747 235 q 576 29 653 72 q 410 -14 499 -14 m 410 93 q 518 122 467 93 q 603 208 569 151 q 636 346 636 265 q 603 483 636 426 q 519 571 571 540 q 410 601 467 601 q 300 572 353 601 q 214 485 247 542 q 181 346 181 428 q 214 208 181 265 q 300 122 247 151 q 410 93 353 93 z "},"1":{"ha":447,"x_min":35,"x_max":308,"o":"m 35 590 l 35 694 l 308 694 l 308 0 l 197 0 l 197 590 l 35 590 z "},"2":{"ha":629,"x_min":42,"x_max":574,"o":"m 361 210 l 175 75 l 165 104 l 574 104 l 574 0 l 60 0 l 60 104 q 220 219 150 172 q 339 304 290 267 q 413 381 388 342 q 439 471 439 419 q 424 540 439 510 q 377 587 408 569 q 296 604 346 604 q 190 565 235 604 q 146 464 146 526 l 49 464 q 74 588 42 533 q 166 676 107 643 q 296 708 225 708 q 404 690 357 708 q 484 639 451 671 q 533 565 517 607 q 550 478 550 524 q 537 401 550 436 q 499 335 524 367 q 440 272 475 303 q 361 210 406 242 z "},"3":{"ha":632,"x_min":46,"x_max":581,"o":"m 335 264 l 336 271 q 433 253 389 267 q 511 212 478 239 q 563 142 544 185 q 581 38 581 99 q 547 -92 581 -33 q 453 -187 514 -151 q 313 -222 393 -222 q 176 -187 238 -222 q 80 -92 114 -151 q 53 38 46 -33 l 150 38 q 169 -42 150 -7 q 225 -99 189 -78 q 313 -119 261 -119 q 427 -75 385 -119 q 469 43 469 -31 q 423 163 469 117 q 296 208 376 208 l 217 208 l 217 311 l 296 311 q 385 330 349 311 q 439 383 421 349 q 457 463 457 418 q 420 565 457 525 q 310 604 383 604 q 206 565 249 604 q 163 463 163 525 l 65 463 q 77 558 60 514 q 129 637 94 603 q 210 690 164 671 q 310 708 257 708 q 446 676 388 708 q 536 588 504 643 q 568 463 568 532 q 551 367 568 406 q 502 307 533 329 q 428 275 471 285 q 335 264 385 265 z "},"4":{"ha":746,"x_min":63,"x_max":683,"o":"m 556 701 l 556 -201 l 444 -201 l 444 564 l 471 556 l 158 63 l 135 104 l 467 104 l 467 0 l 63 0 l 63 104 l 444 701 l 556 701 m 533 0 l 533 104 l 683 104 l 683 0 l 533 0 z "},"5":{"ha":742,"x_min":83,"x_max":679,"o":"m 406 375 q 517 354 467 375 q 603 294 567 333 q 659 199 639 254 q 679 75 679 144 q 640 -83 679 -17 q 534 -186 600 -150 q 389 -222 468 -222 q 275 -203 329 -222 q 180 -149 221 -185 q 113 -63 139 -114 q 83 51 88 -12 l 194 51 q 224 -39 200 -1 q 290 -95 249 -76 q 389 -114 332 -114 q 458 -101 425 -114 q 515 -65 490 -89 q 555 -6 540 -42 q 569 75 569 29 q 556 156 569 121 q 520 216 543 192 q 465 253 497 240 q 396 267 433 267 q 326 257 361 267 q 263 222 292 247 q 213 151 233 197 l 110 172 l 138 694 l 608 694 l 608 590 l 243 590 l 219 199 l 210 208 q 253 304 224 268 q 323 358 283 340 q 406 375 363 375 z "},"6":{"ha":699,"x_min":54,"x_max":649,"o":"m 376 583 q 513 547 451 583 q 612 442 575 510 q 647 283 649 375 q 605 125 646 192 q 497 22 564 58 q 347 -14 429 -14 q 199 22 267 -14 q 93 124 132 58 q 56 282 54 190 q 64 351 57 314 q 89 432 71 389 q 106 469 92 440 q 140 542 119 499 q 183 633 160 585 q 228 730 206 682 q 269 817 250 778 q 299 879 288 856 q 310 903 310 903 l 429 903 l 149 339 l 108 303 q 168 417 139 365 q 228 506 197 469 q 296 563 260 543 q 376 583 332 583 m 347 93 q 478 142 422 93 q 536 285 535 192 q 485 426 538 375 q 356 476 432 476 q 219 420 271 476 q 167 283 168 364 q 219 142 165 192 q 347 93 272 93 z "},"7":{"ha":626,"x_min":63,"x_max":592,"o":"m 63 590 l 63 694 l 592 694 l 592 590 l 224 -208 l 106 -208 l 504 636 l 533 590 l 63 590 z "},"8":{"ha":681,"x_min":49,"x_max":632,"o":"m 340 457 q 210 479 269 457 q 117 549 151 501 q 82 672 82 597 q 114 797 82 742 q 204 884 146 851 q 340 917 263 917 q 477 884 419 917 q 567 797 535 851 q 599 672 599 742 q 564 549 599 597 q 471 479 529 501 q 340 457 413 457 m 340 526 q 419 546 386 526 q 469 598 451 565 q 488 672 488 631 q 469 746 488 714 q 419 795 451 778 q 340 813 386 813 q 263 795 296 813 q 211 746 229 778 q 193 672 193 714 q 211 598 193 631 q 263 546 229 565 q 340 526 296 526 m 340 -14 q 183 22 249 -14 q 83 116 118 57 q 49 247 49 175 q 88 384 49 329 q 193 466 126 439 q 340 493 260 493 q 488 466 422 493 q 593 384 554 439 q 632 247 632 329 q 597 116 632 175 q 498 22 563 57 q 340 -14 433 -14 m 340 90 q 440 110 400 90 q 501 167 481 131 q 521 247 521 203 q 501 333 521 296 q 440 390 481 369 q 340 411 400 411 q 240 390 281 411 q 180 333 200 369 q 160 247 160 296 q 180 167 160 203 q 240 110 200 131 q 340 90 281 90 z "},"9":{"ha":685,"x_min":50,"x_max":644,"o":"m 322 111 q 189 148 251 111 q 88 253 126 185 q 51 413 50 321 q 94 570 53 504 q 203 672 135 636 q 351 708 271 708 q 500 672 433 708 q 606 570 567 636 q 643 413 644 504 q 635 344 642 381 q 610 263 628 307 q 593 225 607 254 q 559 153 579 196 q 516 61 539 110 q 471 -35 493 13 q 430 -122 449 -83 q 400 -185 411 -161 q 389 -208 389 -208 l 269 -208 l 550 356 l 590 392 q 531 277 560 329 q 470 188 501 225 q 403 131 439 151 q 322 111 367 111 m 351 601 q 221 552 276 601 q 163 410 165 503 q 214 269 161 321 q 343 218 267 218 q 480 275 429 218 q 532 413 531 332 q 508 515 533 474 q 442 579 483 557 q 351 601 401 601 z "},"A":{"ha":861,"x_min":28,"x_max":833,"o":"m 211 236 l 211 340 l 644 340 l 644 236 l 211 236 m 28 0 l 371 903 l 488 903 l 833 0 l 714 0 l 413 817 l 446 817 l 144 0 l 28 0 z "},"Á":{"ha":861,"x_min":28,"x_max":833,"o":"m 211 236 l 211 340 l 644 340 l 644 236 l 211 236 m 28 0 l 371 903 l 488 903 l 833 0 l 714 0 l 413 817 l 446 817 l 144 0 l 28 0 m 375 1029 l 522 1253 l 668 1253 l 474 1029 l 375 1029 z "},"Ă":{"ha":861,"x_min":28,"x_max":833,"o":"m 211 236 l 211 340 l 644 340 l 644 236 l 211 236 m 28 0 l 371 903 l 488 903 l 833 0 l 714 0 l 413 817 l 446 817 l 144 0 l 28 0 m 618 1208 q 598 1098 618 1146 q 536 1022 578 1050 q 431 994 494 994 q 325 1022 367 994 q 263 1098 283 1050 q 243 1208 243 1146 l 340 1208 q 363 1119 340 1147 q 431 1092 386 1092 q 498 1119 475 1092 q 521 1208 521 1147 l 618 1208 z "},"Â":{"ha":861,"x_min":28,"x_max":833,"o":"m 211 236 l 211 340 l 644 340 l 644 236 l 211 236 m 28 0 l 371 903 l 488 903 l 833 0 l 714 0 l 413 817 l 446 817 l 144 0 l 28 0 m 479 1253 l 667 1029 l 535 1029 l 403 1224 l 458 1224 l 325 1029 l 192 1029 l 381 1253 l 479 1253 z "},"Ä":{"ha":861,"x_min":28,"x_max":833,"o":"m 211 236 l 211 340 l 644 340 l 644 236 l 211 236 m 28 0 l 371 903 l 488 903 l 833 0 l 714 0 l 413 817 l 446 817 l 144 0 l 28 0 m 242 903 l 242 767 l 97 767 l 97 903 l 242 903 m 765 903 l 765 767 l 621 767 l 621 903 l 765 903 z "},"À":{"ha":861,"x_min":28,"x_max":833,"o":"m 211 236 l 211 340 l 644 340 l 644 236 l 211 236 m 28 0 l 371 903 l 488 903 l 833 0 l 714 0 l 413 817 l 446 817 l 144 0 l 28 0 m 381 1029 l 186 1253 l 332 1253 l 479 1029 l 381 1029 z "},"Ā":{"ha":861,"x_min":28,"x_max":833,"o":"m 211 236 l 211 340 l 644 340 l 644 236 l 211 236 m 28 0 l 371 903 l 488 903 l 833 0 l 714 0 l 413 817 l 446 817 l 144 0 l 28 0 m 264 1046 l 264 1143 l 597 1143 l 597 1046 l 264 1046 z "},"Ą":{"ha":861,"x_min":28,"x_max":833,"o":"m 829 -285 q 663 -240 726 -285 q 600 -118 600 -194 q 627 -33 600 -67 q 700 19 654 0 q 800 44 746 38 l 800 14 q 724 -26 757 4 q 690 -104 690 -57 q 706 -158 690 -135 q 753 -195 722 -182 q 829 -208 785 -208 l 829 -285 m 211 236 l 211 340 l 644 340 l 644 236 l 211 236 m 28 0 l 371 903 l 488 903 l 833 0 l 714 0 l 413 817 l 446 817 l 144 0 l 28 0 z "},"Å":{"ha":861,"x_min":28,"x_max":833,"o":"m 211 236 l 211 340 l 644 340 l 644 236 l 211 236 m 28 0 l 371 903 l 488 903 l 833 0 l 714 0 l 413 817 l 446 817 l 144 0 l 28 0 m 431 996 q 303 1038 354 996 q 251 1151 251 1081 q 303 1263 251 1221 q 431 1306 354 1306 q 559 1263 508 1306 q 610 1151 610 1221 q 559 1038 610 1081 q 431 996 508 996 m 431 1072 q 497 1093 476 1072 q 518 1151 518 1114 q 497 1208 518 1188 q 431 1229 476 1229 q 363 1208 383 1229 q 342 1151 342 1188 q 363 1093 342 1114 q 431 1072 383 1072 z "},"Ã":{"ha":861,"x_min":28,"x_max":833,"o":"m 211 236 l 211 340 l 644 340 l 644 236 l 211 236 m 28 0 l 371 903 l 488 903 l 833 0 l 714 0 l 413 817 l 446 817 l 144 0 l 28 0 m 522 1031 q 460 1044 486 1031 q 412 1075 433 1057 q 368 1106 390 1093 q 317 1119 346 1119 q 275 1105 289 1119 q 256 1069 261 1090 q 247 1029 250 1049 l 156 1029 q 176 1123 158 1081 q 226 1191 194 1165 q 303 1217 257 1217 q 367 1203 339 1217 q 419 1172 396 1190 q 463 1141 442 1154 q 508 1128 485 1128 q 549 1142 535 1128 q 569 1178 564 1157 q 578 1218 575 1200 l 669 1218 q 648 1124 665 1167 q 599 1056 631 1082 q 522 1031 567 1031 z "},"Æ":{"ha":1279,"x_min":28,"x_max":1196,"o":"m 667 397 l 667 104 l 1196 104 l 1196 0 l 556 0 l 556 814 l 579 808 l 144 0 l 28 0 l 522 903 l 1194 903 l 1194 799 l 667 799 l 667 501 l 1099 501 l 1099 397 l 667 397 m 225 244 l 225 349 l 603 349 l 603 244 l 225 244 z "},"B":{"ha":856,"x_min":111,"x_max":793,"o":"m 111 0 l 111 903 l 467 903 q 685 839 607 903 q 764 661 764 775 q 735 546 764 590 q 656 479 707 501 q 535 450 604 457 l 538 458 q 635 445 589 456 q 716 413 681 435 q 772 351 751 390 q 793 251 793 313 q 757 115 793 169 q 656 33 721 61 q 508 0 592 4 l 111 0 m 222 104 l 481 104 q 628 140 575 104 q 682 251 682 175 q 648 343 682 313 q 561 384 614 374 q 453 394 508 394 l 222 394 l 222 104 m 222 499 l 453 499 q 601 540 547 499 q 654 657 654 581 q 601 765 654 732 q 467 799 547 799 l 222 799 l 222 499 z "},"C":{"ha":958,"x_min":69,"x_max":889,"o":"m 888 301 q 821 133 874 204 q 687 24 768 63 q 506 -14 606 -14 q 333 19 413 -14 q 195 113 254 51 q 103 260 136 174 q 69 451 69 346 q 103 644 69 558 q 195 790 136 729 q 333 884 254 851 q 506 917 413 917 q 688 878 607 917 q 822 769 769 840 q 889 599 875 697 l 786 599 q 726 715 767 668 q 628 788 685 763 q 506 813 571 813 q 347 771 421 813 q 226 649 272 729 q 181 451 181 568 q 226 254 181 335 q 347 132 272 174 q 506 90 421 90 q 627 115 571 90 q 724 186 683 139 q 785 301 765 233 l 888 301 z "},"Ć":{"ha":958,"x_min":69,"x_max":889,"o":"m 888 301 q 821 133 874 204 q 687 24 768 63 q 506 -14 606 -14 q 333 19 413 -14 q 195 113 254 51 q 103 260 136 174 q 69 451 69 346 q 103 644 69 558 q 195 790 136 729 q 333 884 254 851 q 506 917 413 917 q 688 878 607 917 q 822 769 769 840 q 889 599 875 697 l 786 599 q 726 715 767 668 q 628 788 685 763 q 506 813 571 813 q 347 771 421 813 q 226 649 272 729 q 181 451 181 568 q 226 254 181 335 q 347 132 272 174 q 506 90 421 90 q 627 115 571 90 q 724 186 683 139 q 785 301 765 233 l 888 301 m 443 1029 l 590 1253 l 736 1253 l 542 1029 l 443 1029 z "},"Č":{"ha":958,"x_min":69,"x_max":889,"o":"m 888 301 q 821 133 874 204 q 687 24 768 63 q 506 -14 606 -14 q 333 19 413 -14 q 195 113 254 51 q 103 260 136 174 q 69 451 69 346 q 103 644 69 558 q 195 790 136 729 q 333 884 254 851 q 506 917 413 917 q 688 878 607 917 q 822 769 769 840 q 889 599 875 697 l 786 599 q 726 715 767 668 q 628 788 685 763 q 506 813 571 813 q 347 771 421 813 q 226 649 272 729 q 181 451 181 568 q 226 254 181 335 q 347 132 272 174 q 506 90 421 90 q 627 115 571 90 q 724 186 683 139 q 785 301 765 233 l 888 301 m 533 1063 l 478 1063 l 603 1253 l 735 1253 l 554 1029 l 456 1029 l 275 1253 l 407 1253 l 533 1063 z "},"Ç":{"ha":958,"x_min":69,"x_max":889,"o":"m 392 -165 q 399 -191 393 -175 q 420 -220 404 -207 q 467 -233 436 -233 q 513 -213 501 -233 q 525 -175 525 -193 q 519 -142 525 -160 q 495 -107 513 -125 q 443 -75 478 -89 l 501 -44 q 558 -70 533 -53 q 599 -115 583 -87 q 614 -185 614 -143 q 576 -277 614 -235 q 460 -319 539 -319 q 374 -297 410 -319 q 321 -240 338 -275 q 311 -165 304 -204 l 392 -165 m 443 22 l 556 22 l 556 -89 l 443 -75 l 443 22 m 888 301 q 821 133 874 204 q 687 24 768 63 q 506 -14 606 -14 q 333 19 413 -14 q 195 113 254 51 q 103 260 136 174 q 69 451 69 346 q 103 644 69 558 q 195 790 136 729 q 333 884 254 851 q 506 917 413 917 q 688 878 607 917 q 822 769 769 840 q 889 599 875 697 l 786 599 q 726 715 767 668 q 628 788 685 763 q 506 813 571 813 q 347 771 421 813 q 226 649 272 729 q 181 451 181 568 q 226 254 181 335 q 347 132 272 174 q 506 90 421 90 q 627 115 571 90 q 724 186 683 139 q 785 301 765 233 l 888 301 z "},"Ċ":{"ha":958,"x_min":69,"x_max":889,"o":"m 888 301 q 821 133 874 204 q 687 24 768 63 q 506 -14 606 -14 q 333 19 413 -14 q 195 113 254 51 q 103 260 136 174 q 69 451 69 346 q 103 644 69 558 q 195 790 136 729 q 333 884 254 851 q 506 917 413 917 q 688 878 607 917 q 822 769 769 840 q 889 599 875 697 l 786 599 q 726 715 767 668 q 628 788 685 763 q 506 813 571 813 q 347 771 421 813 q 226 649 272 729 q 181 451 181 568 q 226 254 181 335 q 347 132 272 174 q 506 90 421 90 q 627 115 571 90 q 724 186 683 139 q 785 301 765 233 l 888 301 m 571 1168 l 571 1032 l 426 1032 l 426 1168 l 571 1168 z "},"D":{"ha":956,"x_min":111,"x_max":886,"o":"m 404 903 q 633 867 540 903 q 781 769 725 832 q 861 626 836 707 q 886 456 886 546 q 860 283 886 365 q 776 138 833 201 q 626 37 718 74 q 404 0 535 0 l 111 0 l 111 903 l 404 903 m 222 104 l 404 104 q 585 135 514 104 q 699 216 657 165 q 758 329 740 267 q 775 456 775 392 q 758 581 775 519 q 699 691 740 642 q 585 769 657 740 q 404 799 514 799 l 222 799 l 222 104 z "},"Ð":{"ha":956,"x_min":0,"x_max":886,"o":"m 404 903 q 633 867 540 903 q 781 769 725 832 q 861 626 836 707 q 886 456 886 546 q 860 283 886 365 q 776 138 833 201 q 626 37 718 74 q 404 0 535 0 l 111 0 l 111 903 l 404 903 m 222 104 l 404 104 q 585 135 514 104 q 699 216 657 165 q 758 329 740 267 q 775 456 775 392 q 758 581 775 519 q 699 691 740 642 q 585 769 657 740 q 404 799 514 799 l 222 799 l 222 104 m 0 500 l 417 500 l 417 403 l 0 403 l 0 500 z "},"Ď":{"ha":956,"x_min":111,"x_max":886,"o":"m 404 903 q 633 867 540 903 q 781 769 725 832 q 861 626 836 707 q 886 456 886 546 q 860 283 886 365 q 776 138 833 201 q 626 37 718 74 q 404 0 535 0 l 111 0 l 111 903 l 404 903 m 222 104 l 404 104 q 585 135 514 104 q 699 216 657 165 q 758 329 740 267 q 775 456 775 392 q 758 581 775 519 q 699 691 740 642 q 585 769 657 740 q 404 799 514 799 l 222 799 l 222 104 m 486 1063 l 431 1063 l 556 1253 l 688 1253 l 507 1029 l 408 1029 l 228 1253 l 360 1253 l 486 1063 z "},"Đ":{"ha":956,"x_min":0,"x_max":886,"o":"m 404 903 q 633 867 540 903 q 781 769 725 832 q 861 626 836 707 q 886 456 886 546 q 860 283 886 365 q 776 138 833 201 q 626 37 718 74 q 404 0 535 0 l 111 0 l 111 903 l 404 903 m 222 104 l 404 104 q 585 135 514 104 q 699 216 657 165 q 758 329 740 267 q 775 456 775 392 q 758 581 775 519 q 699 691 740 642 q 585 769 657 740 q 404 799 514 799 l 222 799 l 222 104 m 0 500 l 417 500 l 417 403 l 0 403 l 0 500 z "},"E":{"ha":835,"x_min":111,"x_max":751,"o":"m 222 397 l 222 104 l 751 104 l 751 0 l 111 0 l 111 903 l 750 903 l 750 799 l 222 799 l 222 501 l 654 501 l 654 397 l 222 397 z "},"É":{"ha":835,"x_min":111,"x_max":751,"o":"m 222 397 l 222 104 l 751 104 l 751 0 l 111 0 l 111 903 l 750 903 l 750 799 l 222 799 l 222 501 l 654 501 l 654 397 l 222 397 m 376 1029 l 524 1253 l 669 1253 l 475 1029 l 376 1029 z "},"Ě":{"ha":835,"x_min":111,"x_max":751,"o":"m 222 397 l 222 104 l 751 104 l 751 0 l 111 0 l 111 903 l 750 903 l 750 799 l 222 799 l 222 501 l 654 501 l 654 397 l 222 397 m 467 1063 l 411 1063 l 536 1253 l 668 1253 l 488 1029 l 389 1029 l 208 1253 l 340 1253 l 467 1063 z "},"Ê":{"ha":835,"x_min":111,"x_max":751,"o":"m 222 397 l 222 104 l 751 104 l 751 0 l 111 0 l 111 903 l 750 903 l 750 799 l 222 799 l 222 501 l 654 501 l 654 397 l 222 397 m 481 1253 l 668 1029 l 536 1029 l 404 1224 l 460 1224 l 326 1029 l 193 1029 l 382 1253 l 481 1253 z "},"Ë":{"ha":835,"x_min":111,"x_max":751,"o":"m 222 397 l 222 104 l 751 104 l 751 0 l 111 0 l 111 903 l 750 903 l 750 799 l 222 799 l 222 501 l 654 501 l 654 397 l 222 397 m 382 1167 l 382 1031 l 238 1031 l 238 1167 l 382 1167 m 628 1167 l 628 1031 l 483 1031 l 483 1167 l 628 1167 z "},"Ė":{"ha":835,"x_min":111,"x_max":751,"o":"m 222 397 l 222 104 l 751 104 l 751 0 l 111 0 l 111 903 l 750 903 l 750 799 l 222 799 l 222 501 l 654 501 l 654 397 l 222 397 m 504 1168 l 504 1032 l 360 1032 l 360 1168 l 504 1168 z "},"È":{"ha":835,"x_min":111,"x_max":751,"o":"m 222 397 l 222 104 l 751 104 l 751 0 l 111 0 l 111 903 l 750 903 l 750 799 l 222 799 l 222 501 l 654 501 l 654 397 l 222 397 m 382 1029 l 188 1253 l 333 1253 l 481 1029 l 382 1029 z "},"Ē":{"ha":835,"x_min":111,"x_max":751,"o":"m 222 397 l 222 104 l 751 104 l 751 0 l 111 0 l 111 903 l 750 903 l 750 799 l 222 799 l 222 501 l 654 501 l 654 397 l 222 397 m 265 1046 l 265 1143 l 599 1143 l 599 1046 l 265 1046 z "},"Ę":{"ha":835,"x_min":111,"x_max":751,"o":"m 697 -299 q 531 -253 594 -299 q 468 -132 468 -208 q 495 -47 468 -81 q 568 5 522 -14 q 668 31 614 24 l 668 0 q 592 -40 625 -10 q 558 -118 558 -71 q 574 -172 558 -149 q 622 -209 590 -196 q 697 -222 653 -222 l 697 -299 m 222 397 l 222 104 l 751 104 l 751 0 l 111 0 l 111 903 l 750 903 l 750 799 l 222 799 l 222 501 l 654 501 l 654 397 l 222 397 z "},"F":{"ha":785,"x_min":111,"x_max":750,"o":"m 750 903 l 750 799 l 222 799 l 222 501 l 654 501 l 654 397 l 222 397 l 222 0 l 111 0 l 111 903 l 750 903 z "},"G":{"ha":1001,"x_min":69,"x_max":918,"o":"m 494 -14 q 317 19 396 -14 q 183 113 239 53 q 99 258 128 174 q 69 444 69 343 q 101 634 69 547 q 192 784 133 721 q 330 882 250 847 q 506 917 410 917 q 690 877 610 917 q 821 766 771 838 q 881 599 871 694 l 786 599 q 728 713 768 665 q 631 787 688 761 q 506 813 575 813 q 337 765 410 813 q 222 633 264 717 q 181 444 181 550 q 218 259 181 339 q 326 135 256 179 q 494 90 397 90 q 626 119 569 90 q 717 205 682 149 q 764 343 751 261 l 832 343 q 719 75 810 164 q 494 -14 629 -14 m 810 0 q 812 103 810 46 q 818 221 814 161 q 825 328 822 281 l 519 328 l 519 432 l 918 432 l 918 0 l 810 0 z "},"Ğ":{"ha":1001,"x_min":69,"x_max":918,"o":"m 494 -14 q 317 19 396 -14 q 183 113 239 53 q 99 258 128 174 q 69 444 69 343 q 101 634 69 547 q 192 784 133 721 q 330 882 250 847 q 506 917 410 917 q 690 877 610 917 q 821 766 771 838 q 881 599 871 694 l 786 599 q 728 713 768 665 q 631 787 688 761 q 506 813 575 813 q 337 765 410 813 q 222 633 264 717 q 181 444 181 550 q 218 259 181 339 q 326 135 256 179 q 494 90 397 90 q 626 119 569 90 q 717 205 682 149 q 764 343 751 261 l 832 343 q 719 75 810 164 q 494 -14 629 -14 m 810 0 q 812 103 810 46 q 818 221 814 161 q 825 328 822 281 l 519 328 l 519 432 l 918 432 l 918 0 l 810 0 m 694 1208 q 674 1098 694 1146 q 613 1022 654 1050 q 507 994 571 994 q 401 1022 443 994 q 340 1098 360 1050 q 319 1208 319 1146 l 417 1208 q 440 1119 417 1147 q 507 1092 463 1092 q 574 1119 551 1092 q 597 1208 597 1147 l 694 1208 z "},"Ģ":{"ha":1001,"x_min":69,"x_max":918,"o":"m 494 -14 q 317 19 396 -14 q 183 113 239 53 q 99 258 128 174 q 69 444 69 343 q 101 634 69 547 q 192 784 133 721 q 330 882 250 847 q 506 917 410 917 q 690 877 610 917 q 821 766 771 838 q 881 599 871 694 l 786 599 q 728 713 768 665 q 631 787 688 761 q 506 813 575 813 q 337 765 410 813 q 222 633 264 717 q 181 444 181 550 q 218 259 181 339 q 326 135 256 179 q 494 90 397 90 q 626 119 569 90 q 717 205 682 149 q 764 343 751 261 l 832 343 q 719 75 810 164 q 494 -14 629 -14 m 810 0 q 812 103 810 46 q 818 221 814 161 q 825 328 822 281 l 519 328 l 519 432 l 918 432 l 918 0 l 810 0 m 456 -339 l 440 -310 q 480 -263 464 -287 q 497 -219 496 -239 l 429 -204 l 429 -92 l 576 -92 l 576 -149 q 544 -271 576 -222 q 456 -339 513 -319 l 456 -339 z "},"Ġ":{"ha":1001,"x_min":69,"x_max":918,"o":"m 494 -14 q 317 19 396 -14 q 183 113 239 53 q 99 258 128 174 q 69 444 69 343 q 101 634 69 547 q 192 784 133 721 q 330 882 250 847 q 506 917 410 917 q 690 877 610 917 q 821 766 771 838 q 881 599 871 694 l 786 599 q 728 713 768 665 q 631 787 688 761 q 506 813 575 813 q 337 765 410 813 q 222 633 264 717 q 181 444 181 550 q 218 259 181 339 q 326 135 256 179 q 494 90 397 90 q 626 119 569 90 q 717 205 682 149 q 764 343 751 261 l 832 343 q 719 75 810 164 q 494 -14 629 -14 m 810 0 q 812 103 810 46 q 818 221 814 161 q 825 328 822 281 l 519 328 l 519 432 l 918 432 l 918 0 l 810 0 m 579 1168 l 579 1032 l 435 1032 l 435 1168 l 579 1168 z "},"H":{"ha":1000,"x_min":111,"x_max":889,"o":"m 213 503 l 785 503 l 785 399 l 213 399 l 213 503 m 778 903 l 889 903 l 889 0 l 778 0 l 778 903 m 111 903 l 222 903 l 222 0 l 111 0 l 111 903 z "},"Ħ":{"ha":1000,"x_min":56,"x_max":944,"o":"m 56 642 l 56 746 l 944 746 l 944 642 l 56 642 m 213 503 l 785 503 l 785 399 l 213 399 l 213 503 m 778 903 l 889 903 l 889 0 l 778 0 l 778 903 m 111 903 l 222 903 l 222 0 l 111 0 l 111 903 z "},"I":{"ha":389,"x_min":139,"x_max":250,"o":"m 139 903 l 250 903 l 250 0 l 139 0 l 139 903 z "},"Ĳ":{"ha":854,"x_min":139,"x_max":743,"o":"m 139 903 l 250 903 l 250 365 l 139 365 l 139 903 m 632 304 l 632 903 l 743 903 l 743 304 q 724 178 743 236 q 666 76 704 119 q 572 10 628 33 q 444 -14 517 -14 q 328 5 382 -14 q 233 59 274 24 q 169 146 193 94 q 142 261 144 197 l 243 261 q 311 133 257 176 q 444 90 365 90 q 551 118 510 90 q 612 194 592 146 q 632 304 632 242 z "},"Í":{"ha":389,"x_min":139,"x_max":432,"o":"m 139 903 l 250 903 l 250 0 l 139 0 l 139 903 m 139 1029 l 286 1253 l 432 1253 l 238 1029 l 139 1029 z "},"Î":{"ha":389,"x_min":-44,"x_max":431,"o":"m 139 903 l 250 903 l 250 0 l 139 0 l 139 903 m 243 1253 l 431 1029 l 299 1029 l 167 1224 l 222 1224 l 89 1029 l -44 1029 l 144 1253 l 243 1253 z "},"Ï":{"ha":389,"x_min":0,"x_max":390,"o":"m 139 903 l 250 903 l 250 0 l 139 0 l 139 903 m 144 1167 l 144 1031 l 0 1031 l 0 1167 l 144 1167 m 390 1167 l 390 1031 l 246 1031 l 246 1167 l 390 1167 z "},"İ":{"ha":389,"x_min":122,"x_max":267,"o":"m 139 903 l 250 903 l 250 0 l 139 0 l 139 903 m 267 1168 l 267 1032 l 122 1032 l 122 1168 l 267 1168 z "},"Ì":{"ha":389,"x_min":-50,"x_max":250,"o":"m 139 903 l 250 903 l 250 0 l 139 0 l 139 903 m 144 1029 l -50 1253 l 96 1253 l 243 1029 l 144 1029 z "},"Ī":{"ha":389,"x_min":28,"x_max":361,"o":"m 139 903 l 250 903 l 250 0 l 139 0 l 139 903 m 28 1046 l 28 1143 l 361 1143 l 361 1046 l 28 1046 z "},"Į":{"ha":389,"x_min":7,"x_max":250,"o":"m 236 -299 q 70 -253 133 -299 q 7 -132 7 -208 q 34 -47 7 -81 q 107 5 61 -14 q 207 31 153 24 l 207 0 q 131 -40 164 -10 q 97 -118 97 -71 q 113 -172 97 -149 q 160 -209 129 -196 q 236 -222 192 -222 l 236 -299 m 139 903 l 250 903 l 250 0 l 139 0 l 139 903 z "},"J":{"ha":746,"x_min":33,"x_max":635,"o":"m 524 304 l 524 903 l 635 903 l 635 304 q 615 178 635 236 q 558 76 596 119 q 464 10 519 33 q 336 -14 408 -14 q 219 5 274 -14 q 125 59 165 24 q 60 146 85 94 q 33 261 36 197 l 135 261 q 203 133 149 176 q 336 90 257 90 q 442 118 401 90 q 503 194 483 146 q 524 304 524 242 z "},"K":{"ha":876,"x_min":111,"x_max":849,"o":"m 326 439 l 326 511 l 849 0 l 697 0 l 222 472 l 640 903 l 790 903 l 326 439 m 111 903 l 222 903 l 222 0 l 111 0 l 111 903 z "},"Ķ":{"ha":876,"x_min":111,"x_max":849,"o":"m 326 439 l 326 511 l 849 0 l 697 0 l 222 472 l 640 903 l 790 903 l 326 439 m 111 903 l 222 903 l 222 0 l 111 0 l 111 903 m 376 -339 l 361 -310 q 401 -263 385 -287 q 418 -219 417 -239 l 350 -204 l 350 -92 l 497 -92 l 497 -149 q 465 -271 497 -222 q 376 -339 433 -319 l 376 -339 z "},"L":{"ha":792,"x_min":111,"x_max":722,"o":"m 222 903 l 222 104 l 722 104 l 722 0 l 111 0 l 111 903 l 222 903 z "},"Ĺ":{"ha":792,"x_min":110,"x_max":722,"o":"m 222 903 l 222 104 l 722 104 l 722 0 l 111 0 l 111 903 l 222 903 m 110 1029 l 257 1253 l 403 1253 l 208 1029 l 110 1029 z "},"Ľ":{"ha":792,"x_min":111,"x_max":722,"o":"m 222 903 l 222 104 l 722 104 l 722 0 l 111 0 l 111 903 l 222 903 m 510 689 l 447 689 l 418 865 l 418 972 l 540 972 l 540 865 l 510 689 z "},"Ļ":{"ha":792,"x_min":111,"x_max":722,"o":"m 222 903 l 222 104 l 722 104 l 722 0 l 111 0 l 111 903 l 222 903 m 407 -339 l 392 -310 q 431 -263 415 -287 q 449 -219 447 -239 l 381 -204 l 381 -92 l 528 -92 l 528 -149 q 496 -271 528 -222 q 407 -339 464 -319 l 407 -339 z "},"Ŀ":{"ha":792,"x_min":111,"x_max":722,"o":"m 222 903 l 222 104 l 722 104 l 722 0 l 111 0 l 111 903 l 222 903 m 564 544 l 564 408 l 419 408 l 419 544 l 564 544 z "},"Ł":{"ha":792,"x_min":-49,"x_max":722,"o":"m 222 903 l 222 104 l 722 104 l 722 0 l 111 0 l 111 903 l 222 903 m 518 703 l 569 629 l 0 240 l -49 314 l 518 703 z "},"M":{"ha":1222,"x_min":111,"x_max":1111,"o":"m 633 67 l 589 67 l 1000 903 l 1111 903 l 1111 0 l 1000 0 l 1000 710 l 1022 704 l 667 0 l 556 0 l 200 703 l 222 708 l 222 0 l 111 0 l 111 903 l 222 903 l 633 67 z "},"N":{"ha":1000,"x_min":111,"x_max":889,"o":"m 808 132 l 778 122 l 778 903 l 889 903 l 889 0 l 778 0 l 192 769 l 222 779 l 222 0 l 111 0 l 111 903 l 222 903 l 808 132 z "},"Ń":{"ha":1000,"x_min":111,"x_max":889,"o":"m 808 132 l 778 122 l 778 903 l 889 903 l 889 0 l 778 0 l 192 769 l 222 779 l 222 0 l 111 0 l 111 903 l 222 903 l 808 132 m 454 1029 l 601 1253 l 747 1253 l 553 1029 l 454 1029 z "},"Ň":{"ha":1000,"x_min":111,"x_max":889,"o":"m 808 132 l 778 122 l 778 903 l 889 903 l 889 0 l 778 0 l 192 769 l 222 779 l 222 0 l 111 0 l 111 903 l 222 903 l 808 132 m 544 1063 l 489 1063 l 614 1253 l 746 1253 l 565 1029 l 467 1029 l 286 1253 l 418 1253 l 544 1063 z "},"Ņ":{"ha":1000,"x_min":111,"x_max":889,"o":"m 808 132 l 778 122 l 778 903 l 889 903 l 889 0 l 778 0 l 192 769 l 222 779 l 222 0 l 111 0 l 111 903 l 222 903 l 808 132 m 458 -339 l 443 -310 q 483 -263 467 -287 q 500 -219 499 -239 l 432 -204 l 432 -92 l 579 -92 l 579 -149 q 547 -271 579 -222 q 458 -339 515 -319 l 458 -339 z "},"Ñ":{"ha":1000,"x_min":111,"x_max":889,"o":"m 808 132 l 778 122 l 778 903 l 889 903 l 889 0 l 778 0 l 192 769 l 222 779 l 222 0 l 111 0 l 111 903 l 222 903 l 808 132 m 601 1031 q 539 1044 565 1031 q 491 1075 513 1057 q 447 1106 469 1093 q 396 1119 425 1119 q 354 1105 368 1119 q 335 1069 340 1090 q 326 1029 329 1049 l 235 1029 q 256 1123 238 1081 q 305 1191 274 1165 q 382 1217 336 1217 q 447 1203 418 1217 q 498 1172 475 1190 q 542 1141 521 1154 q 588 1128 564 1128 q 628 1142 614 1128 q 649 1178 643 1157 q 657 1218 654 1200 l 749 1218 q 727 1124 744 1167 q 678 1056 710 1082 q 601 1031 646 1031 z "},"Ŋ":{"ha":1000,"x_min":111,"x_max":889,"o":"m 808 132 l 778 122 l 778 903 l 889 903 l 889 -28 q 874 -124 889 -82 q 831 -199 858 -167 q 769 -251 804 -231 q 693 -281 733 -271 q 611 -292 653 -292 l 611 -181 q 691 -167 653 -181 q 753 -115 729 -154 q 778 0 778 -76 l 192 769 l 222 779 l 222 0 l 111 0 l 111 903 l 222 903 l 808 132 z "},"O":{"ha":1028,"x_min":69,"x_max":958,"o":"m 514 -14 q 290 44 390 -14 q 129 206 189 101 q 69 451 69 310 q 129 698 69 593 q 290 860 189 803 q 514 917 390 917 q 738 860 638 917 q 899 698 839 803 q 958 451 958 593 q 899 206 958 310 q 738 44 839 101 q 514 -14 638 -14 m 514 90 q 683 131 608 90 q 803 253 758 172 q 847 451 847 333 q 803 649 847 569 q 683 771 758 729 q 514 813 608 813 q 345 771 421 813 q 225 649 269 729 q 181 451 181 569 q 225 253 181 333 q 345 131 269 172 q 514 90 421 90 z "},"Ó":{"ha":1028,"x_min":69,"x_max":958,"o":"m 514 -14 q 290 44 390 -14 q 129 206 189 101 q 69 451 69 310 q 129 698 69 593 q 290 860 189 803 q 514 917 390 917 q 738 860 638 917 q 899 698 839 803 q 958 451 958 593 q 899 206 958 310 q 738 44 839 101 q 514 -14 638 -14 m 514 90 q 683 131 608 90 q 803 253 758 172 q 847 451 847 333 q 803 649 847 569 q 683 771 758 729 q 514 813 608 813 q 345 771 421 813 q 225 649 269 729 q 181 451 181 569 q 225 253 181 333 q 345 131 269 172 q 514 90 421 90 m 458 1029 l 606 1253 l 751 1253 l 557 1029 l 458 1029 z "},"Ô":{"ha":1028,"x_min":69,"x_max":958,"o":"m 514 -14 q 290 44 390 -14 q 129 206 189 101 q 69 451 69 310 q 129 698 69 593 q 290 860 189 803 q 514 917 390 917 q 738 860 638 917 q 899 698 839 803 q 958 451 958 593 q 899 206 958 310 q 738 44 839 101 q 514 -14 638 -14 m 514 90 q 683 131 608 90 q 803 253 758 172 q 847 451 847 333 q 803 649 847 569 q 683 771 758 729 q 514 813 608 813 q 345 771 421 813 q 225 649 269 729 q 181 451 181 569 q 225 253 181 333 q 345 131 269 172 q 514 90 421 90 m 563 1253 l 750 1029 l 618 1029 l 486 1224 l 542 1224 l 408 1029 l 275 1029 l 464 1253 l 563 1253 z "},"Ö":{"ha":1028,"x_min":0,"x_max":1029,"o":"m 514 -14 q 290 44 390 -14 q 129 206 189 101 q 69 451 69 310 q 129 698 69 593 q 290 860 189 803 q 514 917 390 917 q 738 860 638 917 q 899 698 839 803 q 958 451 958 593 q 899 206 958 310 q 738 44 839 101 q 514 -14 638 -14 m 514 90 q 683 131 608 90 q 803 253 758 172 q 847 451 847 333 q 803 649 847 569 q 683 771 758 729 q 514 813 608 813 q 345 771 421 813 q 225 649 269 729 q 181 451 181 569 q 225 253 181 333 q 345 131 269 172 q 514 90 421 90 m 144 903 l 144 767 l 0 767 l 0 903 l 144 903 m 1029 903 l 1029 767 l 885 767 l 885 903 l 1029 903 z "},"Ȯ":{"ha":1028,"x_min":69,"x_max":958,"o":"m 514 -14 q 290 44 390 -14 q 129 206 189 101 q 69 451 69 310 q 129 698 69 593 q 290 860 189 803 q 514 917 390 917 q 738 860 638 917 q 899 698 839 803 q 958 451 958 593 q 899 206 958 310 q 738 44 839 101 q 514 -14 638 -14 m 514 90 q 683 131 608 90 q 803 253 758 172 q 847 451 847 333 q 803 649 847 569 q 683 771 758 729 q 514 813 608 813 q 345 771 421 813 q 225 649 269 729 q 181 451 181 569 q 225 253 181 333 q 345 131 269 172 q 514 90 421 90 m 586 1168 l 586 1032 l 442 1032 l 442 1168 l 586 1168 z "},"Ò":{"ha":1028,"x_min":69,"x_max":958,"o":"m 514 -14 q 290 44 390 -14 q 129 206 189 101 q 69 451 69 310 q 129 698 69 593 q 290 860 189 803 q 514 917 390 917 q 738 860 638 917 q 899 698 839 803 q 958 451 958 593 q 899 206 958 310 q 738 44 839 101 q 514 -14 638 -14 m 514 90 q 683 131 608 90 q 803 253 758 172 q 847 451 847 333 q 803 649 847 569 q 683 771 758 729 q 514 813 608 813 q 345 771 421 813 q 225 649 269 729 q 181 451 181 569 q 225 253 181 333 q 345 131 269 172 q 514 90 421 90 m 464 1029 l 269 1253 l 415 1253 l 563 1029 l 464 1029 z "},"Ő":{"ha":1028,"x_min":69,"x_max":958,"o":"m 514 -14 q 290 44 390 -14 q 129 206 189 101 q 69 451 69 310 q 129 698 69 593 q 290 860 189 803 q 514 917 390 917 q 738 860 638 917 q 899 698 839 803 q 958 451 958 593 q 899 206 958 310 q 738 44 839 101 q 514 -14 638 -14 m 514 90 q 683 131 608 90 q 803 253 758 172 q 847 451 847 333 q 803 649 847 569 q 683 771 758 729 q 514 813 608 813 q 345 771 421 813 q 225 649 269 729 q 181 451 181 569 q 225 253 181 333 q 345 131 269 172 q 514 90 421 90 m 578 1029 l 725 1253 l 871 1253 l 676 1029 l 578 1029 m 314 1029 l 461 1253 l 607 1253 l 413 1029 l 314 1029 z "},"Ō":{"ha":1028,"x_min":69,"x_max":958,"o":"m 514 -14 q 290 44 390 -14 q 129 206 189 101 q 69 451 69 310 q 129 698 69 593 q 290 860 189 803 q 514 917 390 917 q 738 860 638 917 q 899 698 839 803 q 958 451 958 593 q 899 206 958 310 q 738 44 839 101 q 514 -14 638 -14 m 514 90 q 683 131 608 90 q 803 253 758 172 q 847 451 847 333 q 803 649 847 569 q 683 771 758 729 q 514 813 608 813 q 345 771 421 813 q 225 649 269 729 q 181 451 181 569 q 225 253 181 333 q 345 131 269 172 q 514 90 421 90 m 347 1046 l 347 1143 l 681 1143 l 681 1046 l 347 1046 z "},"Ø":{"ha":1028,"x_min":69,"x_max":958,"o":"m 514 -14 q 290 44 390 -14 q 129 206 189 101 q 69 451 69 310 q 129 698 69 593 q 290 860 189 803 q 514 917 390 917 q 738 860 638 917 q 899 698 839 803 q 958 451 958 593 q 899 206 958 310 q 738 44 839 101 q 514 -14 638 -14 m 514 90 q 683 131 608 90 q 803 253 758 172 q 847 451 847 333 q 803 649 847 569 q 683 771 758 729 q 514 813 608 813 q 345 771 421 813 q 225 649 269 729 q 181 451 181 569 q 225 253 181 333 q 345 131 269 172 q 514 90 421 90 m 740 940 l 815 899 l 285 -60 l 213 -15 l 740 940 z "},"Õ":{"ha":1028,"x_min":69,"x_max":958,"o":"m 514 -14 q 290 44 390 -14 q 129 206 189 101 q 69 451 69 310 q 129 698 69 593 q 290 860 189 803 q 514 917 390 917 q 738 860 638 917 q 899 698 839 803 q 958 451 958 593 q 899 206 958 310 q 738 44 839 101 q 514 -14 638 -14 m 514 90 q 683 131 608 90 q 803 253 758 172 q 847 451 847 333 q 803 649 847 569 q 683 771 758 729 q 514 813 608 813 q 345 771 421 813 q 225 649 269 729 q 181 451 181 569 q 225 253 181 333 q 345 131 269 172 q 514 90 421 90 m 606 1031 q 543 1044 569 1031 q 495 1075 517 1057 q 451 1106 474 1093 q 400 1119 429 1119 q 358 1105 372 1119 q 339 1069 344 1090 q 331 1029 333 1049 l 239 1029 q 260 1123 242 1081 q 309 1191 278 1165 q 386 1217 340 1217 q 451 1203 422 1217 q 502 1172 479 1190 q 547 1141 525 1154 q 592 1128 568 1128 q 633 1142 618 1128 q 653 1178 647 1157 q 661 1218 658 1200 l 753 1218 q 731 1124 749 1167 q 682 1056 714 1082 q 606 1031 650 1031 z "},"Œ":{"ha":1342,"x_min":69,"x_max":1258,"o":"m 1258 106 l 1258 0 l 592 0 l 725 106 l 1258 106 m 1161 501 l 1161 397 l 938 397 l 938 501 l 1161 501 m 1257 903 l 1257 797 l 753 797 l 568 903 l 1257 903 m 514 -14 q 290 44 390 -14 q 129 206 189 101 q 69 451 69 310 q 129 698 69 593 q 290 860 189 803 q 514 917 390 917 q 738 860 638 917 q 899 698 839 803 q 958 451 958 593 q 899 206 958 310 q 738 44 839 101 q 514 -14 638 -14 m 514 90 q 683 131 608 90 q 803 253 758 172 q 847 451 847 333 q 803 649 847 569 q 683 771 758 729 q 514 813 608 813 q 345 771 421 813 q 225 649 269 729 q 181 451 181 569 q 225 253 181 333 q 345 131 269 172 q 514 90 421 90 z "},"P":{"ha":842,"x_min":108,"x_max":779,"o":"m 197 319 l 197 424 l 481 424 q 616 476 564 424 q 668 611 668 528 q 616 748 668 697 q 481 799 564 799 l 219 799 l 219 0 l 108 0 l 108 903 l 481 903 q 597 883 543 903 q 692 826 651 864 q 756 735 733 789 q 779 611 779 681 q 756 488 779 542 q 692 396 733 433 q 597 339 651 358 q 481 319 543 319 l 197 319 z "},"Þ":{"ha":842,"x_min":108,"x_max":779,"o":"m 481 743 q 597 724 543 743 q 692 667 651 704 q 756 575 733 629 q 779 451 779 521 q 756 328 779 382 q 692 236 733 274 q 597 179 651 199 q 481 160 543 160 l 203 160 l 203 264 l 481 264 q 616 316 564 264 q 668 451 668 368 q 616 588 668 538 q 481 639 564 639 l 203 639 l 203 743 l 481 743 m 108 903 l 219 903 l 219 0 l 108 0 l 108 903 z "},"Q":{"ha":1028,"x_min":69,"x_max":958,"o":"m 458 60 l 569 60 l 569 -278 l 458 -278 l 458 60 m 514 -14 q 290 44 390 -14 q 129 206 189 101 q 69 451 69 310 q 129 698 69 593 q 290 860 189 803 q 514 917 390 917 q 738 860 638 917 q 899 698 839 803 q 958 451 958 593 q 899 206 958 310 q 738 44 839 101 q 514 -14 638 -14 m 514 90 q 683 131 608 90 q 803 253 758 172 q 847 451 847 333 q 803 649 847 569 q 683 771 758 729 q 514 813 608 813 q 345 771 421 813 q 225 649 269 729 q 181 451 181 569 q 225 253 181 333 q 345 131 269 172 q 514 90 421 90 z "},"R":{"ha":892,"x_min":111,"x_max":808,"o":"m 111 0 l 111 903 l 510 903 q 671 874 604 903 q 773 789 738 846 q 808 646 808 732 q 790 546 808 588 q 738 476 771 504 q 659 432 704 447 q 561 413 614 417 l 557 419 q 683 401 631 417 q 765 346 736 386 q 794 225 794 306 l 794 0 l 683 0 l 683 225 q 665 312 683 281 q 602 356 646 343 q 482 369 558 369 l 222 369 l 222 0 l 111 0 m 222 474 l 510 474 q 651 522 604 474 q 697 646 697 569 q 651 759 697 719 q 510 799 604 799 l 222 799 l 222 474 z "},"Ŕ":{"ha":892,"x_min":111,"x_max":808,"o":"m 111 0 l 111 903 l 510 903 q 671 874 604 903 q 773 789 738 846 q 808 646 808 732 q 790 546 808 588 q 738 476 771 504 q 659 432 704 447 q 561 413 614 417 l 557 419 q 683 401 631 417 q 765 346 736 386 q 794 225 794 306 l 794 0 l 683 0 l 683 225 q 665 312 683 281 q 602 356 646 343 q 482 369 558 369 l 222 369 l 222 0 l 111 0 m 222 474 l 510 474 q 651 522 604 474 q 697 646 697 569 q 651 759 697 719 q 510 799 604 799 l 222 799 l 222 474 m 388 1029 l 535 1253 l 681 1253 l 486 1029 l 388 1029 z "},"Ř":{"ha":892,"x_min":111,"x_max":808,"o":"m 111 0 l 111 903 l 510 903 q 671 874 604 903 q 773 789 738 846 q 808 646 808 732 q 790 546 808 588 q 738 476 771 504 q 659 432 704 447 q 561 413 614 417 l 557 419 q 683 401 631 417 q 765 346 736 386 q 794 225 794 306 l 794 0 l 683 0 l 683 225 q 665 312 683 281 q 602 356 646 343 q 482 369 558 369 l 222 369 l 222 0 l 111 0 m 222 474 l 510 474 q 651 522 604 474 q 697 646 697 569 q 651 759 697 719 q 510 799 604 799 l 222 799 l 222 474 m 478 1063 l 422 1063 l 547 1253 l 679 1253 l 499 1029 l 400 1029 l 219 1253 l 351 1253 l 478 1063 z "},"Ŗ":{"ha":892,"x_min":111,"x_max":808,"o":"m 111 0 l 111 903 l 510 903 q 671 874 604 903 q 773 789 738 846 q 808 646 808 732 q 790 546 808 588 q 738 476 771 504 q 659 432 704 447 q 561 413 614 417 l 557 419 q 683 401 631 417 q 765 346 736 386 q 794 225 794 306 l 794 0 l 683 0 l 683 225 q 665 312 683 281 q 602 356 646 343 q 482 369 558 369 l 222 369 l 222 0 l 111 0 m 222 474 l 510 474 q 651 522 604 474 q 697 646 697 569 q 651 759 697 719 q 510 799 604 799 l 222 799 l 222 474 m 392 -339 l 376 -310 q 416 -263 400 -287 q 433 -219 432 -239 l 365 -204 l 365 -92 l 513 -92 l 513 -149 q 481 -271 513 -222 q 392 -339 449 -319 l 392 -339 z "},"S":{"ha":751,"x_min":44,"x_max":696,"o":"m 50 293 l 150 293 q 185 189 154 235 q 269 117 215 143 q 394 90 322 90 q 499 109 457 90 q 563 161 542 128 q 585 239 585 194 q 563 313 585 285 q 499 360 540 340 q 400 397 457 379 q 290 436 346 414 q 187 490 235 458 q 110 567 139 522 q 81 676 81 613 q 115 794 81 739 q 215 883 149 849 q 374 917 281 917 q 592 838 519 917 q 661 628 664 758 l 561 628 q 506 769 558 726 q 368 813 453 813 q 244 780 297 813 q 192 678 192 747 q 203 624 192 647 q 242 582 215 601 q 316 544 269 563 q 431 503 363 525 q 522 469 475 489 q 608 421 568 450 q 672 347 647 392 q 696 233 696 301 q 665 112 696 168 q 567 21 633 56 q 397 -14 501 -14 q 245 10 308 -14 q 142 74 182 35 q 80 155 101 113 q 51 235 58 197 q 50 293 44 272 z "},"Ś":{"ha":751,"x_min":44,"x_max":696,"o":"m 50 293 l 150 293 q 185 189 154 235 q 269 117 215 143 q 394 90 322 90 q 499 109 457 90 q 563 161 542 128 q 585 239 585 194 q 563 313 585 285 q 499 360 540 340 q 400 397 457 379 q 290 436 346 414 q 187 490 235 458 q 110 567 139 522 q 81 676 81 613 q 115 794 81 739 q 215 883 149 849 q 374 917 281 917 q 592 838 519 917 q 661 628 664 758 l 561 628 q 506 769 558 726 q 368 813 453 813 q 244 780 297 813 q 192 678 192 747 q 203 624 192 647 q 242 582 215 601 q 316 544 269 563 q 431 503 363 525 q 522 469 475 489 q 608 421 568 450 q 672 347 647 392 q 696 233 696 301 q 665 112 696 168 q 567 21 633 56 q 397 -14 501 -14 q 245 10 308 -14 q 142 74 182 35 q 80 155 101 113 q 51 235 58 197 q 50 293 44 272 m 311 1029 l 458 1253 l 604 1253 l 410 1029 l 311 1029 z "},"Š":{"ha":751,"x_min":44,"x_max":696,"o":"m 50 293 l 150 293 q 185 189 154 235 q 269 117 215 143 q 394 90 322 90 q 499 109 457 90 q 563 161 542 128 q 585 239 585 194 q 563 313 585 285 q 499 360 540 340 q 400 397 457 379 q 290 436 346 414 q 187 490 235 458 q 110 567 139 522 q 81 676 81 613 q 115 794 81 739 q 215 883 149 849 q 374 917 281 917 q 592 838 519 917 q 661 628 664 758 l 561 628 q 506 769 558 726 q 368 813 453 813 q 244 780 297 813 q 192 678 192 747 q 203 624 192 647 q 242 582 215 601 q 316 544 269 563 q 431 503 363 525 q 522 469 475 489 q 608 421 568 450 q 672 347 647 392 q 696 233 696 301 q 665 112 696 168 q 567 21 633 56 q 397 -14 501 -14 q 245 10 308 -14 q 142 74 182 35 q 80 155 101 113 q 51 235 58 197 q 50 293 44 272 m 401 1063 l 346 1063 l 471 1253 l 603 1253 l 422 1029 l 324 1029 l 143 1253 l 275 1253 l 401 1063 z "},"Ş":{"ha":751,"x_min":44,"x_max":696,"o":"m 271 -165 q 278 -191 272 -175 q 299 -220 283 -207 q 346 -233 315 -233 q 392 -213 381 -233 q 404 -175 404 -193 q 398 -142 404 -160 q 374 -107 392 -125 q 322 -75 357 -89 l 381 -44 q 438 -70 413 -53 q 478 -115 463 -87 q 493 -185 493 -143 q 456 -277 493 -235 q 339 -319 418 -319 q 253 -297 289 -319 q 200 -240 217 -275 q 190 -165 183 -204 l 271 -165 m 322 22 l 435 22 l 435 -89 l 322 -75 l 322 22 m 50 293 l 150 293 q 185 189 154 235 q 269 117 215 143 q 394 90 322 90 q 499 109 457 90 q 563 161 542 128 q 585 239 585 194 q 563 313 585 285 q 499 360 540 340 q 400 397 457 379 q 290 436 346 414 q 187 490 235 458 q 110 567 139 522 q 81 676 81 613 q 115 794 81 739 q 215 883 149 849 q 374 917 281 917 q 592 838 519 917 q 661 628 664 758 l 561 628 q 506 769 558 726 q 368 813 453 813 q 244 780 297 813 q 192 678 192 747 q 203 624 192 647 q 242 582 215 601 q 316 544 269 563 q 431 503 363 525 q 522 469 475 489 q 608 421 568 450 q 672 347 647 392 q 696 233 696 301 q 665 112 696 168 q 567 21 633 56 q 397 -14 501 -14 q 245 10 308 -14 q 142 74 182 35 q 80 155 101 113 q 51 235 58 197 q 50 293 44 272 z "},"Ș":{"ha":751,"x_min":44,"x_max":696,"o":"m 50 293 l 150 293 q 185 189 154 235 q 269 117 215 143 q 394 90 322 90 q 499 109 457 90 q 563 161 542 128 q 585 239 585 194 q 563 313 585 285 q 499 360 540 340 q 400 397 457 379 q 290 436 346 414 q 187 490 235 458 q 110 567 139 522 q 81 676 81 613 q 115 794 81 739 q 215 883 149 849 q 374 917 281 917 q 592 838 519 917 q 661 628 664 758 l 561 628 q 506 769 558 726 q 368 813 453 813 q 244 780 297 813 q 192 678 192 747 q 203 624 192 647 q 242 582 215 601 q 316 544 269 563 q 431 503 363 525 q 522 469 475 489 q 608 421 568 450 q 672 347 647 392 q 696 233 696 301 q 665 112 696 168 q 567 21 633 56 q 397 -14 501 -14 q 245 10 308 -14 q 142 74 182 35 q 80 155 101 113 q 51 235 58 197 q 50 293 44 272 m 326 -339 l 311 -310 q 351 -263 335 -287 q 368 -219 367 -239 l 300 -204 l 300 -92 l 447 -92 l 447 -149 q 415 -271 447 -222 q 326 -339 383 -319 l 326 -339 z "},"T":{"ha":764,"x_min":21,"x_max":743,"o":"m 21 903 l 743 903 l 743 799 l 21 799 l 21 903 m 326 810 l 438 810 l 438 0 l 326 0 l 326 810 z "},"Ŧ":{"ha":764,"x_min":21,"x_max":743,"o":"m 104 399 l 104 503 l 660 503 l 660 399 l 104 399 m 21 903 l 743 903 l 743 799 l 21 799 l 21 903 m 326 810 l 438 810 l 438 0 l 326 0 l 326 810 z "},"Ť":{"ha":764,"x_min":21,"x_max":743,"o":"m 21 903 l 743 903 l 743 799 l 21 799 l 21 903 m 326 810 l 438 810 l 438 0 l 326 0 l 326 810 m 417 1063 l 361 1063 l 486 1253 l 618 1253 l 438 1029 l 339 1029 l 158 1253 l 290 1253 l 417 1063 z "},"Ţ":{"ha":764,"x_min":21,"x_max":743,"o":"m 275 -165 q 282 -191 276 -175 q 303 -220 288 -207 q 350 -233 319 -233 q 397 -213 385 -233 q 408 -175 408 -193 q 402 -142 408 -160 q 378 -107 396 -125 q 326 -75 361 -89 l 385 -44 q 442 -70 417 -53 q 482 -115 467 -87 q 497 -185 497 -143 q 460 -277 497 -235 q 343 -319 422 -319 q 257 -297 293 -319 q 204 -240 221 -275 q 194 -165 188 -204 l 275 -165 m 326 22 l 439 22 l 439 -89 l 326 -75 l 326 22 m 21 903 l 743 903 l 743 799 l 21 799 l 21 903 m 326 810 l 438 810 l 438 0 l 326 0 l 326 810 z "},"Ț":{"ha":764,"x_min":21,"x_max":743,"o":"m 21 903 l 743 903 l 743 799 l 21 799 l 21 903 m 326 810 l 438 810 l 438 0 l 326 0 l 326 810 m 331 -339 l 315 -310 q 355 -263 339 -287 q 372 -219 371 -239 l 304 -204 l 304 -92 l 451 -92 l 451 -149 q 419 -271 451 -222 q 331 -339 388 -319 l 331 -339 z "},"U":{"ha":965,"x_min":111,"x_max":854,"o":"m 743 347 l 743 903 l 854 903 l 854 347 q 836 212 854 271 q 785 110 818 153 q 707 40 753 67 q 605 -1 661 13 q 485 -14 549 -14 q 363 -1 419 -14 q 259 40 306 13 q 180 110 213 67 q 129 212 147 153 q 111 347 111 271 l 111 903 l 222 903 l 222 347 q 258 188 222 243 q 354 111 294 132 q 485 90 414 90 q 613 111 554 90 q 707 188 671 132 q 743 347 743 243 z "},"Ú":{"ha":965,"x_min":111,"x_max":854,"o":"m 743 347 l 743 903 l 854 903 l 854 347 q 836 212 854 271 q 785 110 818 153 q 707 40 753 67 q 605 -1 661 13 q 485 -14 549 -14 q 363 -1 419 -14 q 259 40 306 13 q 180 110 213 67 q 129 212 147 153 q 111 347 111 271 l 111 903 l 222 903 l 222 347 q 258 188 222 243 q 354 111 294 132 q 485 90 414 90 q 613 111 554 90 q 707 188 671 132 q 743 347 743 243 m 429 1029 l 576 1253 l 722 1253 l 528 1029 l 429 1029 z "},"Û":{"ha":965,"x_min":111,"x_max":854,"o":"m 743 347 l 743 903 l 854 903 l 854 347 q 836 212 854 271 q 785 110 818 153 q 707 40 753 67 q 605 -1 661 13 q 485 -14 549 -14 q 363 -1 419 -14 q 259 40 306 13 q 180 110 213 67 q 129 212 147 153 q 111 347 111 271 l 111 903 l 222 903 l 222 347 q 258 188 222 243 q 354 111 294 132 q 485 90 414 90 q 613 111 554 90 q 707 188 671 132 q 743 347 743 243 m 533 1253 l 721 1029 l 589 1029 l 457 1224 l 513 1224 l 379 1029 l 246 1029 l 435 1253 l 533 1253 z "},"Ü":{"ha":965,"x_min":111,"x_max":854,"o":"m 743 347 l 743 903 l 854 903 l 854 347 q 836 212 854 271 q 785 110 818 153 q 707 40 753 67 q 605 -1 661 13 q 485 -14 549 -14 q 363 -1 419 -14 q 259 40 306 13 q 180 110 213 67 q 129 212 147 153 q 111 347 111 271 l 111 903 l 222 903 l 222 347 q 258 188 222 243 q 354 111 294 132 q 485 90 414 90 q 613 111 554 90 q 707 188 671 132 q 743 347 743 243 m 432 903 l 432 767 l 288 767 l 288 903 l 432 903 m 678 903 l 678 767 l 533 767 l 533 903 l 678 903 z "},"Ù":{"ha":965,"x_min":111,"x_max":854,"o":"m 743 347 l 743 903 l 854 903 l 854 347 q 836 212 854 271 q 785 110 818 153 q 707 40 753 67 q 605 -1 661 13 q 485 -14 549 -14 q 363 -1 419 -14 q 259 40 306 13 q 180 110 213 67 q 129 212 147 153 q 111 347 111 271 l 111 903 l 222 903 l 222 347 q 258 188 222 243 q 354 111 294 132 q 485 90 414 90 q 613 111 554 90 q 707 188 671 132 q 743 347 743 243 m 435 1029 l 240 1253 l 386 1253 l 533 1029 l 435 1029 z "},"Ű":{"ha":965,"x_min":111,"x_max":854,"o":"m 743 347 l 743 903 l 854 903 l 854 347 q 836 212 854 271 q 785 110 818 153 q 707 40 753 67 q 605 -1 661 13 q 485 -14 549 -14 q 363 -1 419 -14 q 259 40 306 13 q 180 110 213 67 q 129 212 147 153 q 111 347 111 271 l 111 903 l 222 903 l 222 347 q 258 188 222 243 q 354 111 294 132 q 485 90 414 90 q 613 111 554 90 q 707 188 671 132 q 743 347 743 243 m 549 1029 l 696 1253 l 842 1253 l 647 1029 l 549 1029 m 285 1029 l 432 1253 l 578 1253 l 383 1029 l 285 1029 z "},"Ū":{"ha":965,"x_min":111,"x_max":854,"o":"m 743 347 l 743 903 l 854 903 l 854 347 q 836 212 854 271 q 785 110 818 153 q 707 40 753 67 q 605 -1 661 13 q 485 -14 549 -14 q 363 -1 419 -14 q 259 40 306 13 q 180 110 213 67 q 129 212 147 153 q 111 347 111 271 l 111 903 l 222 903 l 222 347 q 258 188 222 243 q 354 111 294 132 q 485 90 414 90 q 613 111 554 90 q 707 188 671 132 q 743 347 743 243 m 318 1046 l 318 1143 l 651 1143 l 651 1046 l 318 1046 z "},"Ų":{"ha":965,"x_min":111,"x_max":854,"o":"m 678 -299 q 513 -253 575 -299 q 450 -132 450 -208 q 477 -47 450 -81 q 550 9 504 -12 q 650 43 596 31 l 650 13 q 574 -39 607 -7 q 540 -118 540 -71 q 556 -172 540 -149 q 602 -209 571 -196 q 678 -222 633 -222 l 678 -299 m 743 347 l 743 903 l 854 903 l 854 347 q 836 212 854 271 q 785 110 818 153 q 707 40 753 67 q 605 -1 661 13 q 485 -14 549 -14 q 363 -1 419 -14 q 259 40 306 13 q 180 110 213 67 q 129 212 147 153 q 111 347 111 271 l 111 903 l 222 903 l 222 347 q 258 188 222 243 q 354 111 294 132 q 485 90 414 90 q 613 111 554 90 q 707 188 671 132 q 743 347 743 243 z "},"Ů":{"ha":965,"x_min":111,"x_max":854,"o":"m 743 347 l 743 903 l 854 903 l 854 347 q 836 212 854 271 q 785 110 818 153 q 707 40 753 67 q 605 -1 661 13 q 485 -14 549 -14 q 363 -1 419 -14 q 259 40 306 13 q 180 110 213 67 q 129 212 147 153 q 111 347 111 271 l 111 903 l 222 903 l 222 347 q 258 188 222 243 q 354 111 294 132 q 485 90 414 90 q 613 111 554 90 q 707 188 671 132 q 743 347 743 243 m 485 996 q 357 1038 408 996 q 306 1151 306 1081 q 357 1263 306 1221 q 485 1306 408 1306 q 613 1263 563 1306 q 664 1151 664 1221 q 613 1038 664 1081 q 485 996 563 996 m 485 1072 q 551 1093 531 1072 q 572 1151 572 1114 q 551 1208 572 1188 q 485 1229 531 1229 q 417 1208 438 1229 q 396 1151 396 1188 q 417 1093 396 1114 q 485 1072 438 1072 z "},"V":{"ha":833,"x_min":28,"x_max":806,"o":"m 360 0 l 28 903 l 147 903 l 435 111 l 401 111 l 689 903 l 806 903 l 476 0 l 360 0 z "},"W":{"ha":1439,"x_min":28,"x_max":1411,"o":"m 353 0 l 28 903 l 147 903 l 426 119 l 393 119 l 661 903 l 781 903 l 1049 119 l 1015 119 l 1294 903 l 1411 903 l 1089 0 l 972 0 l 706 811 l 736 811 l 469 0 l 353 0 z "},"Ẃ":{"ha":1439,"x_min":28,"x_max":1411,"o":"m 353 0 l 28 903 l 147 903 l 426 119 l 393 119 l 661 903 l 781 903 l 1049 119 l 1015 119 l 1294 903 l 1411 903 l 1089 0 l 972 0 l 706 811 l 736 811 l 469 0 l 353 0 m 667 1029 l 814 1253 l 960 1253 l 765 1029 l 667 1029 z "},"Ŵ":{"ha":1439,"x_min":28,"x_max":1411,"o":"m 353 0 l 28 903 l 147 903 l 426 119 l 393 119 l 661 903 l 781 903 l 1049 119 l 1015 119 l 1294 903 l 1411 903 l 1089 0 l 972 0 l 706 811 l 736 811 l 469 0 l 353 0 m 771 1253 l 958 1029 l 826 1029 l 694 1224 l 750 1224 l 617 1029 l 483 1029 l 672 1253 l 771 1253 z "},"Ẅ":{"ha":1439,"x_min":28,"x_max":1411,"o":"m 353 0 l 28 903 l 147 903 l 426 119 l 393 119 l 661 903 l 781 903 l 1049 119 l 1015 119 l 1294 903 l 1411 903 l 1089 0 l 972 0 l 706 811 l 736 811 l 469 0 l 353 0 m 450 903 l 450 767 l 306 767 l 306 903 l 450 903 m 1113 903 l 1113 767 l 968 767 l 968 903 l 1113 903 z "},"Ẁ":{"ha":1439,"x_min":28,"x_max":1411,"o":"m 353 0 l 28 903 l 147 903 l 426 119 l 393 119 l 661 903 l 781 903 l 1049 119 l 1015 119 l 1294 903 l 1411 903 l 1089 0 l 972 0 l 706 811 l 736 811 l 469 0 l 353 0 m 672 1029 l 478 1253 l 624 1253 l 771 1029 l 672 1029 z "},"X":{"ha":856,"x_min":60,"x_max":796,"o":"m 671 903 l 796 903 l 463 422 l 460 418 l 185 0 l 60 0 l 399 508 l 401 511 l 671 903 m 199 903 l 457 513 l 458 510 l 796 0 l 657 0 l 394 421 l 392 424 l 74 903 l 199 903 z "},"Y":{"ha":819,"x_min":35,"x_max":785,"o":"m 785 903 l 465 310 l 465 0 l 354 0 l 354 310 l 35 903 l 160 903 l 435 382 l 390 382 l 660 903 l 785 903 z "},"Ý":{"ha":819,"x_min":35,"x_max":785,"o":"m 785 903 l 465 310 l 465 0 l 354 0 l 354 310 l 35 903 l 160 903 l 435 382 l 390 382 l 660 903 l 785 903 m 354 1029 l 501 1253 l 647 1253 l 453 1029 l 354 1029 z "},"Ŷ":{"ha":819,"x_min":35,"x_max":785,"o":"m 785 903 l 465 310 l 465 0 l 354 0 l 354 310 l 35 903 l 160 903 l 435 382 l 390 382 l 660 903 l 785 903 m 458 1253 l 646 1029 l 514 1029 l 382 1224 l 438 1224 l 304 1029 l 171 1029 l 360 1253 l 458 1253 z "},"Ÿ":{"ha":819,"x_min":35,"x_max":785,"o":"m 785 903 l 465 310 l 465 0 l 354 0 l 354 310 l 35 903 l 160 903 l 435 382 l 390 382 l 660 903 l 785 903 m 360 1167 l 360 1031 l 215 1031 l 215 1167 l 360 1167 m 606 1167 l 606 1031 l 461 1031 l 461 1167 l 606 1167 z "},"Ỳ":{"ha":819,"x_min":35,"x_max":785,"o":"m 785 903 l 465 310 l 465 0 l 354 0 l 354 310 l 35 903 l 160 903 l 435 382 l 390 382 l 660 903 l 785 903 m 360 1029 l 165 1253 l 311 1253 l 458 1029 l 360 1029 z "},"Z":{"ha":903,"x_min":83,"x_max":819,"o":"m 83 903 l 819 903 l 819 799 l 194 67 l 176 104 l 819 104 l 819 0 l 83 0 l 83 104 l 711 836 l 729 799 l 83 799 l 83 903 z "},"Ź":{"ha":903,"x_min":83,"x_max":819,"o":"m 83 903 l 819 903 l 819 799 l 194 67 l 176 104 l 819 104 l 819 0 l 83 0 l 83 104 l 711 836 l 729 799 l 83 799 l 83 903 m 396 1029 l 543 1253 l 689 1253 l 494 1029 l 396 1029 z "},"Ž":{"ha":903,"x_min":83,"x_max":819,"o":"m 83 903 l 819 903 l 819 799 l 194 67 l 176 104 l 819 104 l 819 0 l 83 0 l 83 104 l 711 836 l 729 799 l 83 799 l 83 903 m 486 1063 l 431 1063 l 556 1253 l 688 1253 l 507 1029 l 408 1029 l 228 1253 l 360 1253 l 486 1063 z "},"Ż":{"ha":903,"x_min":83,"x_max":819,"o":"m 83 903 l 819 903 l 819 799 l 194 67 l 176 104 l 819 104 l 819 0 l 83 0 l 83 104 l 711 836 l 729 799 l 83 799 l 83 903 m 524 1168 l 524 1032 l 379 1032 l 379 1168 l 524 1168 z "},"a":{"ha":790,"x_min":51,"x_max":700,"o":"m 353 -14 q 202 33 271 -14 q 92 160 133 79 q 51 346 51 242 q 93 532 51 450 q 206 661 135 614 q 367 708 278 708 q 515 659 464 708 q 584 528 565 610 q 603 346 603 446 q 592 231 603 293 q 553 113 581 169 q 478 22 526 57 q 353 -14 429 -14 m 381 92 q 498 126 451 92 q 567 219 544 161 q 589 346 589 276 q 566 480 589 422 q 497 570 543 538 q 381 603 450 603 q 219 530 276 603 q 163 346 163 457 q 191 215 163 272 q 269 124 219 157 q 381 92 318 92 m 589 694 l 700 694 l 700 0 l 599 0 q 597 25 599 0 q 592 83 594 50 q 589 139 589 117 l 589 694 z "},"á":{"ha":790,"x_min":51,"x_max":700,"o":"m 353 -14 q 202 33 271 -14 q 92 160 133 79 q 51 346 51 242 q 93 532 51 450 q 206 661 135 614 q 367 708 278 708 q 515 659 464 708 q 584 528 565 610 q 603 346 603 446 q 592 231 603 293 q 553 113 581 169 q 478 22 526 57 q 353 -14 429 -14 m 381 92 q 498 126 451 92 q 567 219 544 161 q 589 346 589 276 q 566 480 589 422 q 497 570 543 538 q 381 603 450 603 q 219 530 276 603 q 163 346 163 457 q 191 215 163 272 q 269 124 219 157 q 381 92 318 92 m 589 694 l 700 694 l 700 0 l 599 0 q 597 25 599 0 q 592 83 594 50 q 589 139 589 117 l 589 694 m 335 835 l 482 1058 l 628 1058 l 433 835 l 335 835 z "},"ă":{"ha":790,"x_min":51,"x_max":700,"o":"m 353 -14 q 202 33 271 -14 q 92 160 133 79 q 51 346 51 242 q 93 532 51 450 q 206 661 135 614 q 367 708 278 708 q 515 659 464 708 q 584 528 565 610 q 603 346 603 446 q 592 231 603 293 q 553 113 581 169 q 478 22 526 57 q 353 -14 429 -14 m 381 92 q 498 126 451 92 q 567 219 544 161 q 589 346 589 276 q 566 480 589 422 q 497 570 543 538 q 381 603 450 603 q 219 530 276 603 q 163 346 163 457 q 191 215 163 272 q 269 124 219 157 q 381 92 318 92 m 589 694 l 700 694 l 700 0 l 599 0 q 597 25 599 0 q 592 83 594 50 q 589 139 589 117 l 589 694 m 578 1014 q 558 903 578 951 q 496 828 538 856 q 390 800 454 800 q 285 828 326 800 q 223 903 243 856 q 203 1014 203 951 l 300 1014 q 323 925 300 953 q 390 897 346 897 q 458 925 435 897 q 481 1014 481 953 l 578 1014 z "},"â":{"ha":790,"x_min":51,"x_max":700,"o":"m 353 -14 q 202 33 271 -14 q 92 160 133 79 q 51 346 51 242 q 93 532 51 450 q 206 661 135 614 q 367 708 278 708 q 515 659 464 708 q 584 528 565 610 q 603 346 603 446 q 592 231 603 293 q 553 113 581 169 q 478 22 526 57 q 353 -14 429 -14 m 381 92 q 498 126 451 92 q 567 219 544 161 q 589 346 589 276 q 566 480 589 422 q 497 570 543 538 q 381 603 450 603 q 219 530 276 603 q 163 346 163 457 q 191 215 163 272 q 269 124 219 157 q 381 92 318 92 m 589 694 l 700 694 l 700 0 l 599 0 q 597 25 599 0 q 592 83 594 50 q 589 139 589 117 l 589 694 m 439 1058 l 626 835 l 494 835 l 363 1029 l 418 1029 l 285 835 l 151 835 l 340 1058 l 439 1058 z "},"ä":{"ha":790,"x_min":51,"x_max":700,"o":"m 353 -14 q 202 33 271 -14 q 92 160 133 79 q 51 346 51 242 q 93 532 51 450 q 206 661 135 614 q 367 708 278 708 q 515 659 464 708 q 584 528 565 610 q 603 346 603 446 q 592 231 603 293 q 553 113 581 169 q 478 22 526 57 q 353 -14 429 -14 m 381 92 q 498 126 451 92 q 567 219 544 161 q 589 346 589 276 q 566 480 589 422 q 497 570 543 538 q 381 603 450 603 q 219 530 276 603 q 163 346 163 457 q 191 215 163 272 q 269 124 219 157 q 381 92 318 92 m 589 694 l 700 694 l 700 0 l 599 0 q 597 25 599 0 q 592 83 594 50 q 589 139 589 117 l 589 694 m 340 972 l 340 836 l 196 836 l 196 972 l 340 972 m 586 972 l 586 836 l 442 836 l 442 972 l 586 972 z "},"à":{"ha":790,"x_min":51,"x_max":700,"o":"m 353 -14 q 202 33 271 -14 q 92 160 133 79 q 51 346 51 242 q 93 532 51 450 q 206 661 135 614 q 367 708 278 708 q 515 659 464 708 q 584 528 565 610 q 603 346 603 446 q 592 231 603 293 q 553 113 581 169 q 478 22 526 57 q 353 -14 429 -14 m 381 92 q 498 126 451 92 q 567 219 544 161 q 589 346 589 276 q 566 480 589 422 q 497 570 543 538 q 381 603 450 603 q 219 530 276 603 q 163 346 163 457 q 191 215 163 272 q 269 124 219 157 q 381 92 318 92 m 589 694 l 700 694 l 700 0 l 599 0 q 597 25 599 0 q 592 83 594 50 q 589 139 589 117 l 589 694 m 340 835 l 146 1058 l 292 1058 l 439 835 l 340 835 z "},"ā":{"ha":790,"x_min":51,"x_max":700,"o":"m 353 -14 q 202 33 271 -14 q 92 160 133 79 q 51 346 51 242 q 93 532 51 450 q 206 661 135 614 q 367 708 278 708 q 515 659 464 708 q 584 528 565 610 q 603 346 603 446 q 592 231 603 293 q 553 113 581 169 q 478 22 526 57 q 353 -14 429 -14 m 381 92 q 498 126 451 92 q 567 219 544 161 q 589 346 589 276 q 566 480 589 422 q 497 570 543 538 q 381 603 450 603 q 219 530 276 603 q 163 346 163 457 q 191 215 163 272 q 269 124 219 157 q 381 92 318 92 m 589 694 l 700 694 l 700 0 l 599 0 q 597 25 599 0 q 592 83 594 50 q 589 139 589 117 l 589 694 m 224 851 l 224 949 l 557 949 l 557 851 l 224 851 z "},"ą":{"ha":790,"x_min":51,"x_max":700,"o":"m 686 -299 q 520 -253 583 -299 q 457 -132 457 -208 q 484 -47 457 -81 q 557 5 511 -14 q 657 31 603 24 l 657 0 q 581 -40 614 -10 q 547 -118 547 -71 q 563 -172 547 -149 q 610 -209 579 -196 q 686 -222 642 -222 l 686 -299 m 353 -14 q 202 33 271 -14 q 92 160 133 79 q 51 346 51 242 q 93 532 51 450 q 206 661 135 614 q 367 708 278 708 q 515 659 464 708 q 584 528 565 610 q 603 346 603 446 q 592 231 603 293 q 553 113 581 169 q 478 22 526 57 q 353 -14 429 -14 m 381 92 q 498 126 451 92 q 567 219 544 161 q 589 346 589 276 q 566 480 589 422 q 497 570 543 538 q 381 603 450 603 q 219 530 276 603 q 163 346 163 457 q 191 215 163 272 q 269 124 219 157 q 381 92 318 92 m 589 694 l 700 694 l 700 0 l 599 0 q 597 25 599 0 q 592 83 594 50 q 589 139 589 117 l 589 694 z "},"å":{"ha":790,"x_min":51,"x_max":700,"o":"m 353 -14 q 202 33 271 -14 q 92 160 133 79 q 51 346 51 242 q 93 532 51 450 q 206 661 135 614 q 367 708 278 708 q 515 659 464 708 q 584 528 565 610 q 603 346 603 446 q 592 231 603 293 q 553 113 581 169 q 478 22 526 57 q 353 -14 429 -14 m 381 92 q 498 126 451 92 q 567 219 544 161 q 589 346 589 276 q 566 480 589 422 q 497 570 543 538 q 381 603 450 603 q 219 530 276 603 q 163 346 163 457 q 191 215 163 272 q 269 124 219 157 q 381 92 318 92 m 589 694 l 700 694 l 700 0 l 599 0 q 597 25 599 0 q 592 83 594 50 q 589 139 589 117 l 589 694 m 390 801 q 263 844 314 801 q 211 957 211 886 q 263 1069 211 1026 q 390 1111 314 1111 q 519 1069 468 1111 q 569 957 569 1026 q 519 844 569 886 q 390 801 468 801 m 390 878 q 457 899 436 878 q 478 957 478 919 q 457 1014 478 993 q 390 1035 436 1035 q 322 1014 343 1035 q 301 957 301 993 q 322 899 301 919 q 390 878 343 878 z "},"ã":{"ha":790,"x_min":51,"x_max":700,"o":"m 353 -14 q 202 33 271 -14 q 92 160 133 79 q 51 346 51 242 q 93 532 51 450 q 206 661 135 614 q 367 708 278 708 q 515 659 464 708 q 584 528 565 610 q 603 346 603 446 q 592 231 603 293 q 553 113 581 169 q 478 22 526 57 q 353 -14 429 -14 m 381 92 q 498 126 451 92 q 567 219 544 161 q 589 346 589 276 q 566 480 589 422 q 497 570 543 538 q 381 603 450 603 q 219 530 276 603 q 163 346 163 457 q 191 215 163 272 q 269 124 219 157 q 381 92 318 92 m 589 694 l 700 694 l 700 0 l 599 0 q 597 25 599 0 q 592 83 594 50 q 589 139 589 117 l 589 694 m 482 836 q 419 849 446 836 q 372 881 393 863 q 328 912 350 899 q 276 925 306 925 q 235 910 249 925 q 215 875 221 896 q 207 835 210 854 l 115 835 q 136 928 118 886 q 185 997 154 971 q 263 1022 217 1022 q 327 1009 299 1022 q 378 978 356 996 q 423 947 401 960 q 468 933 444 933 q 509 948 494 933 q 529 984 524 963 q 538 1024 535 1006 l 629 1024 q 608 930 625 972 q 558 862 590 888 q 482 836 526 836 z "},"æ":{"ha":1350,"x_min":51,"x_max":1304,"o":"m 353 -14 q 202 33 271 -14 q 92 160 133 79 q 51 346 51 242 q 93 532 51 450 q 206 661 135 614 q 367 708 278 708 q 515 659 464 708 q 584 528 565 610 q 603 346 603 446 q 592 231 603 293 q 553 113 581 169 q 478 22 526 57 q 353 -14 429 -14 m 381 92 q 498 126 451 92 q 567 219 544 161 q 589 346 589 276 q 566 480 589 422 q 497 570 543 538 q 381 603 450 603 q 219 530 276 603 q 163 346 163 457 q 191 215 163 272 q 269 124 219 157 q 381 92 318 92 m 589 694 l 700 694 l 700 0 l 599 0 q 592 72 596 31 q 589 139 589 114 l 589 694 m 1189 221 l 1293 221 q 1244 100 1282 154 q 1144 15 1206 46 q 1001 -17 1082 -17 q 826 30 904 -17 q 703 158 749 76 q 658 343 658 239 q 702 529 658 447 q 822 658 746 611 q 994 706 899 706 q 1166 660 1096 706 q 1270 528 1236 615 q 1297 315 1304 442 l 769 315 q 806 196 776 247 q 887 116 836 144 q 1001 88 938 88 q 1122 124 1072 88 q 1189 221 1171 161 m 999 601 q 854 551 913 601 q 776 415 796 501 l 1183 415 q 1124 554 1178 507 q 999 601 1071 601 z "},"b":{"ha":811,"x_min":111,"x_max":760,"o":"m 458 -14 q 333 22 382 -14 q 258 113 285 57 q 219 231 231 169 q 208 346 208 293 q 219 486 208 421 q 256 601 229 551 q 331 680 282 651 q 458 708 381 708 q 614 661 546 708 q 721 532 682 614 q 760 346 760 450 q 719 160 760 242 q 611 33 679 79 q 458 -14 543 -14 m 431 92 q 543 124 494 92 q 620 215 592 157 q 649 346 649 272 q 592 530 649 457 q 431 603 535 603 q 315 570 361 603 q 245 480 268 538 q 222 346 222 422 q 245 219 222 276 q 314 126 268 161 q 431 92 360 92 m 222 972 l 222 139 q 219 72 222 114 q 213 0 215 31 l 111 0 l 111 972 l 222 972 z "},"c":{"ha":758,"x_min":51,"x_max":707,"o":"m 707 261 q 652 113 697 175 q 539 19 607 51 q 392 -14 471 -14 q 225 29 303 -14 q 99 153 147 72 q 51 346 51 235 q 99 538 51 457 q 225 664 147 619 q 392 708 303 708 q 538 675 471 708 q 651 581 606 642 q 707 435 696 519 l 606 435 q 524 559 582 514 q 392 604 465 604 q 279 574 332 604 q 194 485 226 543 q 163 346 163 428 q 194 208 163 265 q 278 120 226 150 q 392 90 331 90 q 530 135 476 90 q 607 261 583 181 l 707 261 z "},"ć":{"ha":758,"x_min":51,"x_max":707,"o":"m 707 261 q 652 113 697 175 q 539 19 607 51 q 392 -14 471 -14 q 225 29 303 -14 q 99 153 147 72 q 51 346 51 235 q 99 538 51 457 q 225 664 147 619 q 392 708 303 708 q 538 675 471 708 q 651 581 606 642 q 707 435 696 519 l 606 435 q 524 559 582 514 q 392 604 465 604 q 279 574 332 604 q 194 485 226 543 q 163 346 163 428 q 194 208 163 265 q 278 120 226 150 q 392 90 331 90 q 530 135 476 90 q 607 261 583 181 l 707 261 m 328 835 l 475 1058 l 621 1058 l 426 835 l 328 835 z "},"č":{"ha":758,"x_min":51,"x_max":707,"o":"m 707 261 q 652 113 697 175 q 539 19 607 51 q 392 -14 471 -14 q 225 29 303 -14 q 99 153 147 72 q 51 346 51 235 q 99 538 51 457 q 225 664 147 619 q 392 708 303 708 q 538 675 471 708 q 651 581 606 642 q 707 435 696 519 l 606 435 q 524 559 582 514 q 392 604 465 604 q 279 574 332 604 q 194 485 226 543 q 163 346 163 428 q 194 208 163 265 q 278 120 226 150 q 392 90 331 90 q 530 135 476 90 q 607 261 583 181 l 707 261 m 418 868 l 363 868 l 488 1058 l 619 1058 l 439 835 l 340 835 l 160 1058 l 292 1058 l 418 868 z "},"ç":{"ha":758,"x_min":51,"x_max":707,"o":"m 283 -179 q 290 -205 285 -189 q 312 -234 296 -221 q 358 -247 328 -247 q 405 -227 393 -247 q 417 -189 417 -207 q 410 -156 417 -174 q 387 -121 404 -139 q 335 -89 369 -103 l 393 -58 q 450 -84 425 -67 q 490 -129 475 -101 q 506 -199 506 -157 q 468 -291 506 -249 q 351 -333 431 -333 q 265 -311 301 -333 q 213 -253 229 -289 q 203 -179 196 -218 l 283 -179 m 335 8 l 447 8 l 447 -103 l 335 -89 l 335 8 m 707 261 q 652 113 697 175 q 539 19 607 51 q 392 -14 471 -14 q 225 29 303 -14 q 99 153 147 72 q 51 346 51 235 q 99 538 51 457 q 225 664 147 619 q 392 708 303 708 q 538 675 471 708 q 651 581 606 642 q 707 435 696 519 l 606 435 q 524 559 582 514 q 392 604 465 604 q 279 574 332 604 q 194 485 226 543 q 163 346 163 428 q 194 208 163 265 q 278 120 226 150 q 392 90 331 90 q 530 135 476 90 q 607 261 583 181 l 707 261 z "},"ċ":{"ha":758,"x_min":51,"x_max":707,"o":"m 707 261 q 652 113 697 175 q 539 19 607 51 q 392 -14 471 -14 q 225 29 303 -14 q 99 153 147 72 q 51 346 51 235 q 99 538 51 457 q 225 664 147 619 q 392 708 303 708 q 538 675 471 708 q 651 581 606 642 q 707 435 696 519 l 606 435 q 524 559 582 514 q 392 604 465 604 q 279 574 332 604 q 194 485 226 543 q 163 346 163 428 q 194 208 163 265 q 278 120 226 150 q 392 90 331 90 q 530 135 476 90 q 607 261 583 181 l 707 261 m 456 974 l 456 838 l 311 838 l 311 974 l 456 974 z "},"d":{"ha":811,"x_min":51,"x_max":700,"o":"m 353 -14 q 201 33 269 -14 q 92 160 132 79 q 51 346 51 242 q 90 532 51 450 q 197 661 129 614 q 353 708 265 708 q 480 680 431 708 q 556 601 529 651 q 592 486 582 551 q 603 346 603 421 q 592 231 603 293 q 553 113 581 169 q 478 22 526 57 q 353 -14 429 -14 m 381 92 q 498 126 451 92 q 567 219 544 161 q 589 346 589 276 q 566 480 589 422 q 497 570 543 538 q 381 603 450 603 q 219 530 276 603 q 163 346 163 457 q 191 215 163 272 q 269 124 219 157 q 381 92 318 92 m 589 972 l 700 972 l 700 0 l 599 0 q 592 72 596 31 q 589 139 589 114 l 589 972 z "},"ð":{"ha":763,"x_min":51,"x_max":700,"o":"m 381 93 q 473 113 433 93 q 538 167 513 132 q 576 249 564 203 q 589 346 589 294 q 576 450 589 403 q 537 531 563 497 q 472 583 511 565 q 381 601 433 601 q 219 529 276 601 q 163 346 163 457 q 223 164 163 235 q 381 93 283 93 m 490 986 l 551 919 l 411 789 l 356 858 l 490 986 m 164 892 l 204 986 q 382 902 306 949 q 513 803 458 856 q 604 694 568 750 q 662 580 640 638 q 692 465 683 522 q 700 351 700 407 q 688 248 700 300 q 650 149 675 196 q 587 65 625 101 q 497 7 549 28 q 381 -14 446 -14 q 207 33 281 -14 q 92 160 133 79 q 51 346 51 242 q 74 490 51 424 q 136 606 96 557 q 231 681 176 654 q 353 708 286 708 q 441 694 403 708 q 507 656 479 681 q 553 597 535 632 l 549 601 q 494 685 528 644 q 415 761 461 725 q 306 830 368 797 q 164 892 243 863 z "},"ď":{"ha":811,"x_min":51,"x_max":896,"o":"m 353 -14 q 201 33 269 -14 q 92 160 132 79 q 51 346 51 242 q 90 532 51 450 q 197 661 129 614 q 353 708 265 708 q 480 680 431 708 q 556 601 529 651 q 592 486 582 551 q 603 346 603 421 q 592 231 603 293 q 553 113 581 169 q 478 22 526 57 q 353 -14 429 -14 m 381 92 q 498 126 451 92 q 567 219 544 161 q 589 346 589 276 q 566 480 589 422 q 497 570 543 538 q 381 603 450 603 q 219 530 276 603 q 163 346 163 457 q 191 215 163 272 q 269 124 219 157 q 381 92 318 92 m 589 972 l 700 972 l 700 0 l 599 0 q 592 72 596 31 q 589 139 589 114 l 589 972 m 865 689 l 803 689 l 774 865 l 774 972 l 896 972 l 896 865 l 865 689 z "},"đ":{"ha":811,"x_min":51,"x_max":789,"o":"m 353 -14 q 201 33 269 -14 q 92 160 132 79 q 51 346 51 242 q 90 532 51 450 q 197 661 129 614 q 353 708 265 708 q 480 680 431 708 q 556 601 529 651 q 592 486 582 551 q 603 346 603 421 q 592 231 603 293 q 553 113 581 169 q 478 22 526 57 q 353 -14 429 -14 m 381 92 q 498 126 451 92 q 567 219 544 161 q 589 346 589 276 q 566 480 589 422 q 497 570 543 538 q 381 603 450 603 q 219 530 276 603 q 163 346 163 457 q 191 215 163 272 q 269 124 219 157 q 381 92 318 92 m 589 972 l 700 972 l 700 0 l 599 0 q 592 72 596 31 q 589 139 589 114 l 589 972 m 372 910 l 789 910 l 789 813 l 372 813 l 372 910 z "},"e":{"ha":743,"x_min":51,"x_max":697,"o":"m 582 224 l 686 224 q 637 102 675 156 q 537 17 599 49 q 394 -14 475 -14 q 219 33 297 -14 q 97 160 142 79 q 51 346 51 242 q 95 532 51 450 q 215 661 139 614 q 388 708 292 708 q 559 663 489 708 q 663 531 629 618 q 690 318 697 444 l 163 318 q 200 199 169 250 q 281 119 231 147 q 394 90 331 90 q 515 127 465 90 q 582 224 564 164 m 392 604 q 247 554 306 604 q 169 418 189 504 l 576 418 q 517 557 571 510 q 392 604 464 604 z "},"é":{"ha":743,"x_min":51,"x_max":697,"o":"m 582 224 l 686 224 q 637 102 675 156 q 537 17 599 49 q 394 -14 475 -14 q 219 33 297 -14 q 97 160 142 79 q 51 346 51 242 q 95 532 51 450 q 215 661 139 614 q 388 708 292 708 q 559 663 489 708 q 663 531 629 618 q 690 318 697 444 l 163 318 q 200 199 169 250 q 281 119 231 147 q 394 90 331 90 q 515 127 465 90 q 582 224 564 164 m 392 604 q 247 554 306 604 q 169 418 189 504 l 576 418 q 517 557 571 510 q 392 604 464 604 m 332 835 l 479 1058 l 625 1058 l 431 835 l 332 835 z "},"ě":{"ha":743,"x_min":51,"x_max":697,"o":"m 582 224 l 686 224 q 637 102 675 156 q 537 17 599 49 q 394 -14 475 -14 q 219 33 297 -14 q 97 160 142 79 q 51 346 51 242 q 95 532 51 450 q 215 661 139 614 q 388 708 292 708 q 559 663 489 708 q 663 531 629 618 q 690 318 697 444 l 163 318 q 200 199 169 250 q 281 119 231 147 q 394 90 331 90 q 515 127 465 90 q 582 224 564 164 m 392 604 q 247 554 306 604 q 169 418 189 504 l 576 418 q 517 557 571 510 q 392 604 464 604 m 422 868 l 367 868 l 492 1058 l 624 1058 l 443 835 l 344 835 l 164 1058 l 296 1058 l 422 868 z "},"ê":{"ha":743,"x_min":51,"x_max":697,"o":"m 582 224 l 686 224 q 637 102 675 156 q 537 17 599 49 q 394 -14 475 -14 q 219 33 297 -14 q 97 160 142 79 q 51 346 51 242 q 95 532 51 450 q 215 661 139 614 q 388 708 292 708 q 559 663 489 708 q 663 531 629 618 q 690 318 697 444 l 163 318 q 200 199 169 250 q 281 119 231 147 q 394 90 331 90 q 515 127 465 90 q 582 224 564 164 m 392 604 q 247 554 306 604 q 169 418 189 504 l 576 418 q 517 557 571 510 q 392 604 464 604 m 436 1058 l 624 835 l 492 835 l 360 1029 l 415 1029 l 282 835 l 149 835 l 338 1058 l 436 1058 z "},"ë":{"ha":743,"x_min":51,"x_max":697,"o":"m 582 224 l 686 224 q 637 102 675 156 q 537 17 599 49 q 394 -14 475 -14 q 219 33 297 -14 q 97 160 142 79 q 51 346 51 242 q 95 532 51 450 q 215 661 139 614 q 388 708 292 708 q 559 663 489 708 q 663 531 629 618 q 690 318 697 444 l 163 318 q 200 199 169 250 q 281 119 231 147 q 394 90 331 90 q 515 127 465 90 q 582 224 564 164 m 392 604 q 247 554 306 604 q 169 418 189 504 l 576 418 q 517 557 571 510 q 392 604 464 604 m 338 972 l 338 836 l 193 836 l 193 972 l 338 972 m 583 972 l 583 836 l 439 836 l 439 972 l 583 972 z "},"ė":{"ha":743,"x_min":51,"x_max":697,"o":"m 582 224 l 686 224 q 637 102 675 156 q 537 17 599 49 q 394 -14 475 -14 q 219 33 297 -14 q 97 160 142 79 q 51 346 51 242 q 95 532 51 450 q 215 661 139 614 q 388 708 292 708 q 559 663 489 708 q 663 531 629 618 q 690 318 697 444 l 163 318 q 200 199 169 250 q 281 119 231 147 q 394 90 331 90 q 515 127 465 90 q 582 224 564 164 m 392 604 q 247 554 306 604 q 169 418 189 504 l 576 418 q 517 557 571 510 q 392 604 464 604 m 460 974 l 460 838 l 315 838 l 315 974 l 460 974 z "},"è":{"ha":743,"x_min":51,"x_max":697,"o":"m 582 224 l 686 224 q 637 102 675 156 q 537 17 599 49 q 394 -14 475 -14 q 219 33 297 -14 q 97 160 142 79 q 51 346 51 242 q 95 532 51 450 q 215 661 139 614 q 388 708 292 708 q 559 663 489 708 q 663 531 629 618 q 690 318 697 444 l 163 318 q 200 199 169 250 q 281 119 231 147 q 394 90 331 90 q 515 127 465 90 q 582 224 564 164 m 392 604 q 247 554 306 604 q 169 418 189 504 l 576 418 q 517 557 571 510 q 392 604 464 604 m 338 835 l 143 1058 l 289 1058 l 436 835 l 338 835 z "},"ē":{"ha":743,"x_min":51,"x_max":697,"o":"m 582 224 l 686 224 q 637 102 675 156 q 537 17 599 49 q 394 -14 475 -14 q 219 33 297 -14 q 97 160 142 79 q 51 346 51 242 q 95 532 51 450 q 215 661 139 614 q 388 708 292 708 q 559 663 489 708 q 663 531 629 618 q 690 318 697 444 l 163 318 q 200 199 169 250 q 281 119 231 147 q 394 90 331 90 q 515 127 465 90 q 582 224 564 164 m 392 604 q 247 554 306 604 q 169 418 189 504 l 576 418 q 517 557 571 510 q 392 604 464 604 m 221 851 l 221 949 l 554 949 l 554 851 l 221 851 z "},"ę":{"ha":743,"x_min":51,"x_max":697,"o":"m 575 -299 q 409 -253 472 -299 q 346 -132 346 -208 q 373 -46 346 -81 q 446 13 400 -11 q 546 54 492 36 l 546 24 q 469 -37 503 -4 q 436 -118 436 -71 q 452 -172 436 -149 q 499 -209 468 -196 q 575 -222 531 -222 l 575 -299 m 582 224 l 686 224 q 637 102 675 156 q 537 17 599 49 q 394 -14 475 -14 q 219 33 297 -14 q 97 160 142 79 q 51 346 51 242 q 95 532 51 450 q 215 661 139 614 q 388 708 292 708 q 559 663 489 708 q 663 531 629 618 q 690 318 697 444 l 163 318 q 200 199 169 250 q 281 119 231 147 q 394 90 331 90 q 515 127 465 90 q 582 224 564 164 m 392 604 q 247 554 306 604 q 169 418 189 504 l 576 418 q 517 557 571 510 q 392 604 464 604 z "},"f":{"ha":482,"x_min":42,"x_max":465,"o":"m 42 694 l 450 694 l 450 590 l 42 590 l 42 694 m 401 972 l 465 972 l 465 861 l 401 861 q 338 851 367 863 q 293 813 310 840 q 276 736 276 786 l 276 0 l 165 0 l 165 736 q 195 872 165 819 q 278 948 225 924 q 401 972 332 972 z "},"g":{"ha":747,"x_min":51,"x_max":707,"o":"m 339 110 q 199 145 265 110 q 92 247 133 181 q 51 407 51 314 q 92 567 51 500 q 197 672 132 635 q 339 708 263 708 q 384 705 363 708 q 425 694 406 701 l 707 694 l 707 575 q 588 597 647 575 q 488 643 529 619 l 482 649 q 562 586 531 622 q 609 505 593 550 q 625 407 625 460 q 585 247 625 314 q 481 145 546 181 q 339 110 415 110 m 543 -278 l 543 -247 q 505 -140 543 -174 q 390 -107 467 -107 l 251 -107 q 172 -99 206 -107 q 115 -76 138 -92 q 82 -39 93 -61 q 71 11 71 -17 q 103 91 71 64 q 182 125 135 118 q 272 125 229 132 l 339 110 q 223 94 264 106 q 182 47 182 83 q 198 13 182 26 q 246 0 214 0 l 390 0 q 522 -20 463 0 q 618 -88 582 -40 q 654 -219 654 -136 l 654 -278 l 543 -278 m 339 214 q 424 236 385 214 q 489 301 464 258 q 514 407 514 344 q 490 513 514 469 q 425 580 465 557 q 339 603 385 603 q 253 580 293 603 q 188 514 213 557 q 163 407 163 471 q 188 301 163 344 q 253 236 213 258 q 339 214 293 214 z "},"ğ":{"ha":747,"x_min":51,"x_max":707,"o":"m 339 110 q 199 145 265 110 q 92 247 133 181 q 51 407 51 314 q 92 567 51 500 q 197 672 132 635 q 339 708 263 708 q 384 705 363 708 q 425 694 406 701 l 707 694 l 707 575 q 588 597 647 575 q 488 643 529 619 l 482 649 q 562 586 531 622 q 609 505 593 550 q 625 407 625 460 q 585 247 625 314 q 481 145 546 181 q 339 110 415 110 m 543 -278 l 543 -247 q 505 -140 543 -174 q 390 -107 467 -107 l 251 -107 q 172 -99 206 -107 q 115 -76 138 -92 q 82 -39 93 -61 q 71 11 71 -17 q 103 91 71 64 q 182 125 135 118 q 272 125 229 132 l 339 110 q 223 94 264 106 q 182 47 182 83 q 198 13 182 26 q 246 0 214 0 l 390 0 q 522 -20 463 0 q 618 -88 582 -40 q 654 -219 654 -136 l 654 -278 l 543 -278 m 339 214 q 424 236 385 214 q 489 301 464 258 q 514 407 514 344 q 490 513 514 469 q 425 580 465 557 q 339 603 385 603 q 253 580 293 603 q 188 514 213 557 q 163 407 163 471 q 188 301 163 344 q 253 236 213 258 q 339 214 293 214 m 526 1014 q 506 903 526 951 q 444 828 486 856 q 339 800 403 800 q 233 828 275 800 q 172 903 192 856 q 151 1014 151 951 l 249 1014 q 272 925 249 953 q 339 897 294 897 q 406 925 383 897 q 429 1014 429 953 l 526 1014 z "},"ģ":{"ha":747,"x_min":51,"x_max":707,"o":"m 339 110 q 199 145 265 110 q 92 247 133 181 q 51 407 51 314 q 92 567 51 500 q 197 672 132 635 q 339 708 263 708 q 384 705 363 708 q 425 694 406 701 l 707 694 l 707 575 q 588 597 647 575 q 488 643 529 619 l 482 649 q 562 586 531 622 q 609 505 593 550 q 625 407 625 460 q 585 247 625 314 q 481 145 546 181 q 339 110 415 110 m 543 -278 l 543 -247 q 505 -140 543 -174 q 390 -107 467 -107 l 251 -107 q 172 -99 206 -107 q 115 -76 138 -92 q 82 -39 93 -61 q 71 11 71 -17 q 103 91 71 64 q 182 125 135 118 q 272 125 229 132 l 339 110 q 223 94 264 106 q 182 47 182 83 q 198 13 182 26 q 246 0 214 0 l 390 0 q 522 -20 463 0 q 618 -88 582 -40 q 654 -219 654 -136 l 654 -278 l 543 -278 m 339 214 q 424 236 385 214 q 489 301 464 258 q 514 407 514 344 q 490 513 514 469 q 425 580 465 557 q 339 603 385 603 q 253 580 293 603 q 188 514 213 557 q 163 407 163 471 q 188 301 163 344 q 253 236 213 258 q 339 214 293 214 m 388 1047 l 403 1018 q 366 975 385 1001 q 346 928 347 949 l 414 913 l 414 800 l 264 800 l 264 857 q 298 981 264 932 q 388 1047 332 1029 z "},"ġ":{"ha":747,"x_min":51,"x_max":707,"o":"m 339 110 q 199 145 265 110 q 92 247 133 181 q 51 407 51 314 q 92 567 51 500 q 197 672 132 635 q 339 708 263 708 q 384 705 363 708 q 425 694 406 701 l 707 694 l 707 575 q 588 597 647 575 q 488 643 529 619 l 482 649 q 562 586 531 622 q 609 505 593 550 q 625 407 625 460 q 585 247 625 314 q 481 145 546 181 q 339 110 415 110 m 543 -278 l 543 -247 q 505 -140 543 -174 q 390 -107 467 -107 l 251 -107 q 172 -99 206 -107 q 115 -76 138 -92 q 82 -39 93 -61 q 71 11 71 -17 q 103 91 71 64 q 182 125 135 118 q 272 125 229 132 l 339 110 q 223 94 264 106 q 182 47 182 83 q 198 13 182 26 q 246 0 214 0 l 390 0 q 522 -20 463 0 q 618 -88 582 -40 q 654 -219 654 -136 l 654 -278 l 543 -278 m 339 214 q 424 236 385 214 q 489 301 464 258 q 514 407 514 344 q 490 513 514 469 q 425 580 465 557 q 339 603 385 603 q 253 580 293 603 q 188 514 213 557 q 163 407 163 471 q 188 301 163 344 q 253 236 213 258 q 339 214 293 214 m 411 974 l 411 838 l 267 838 l 267 974 l 411 974 z "},"h":{"ha":786,"x_min":107,"x_max":696,"o":"m 585 0 l 585 436 q 568 526 585 490 q 518 579 551 561 q 435 597 485 597 q 329 568 378 597 q 249 488 281 539 q 211 371 218 438 l 210 451 q 238 557 217 510 q 292 638 260 604 q 367 690 325 672 q 457 708 410 708 q 557 692 513 708 q 632 643 601 675 q 679 566 663 611 q 696 464 696 521 l 696 0 l 585 0 m 107 0 l 107 972 l 218 972 l 218 0 l 107 0 z "},"ħ":{"ha":786,"x_min":0,"x_max":696,"o":"m 585 0 l 585 436 q 568 526 585 490 q 518 579 551 561 q 435 597 485 597 q 329 568 378 597 q 249 488 281 539 q 211 371 218 438 l 210 451 q 238 557 217 510 q 292 638 260 604 q 367 690 325 672 q 457 708 410 708 q 557 692 513 708 q 632 643 601 675 q 679 566 663 611 q 696 464 696 521 l 696 0 l 585 0 m 107 0 l 107 972 l 218 972 l 218 0 l 107 0 m 0 910 l 417 910 l 417 813 l 0 813 l 0 910 z "},"i":{"ha":311,"x_min":83,"x_max":228,"o":"m 228 972 l 228 838 l 83 838 l 83 972 l 228 972 m 100 694 l 211 694 l 211 0 l 100 0 l 100 694 z "},"ı":{"ha":278,"x_min":83,"x_max":194,"o":"m 83 694 l 194 694 l 194 0 l 83 0 l 83 694 z "},"í":{"ha":278,"x_min":83,"x_max":376,"o":"m 83 694 l 194 694 l 194 0 l 83 0 l 83 694 m 83 835 l 231 1058 l 376 1058 l 182 835 l 83 835 z "},"î":{"ha":278,"x_min":-100,"x_max":375,"o":"m 83 694 l 194 694 l 194 0 l 83 0 l 83 694 m 188 1058 l 375 835 l 243 835 l 111 1029 l 167 1029 l 33 835 l -100 835 l 89 1058 l 188 1058 z "},"ï":{"ha":278,"x_min":-25,"x_max":304,"o":"m 83 694 l 194 694 l 194 0 l 83 0 l 83 694 m 119 972 l 119 836 l -25 836 l -25 972 l 119 972 m 304 972 l 304 836 l 160 836 l 160 972 l 304 972 z "},"ì":{"ha":278,"x_min":-106,"x_max":194,"o":"m 83 694 l 194 694 l 194 0 l 83 0 l 83 694 m 89 835 l -106 1058 l 40 1058 l 188 835 l 89 835 z "},"ĳ":{"ha":622,"x_min":83,"x_max":539,"o":"m 228 972 l 228 838 l 83 838 l 83 972 l 228 972 m 100 694 l 211 694 l 211 0 l 100 0 l 100 694 m 413 694 l 524 694 l 524 -278 l 413 -278 l 413 694 m 539 972 l 539 838 l 394 838 l 394 972 l 539 972 z "},"ī":{"ha":278,"x_min":-28,"x_max":306,"o":"m 83 694 l 194 694 l 194 0 l 83 0 l 83 694 m -28 851 l -28 949 l 306 949 l 306 851 l -28 851 z "},"į":{"ha":311,"x_min":11,"x_max":240,"o":"m 240 -299 q 74 -253 138 -299 q 11 -132 11 -208 q 38 -47 11 -81 q 111 5 65 -14 q 211 31 157 24 l 211 0 q 135 -40 168 -10 q 101 -118 101 -71 q 117 -172 101 -149 q 165 -209 133 -196 q 240 -222 196 -222 l 240 -299 m 228 972 l 228 838 l 83 838 l 83 972 l 228 972 m 100 694 l 211 694 l 211 0 l 100 0 l 100 694 z "},"j":{"ha":311,"x_min":83,"x_max":228,"o":"m 101 694 l 213 694 l 213 -278 l 101 -278 l 101 694 m 228 972 l 228 838 l 83 838 l 83 972 l 228 972 z "},"k":{"ha":719,"x_min":107,"x_max":706,"o":"m 107 972 l 218 972 l 218 0 l 107 0 l 107 972 m 682 694 l 335 351 l 338 424 l 706 0 l 564 0 l 221 388 l 524 694 l 682 694 z "},"ķ":{"ha":719,"x_min":107,"x_max":706,"o":"m 107 972 l 218 972 l 218 0 l 107 0 l 107 972 m 682 694 l 335 351 l 338 424 l 706 0 l 564 0 l 221 388 l 524 694 l 682 694 m 322 -339 l 307 -310 q 347 -263 331 -287 q 364 -219 363 -239 l 296 -204 l 296 -92 l 443 -92 l 443 -149 q 411 -271 443 -222 q 322 -339 379 -319 l 322 -339 z "},"l":{"ha":319,"x_min":104,"x_max":215,"o":"m 104 972 l 215 972 l 215 0 l 104 0 l 104 972 z "},"ĺ":{"ha":319,"x_min":104,"x_max":401,"o":"m 104 972 l 215 972 l 215 0 l 104 0 l 104 972 m 108 1099 l 256 1322 l 401 1322 l 207 1099 l 108 1099 z "},"ľ":{"ha":464,"x_min":104,"x_max":406,"o":"m 104 972 l 215 972 l 215 0 l 104 0 l 104 972 m 375 689 l 313 689 l 283 865 l 283 972 l 406 972 l 406 865 l 375 689 z "},"ļ":{"ha":319,"x_min":83,"x_max":231,"o":"m 104 972 l 215 972 l 215 0 l 104 0 l 104 972 m 110 -339 l 94 -310 q 134 -263 118 -287 q 151 -219 150 -239 l 83 -204 l 83 -92 l 231 -92 l 231 -149 q 199 -271 231 -222 q 110 -339 167 -319 l 110 -339 z "},"ŀ":{"ha":506,"x_min":104,"x_max":401,"o":"m 104 972 l 215 972 l 215 0 l 104 0 l 104 972 m 401 556 l 401 419 l 257 419 l 257 556 l 401 556 z "},"ł":{"ha":347,"x_min":-21,"x_max":368,"o":"m 317 639 l 368 565 l 28 333 l -21 407 l 317 639 m 118 972 l 229 972 l 229 0 l 118 0 l 118 972 z "},"m":{"ha":1236,"x_min":90,"x_max":1146,"o":"m 90 694 l 201 694 l 201 0 l 90 0 l 90 694 m 440 708 q 540 692 496 708 q 615 643 585 675 q 663 566 646 611 q 679 464 679 521 l 679 0 l 568 0 l 568 436 q 531 557 568 517 q 418 597 493 597 q 313 568 361 597 q 233 488 264 539 q 194 371 201 438 l 193 451 q 222 557 200 510 q 276 638 243 604 q 351 690 308 672 q 440 708 393 708 m 907 708 q 1007 692 963 708 q 1082 643 1051 675 q 1129 566 1113 611 q 1146 464 1146 521 l 1146 0 l 1035 0 l 1035 436 q 997 557 1035 517 q 885 597 960 597 q 779 568 828 597 q 699 488 731 539 q 661 371 668 438 l 660 451 q 688 557 667 510 q 742 638 710 604 q 817 690 775 672 q 907 708 860 708 z "},"n":{"ha":769,"x_min":90,"x_max":679,"o":"m 90 694 l 201 694 l 201 0 l 90 0 l 90 694 m 440 708 q 540 692 496 708 q 615 643 585 675 q 663 566 646 611 q 679 464 679 521 l 679 0 l 568 0 l 568 436 q 531 557 568 517 q 418 597 493 597 q 313 568 361 597 q 233 488 264 539 q 194 371 201 438 l 193 451 q 222 557 200 510 q 276 638 243 604 q 351 690 308 672 q 440 708 393 708 z "},"ń":{"ha":769,"x_min":90,"x_max":679,"o":"m 90 694 l 201 694 l 201 0 l 90 0 l 90 694 m 440 708 q 540 692 496 708 q 615 643 585 675 q 663 566 646 611 q 679 464 679 521 l 679 0 l 568 0 l 568 436 q 531 557 568 517 q 418 597 493 597 q 313 568 361 597 q 233 488 264 539 q 194 371 201 438 l 193 451 q 222 557 200 510 q 276 638 243 604 q 351 690 308 672 q 440 708 393 708 m 364 835 l 511 1058 l 657 1058 l 463 835 l 364 835 z "},"ň":{"ha":769,"x_min":90,"x_max":679,"o":"m 90 694 l 201 694 l 201 0 l 90 0 l 90 694 m 440 708 q 540 692 496 708 q 615 643 585 675 q 663 566 646 611 q 679 464 679 521 l 679 0 l 568 0 l 568 436 q 531 557 568 517 q 418 597 493 597 q 313 568 361 597 q 233 488 264 539 q 194 371 201 438 l 193 451 q 222 557 200 510 q 276 638 243 604 q 351 690 308 672 q 440 708 393 708 m 454 868 l 399 868 l 524 1058 l 656 1058 l 475 835 l 376 835 l 196 1058 l 328 1058 l 454 868 z "},"ņ":{"ha":769,"x_min":90,"x_max":679,"o":"m 90 694 l 201 694 l 201 0 l 90 0 l 90 694 m 440 708 q 540 692 496 708 q 615 643 585 675 q 663 566 646 611 q 679 464 679 521 l 679 0 l 568 0 l 568 436 q 531 557 568 517 q 418 597 493 597 q 313 568 361 597 q 233 488 264 539 q 194 371 201 438 l 193 451 q 222 557 200 510 q 276 638 243 604 q 351 690 308 672 q 440 708 393 708 m 333 -339 l 318 -310 q 358 -263 342 -287 q 375 -219 374 -239 l 307 -204 l 307 -92 l 454 -92 l 454 -149 q 422 -271 454 -222 q 333 -339 390 -319 l 333 -339 z "},"ñ":{"ha":769,"x_min":90,"x_max":679,"o":"m 90 694 l 201 694 l 201 0 l 90 0 l 90 694 m 440 708 q 540 692 496 708 q 615 643 585 675 q 663 566 646 611 q 679 464 679 521 l 679 0 l 568 0 l 568 436 q 531 557 568 517 q 418 597 493 597 q 313 568 361 597 q 233 488 264 539 q 194 371 201 438 l 193 451 q 222 557 200 510 q 276 638 243 604 q 351 690 308 672 q 440 708 393 708 m 511 836 q 449 849 475 836 q 401 881 422 863 q 357 912 379 899 q 306 925 335 925 q 264 910 278 925 q 244 875 250 896 q 236 835 239 854 l 144 835 q 165 928 147 886 q 215 997 183 971 q 292 1022 246 1022 q 356 1009 328 1022 q 408 978 385 996 q 452 947 431 960 q 497 933 474 933 q 538 948 524 933 q 558 984 553 963 q 567 1024 564 1006 l 658 1024 q 637 930 654 972 q 588 862 619 888 q 511 836 556 836 z "},"ŋ":{"ha":769,"x_min":90,"x_max":679,"o":"m 401 -292 l 401 -181 q 495 -161 458 -181 q 550 -101 532 -142 q 568 0 568 -61 l 568 436 q 531 557 568 517 q 418 597 493 597 q 313 568 361 597 q 233 488 264 539 q 194 371 201 438 l 193 451 q 222 557 200 510 q 276 638 243 604 q 351 690 308 672 q 440 708 393 708 q 540 692 496 708 q 615 643 585 675 q 663 566 646 611 q 679 464 679 521 l 679 -28 q 659 -135 679 -86 q 602 -219 639 -183 q 514 -273 565 -254 q 401 -292 463 -292 m 90 0 l 90 694 l 201 694 l 201 0 l 90 0 z "},"o":{"ha":781,"x_min":51,"x_max":729,"o":"m 392 -14 q 225 29 303 -14 q 99 153 147 72 q 51 346 51 235 q 99 538 51 457 q 225 664 147 619 q 392 708 303 708 q 558 664 481 708 q 682 538 635 619 q 729 346 729 457 q 682 153 729 235 q 558 29 635 72 q 392 -14 481 -14 m 392 90 q 501 119 450 90 q 585 206 553 149 q 618 346 618 264 q 585 485 618 428 q 501 574 553 543 q 392 604 450 604 q 281 574 333 604 q 196 487 229 544 q 163 346 163 429 q 195 206 163 264 q 281 119 228 149 q 392 90 333 90 z "},"ó":{"ha":781,"x_min":51,"x_max":729,"o":"m 392 -14 q 225 29 303 -14 q 99 153 147 72 q 51 346 51 235 q 99 538 51 457 q 225 664 147 619 q 392 708 303 708 q 558 664 481 708 q 682 538 635 619 q 729 346 729 457 q 682 153 729 235 q 558 29 635 72 q 392 -14 481 -14 m 392 90 q 501 119 450 90 q 585 206 553 149 q 618 346 618 264 q 585 485 618 428 q 501 574 553 543 q 392 604 450 604 q 281 574 333 604 q 196 487 229 544 q 163 346 163 429 q 195 206 163 264 q 281 119 228 149 q 392 90 333 90 m 336 835 l 483 1058 l 629 1058 l 435 835 l 336 835 z "},"ô":{"ha":781,"x_min":51,"x_max":729,"o":"m 392 -14 q 225 29 303 -14 q 99 153 147 72 q 51 346 51 235 q 99 538 51 457 q 225 664 147 619 q 392 708 303 708 q 558 664 481 708 q 682 538 635 619 q 729 346 729 457 q 682 153 729 235 q 558 29 635 72 q 392 -14 481 -14 m 392 90 q 501 119 450 90 q 585 206 553 149 q 618 346 618 264 q 585 485 618 428 q 501 574 553 543 q 392 604 450 604 q 281 574 333 604 q 196 487 229 544 q 163 346 163 429 q 195 206 163 264 q 281 119 228 149 q 392 90 333 90 m 440 1058 l 628 835 l 496 835 l 364 1029 l 419 1029 l 286 835 l 153 835 l 342 1058 l 440 1058 z "},"ö":{"ha":781,"x_min":51,"x_max":729,"o":"m 392 -14 q 225 29 303 -14 q 99 153 147 72 q 51 346 51 235 q 99 538 51 457 q 225 664 147 619 q 392 708 303 708 q 558 664 481 708 q 682 538 635 619 q 729 346 729 457 q 682 153 729 235 q 558 29 635 72 q 392 -14 481 -14 m 392 90 q 501 119 450 90 q 585 206 553 149 q 618 346 618 264 q 585 485 618 428 q 501 574 553 543 q 392 604 450 604 q 281 574 333 604 q 196 487 229 544 q 163 346 163 429 q 195 206 163 264 q 281 119 228 149 q 392 90 333 90 m 342 972 l 342 836 l 197 836 l 197 972 l 342 972 m 588 972 l 588 836 l 443 836 l 443 972 l 588 972 z "},"ò":{"ha":781,"x_min":51,"x_max":729,"o":"m 392 -14 q 225 29 303 -14 q 99 153 147 72 q 51 346 51 235 q 99 538 51 457 q 225 664 147 619 q 392 708 303 708 q 558 664 481 708 q 682 538 635 619 q 729 346 729 457 q 682 153 729 235 q 558 29 635 72 q 392 -14 481 -14 m 392 90 q 501 119 450 90 q 585 206 553 149 q 618 346 618 264 q 585 485 618 428 q 501 574 553 543 q 392 604 450 604 q 281 574 333 604 q 196 487 229 544 q 163 346 163 429 q 195 206 163 264 q 281 119 228 149 q 392 90 333 90 m 342 835 l 147 1058 l 293 1058 l 440 835 l 342 835 z "},"ő":{"ha":781,"x_min":51,"x_max":749,"o":"m 392 -14 q 225 29 303 -14 q 99 153 147 72 q 51 346 51 235 q 99 538 51 457 q 225 664 147 619 q 392 708 303 708 q 558 664 481 708 q 682 538 635 619 q 729 346 729 457 q 682 153 729 235 q 558 29 635 72 q 392 -14 481 -14 m 392 90 q 501 119 450 90 q 585 206 553 149 q 618 346 618 264 q 585 485 618 428 q 501 574 553 543 q 392 604 450 604 q 281 574 333 604 q 196 487 229 544 q 163 346 163 429 q 195 206 163 264 q 281 119 228 149 q 392 90 333 90 m 456 835 l 603 1058 l 749 1058 l 554 835 l 456 835 m 192 835 l 339 1058 l 485 1058 l 290 835 l 192 835 z "},"ō":{"ha":781,"x_min":51,"x_max":729,"o":"m 392 -14 q 225 29 303 -14 q 99 153 147 72 q 51 346 51 235 q 99 538 51 457 q 225 664 147 619 q 392 708 303 708 q 558 664 481 708 q 682 538 635 619 q 729 346 729 457 q 682 153 729 235 q 558 29 635 72 q 392 -14 481 -14 m 392 90 q 501 119 450 90 q 585 206 553 149 q 618 346 618 264 q 585 485 618 428 q 501 574 553 543 q 392 604 450 604 q 281 574 333 604 q 196 487 229 544 q 163 346 163 429 q 195 206 163 264 q 281 119 228 149 q 392 90 333 90 m 225 851 l 225 949 l 558 949 l 558 851 l 225 851 z "},"ø":{"ha":781,"x_min":51,"x_max":729,"o":"m 565 729 l 640 688 l 213 -35 l 140 10 l 565 729 m 392 -14 q 225 29 303 -14 q 99 153 147 72 q 51 346 51 235 q 99 538 51 457 q 225 664 147 619 q 392 708 303 708 q 558 664 481 708 q 682 538 635 619 q 729 346 729 457 q 682 153 729 235 q 558 29 635 72 q 392 -14 481 -14 m 392 90 q 501 119 450 90 q 585 206 553 149 q 618 346 618 264 q 585 485 618 428 q 501 574 553 543 q 392 604 450 604 q 281 574 333 604 q 196 487 229 544 q 163 346 163 429 q 195 206 163 264 q 281 119 228 149 q 392 90 333 90 z "},"õ":{"ha":781,"x_min":51,"x_max":729,"o":"m 392 -14 q 225 29 303 -14 q 99 153 147 72 q 51 346 51 235 q 99 538 51 457 q 225 664 147 619 q 392 708 303 708 q 558 664 481 708 q 682 538 635 619 q 729 346 729 457 q 682 153 729 235 q 558 29 635 72 q 392 -14 481 -14 m 392 90 q 501 119 450 90 q 585 206 553 149 q 618 346 618 264 q 585 485 618 428 q 501 574 553 543 q 392 604 450 604 q 281 574 333 604 q 196 487 229 544 q 163 346 163 429 q 195 206 163 264 q 281 119 228 149 q 392 90 333 90 m 483 836 q 421 849 447 836 q 373 881 394 863 q 329 912 351 899 q 278 925 307 925 q 236 910 250 925 q 217 875 222 896 q 208 835 211 854 l 117 835 q 138 928 119 886 q 187 997 156 971 q 264 1022 218 1022 q 328 1009 300 1022 q 380 978 357 996 q 424 947 403 960 q 469 933 446 933 q 510 948 496 933 q 531 984 525 963 q 539 1024 536 1006 l 631 1024 q 609 930 626 972 q 560 862 592 888 q 483 836 528 836 z "},"œ":{"ha":1310,"x_min":51,"x_max":1264,"o":"m 392 -14 q 225 29 303 -14 q 99 153 147 72 q 51 346 51 235 q 99 538 51 457 q 225 664 147 619 q 392 708 303 708 q 558 664 481 708 q 682 538 635 619 q 729 346 729 457 q 682 153 729 235 q 558 29 635 72 q 392 -14 481 -14 m 392 90 q 501 119 450 90 q 585 206 553 149 q 618 346 618 264 q 585 485 618 428 q 501 574 553 543 q 392 604 450 604 q 281 574 333 604 q 196 487 229 544 q 163 346 163 429 q 195 206 163 264 q 281 119 228 149 q 392 90 333 90 m 1149 224 l 1253 224 q 1203 102 1242 156 q 1103 17 1165 49 q 961 -14 1042 -14 q 786 33 864 -14 q 663 160 708 79 q 618 346 618 242 q 662 532 618 450 q 782 661 706 614 q 954 708 858 708 q 1126 663 1056 708 q 1230 531 1196 618 q 1257 318 1264 444 l 729 318 q 767 199 736 250 q 847 119 797 147 q 961 90 897 90 q 1081 127 1032 90 q 1149 224 1131 164 m 958 604 q 814 554 872 604 q 736 418 756 504 l 1143 418 q 1084 557 1138 510 q 958 604 1031 604 z "},"p":{"ha":790,"x_min":90,"x_max":739,"o":"m 438 -14 q 313 22 361 -14 q 237 113 264 57 q 199 231 210 169 q 188 346 188 293 q 198 486 188 421 q 235 601 208 551 q 310 680 261 651 q 438 708 360 708 q 589 661 521 708 q 698 532 657 614 q 739 346 739 450 q 697 160 739 242 q 587 33 656 79 q 438 -14 518 -14 m 410 92 q 523 124 474 92 q 600 215 572 157 q 628 346 628 272 q 571 530 628 457 q 410 603 514 603 q 301 570 349 603 q 228 480 254 538 q 201 346 201 422 q 224 219 201 276 q 293 126 247 161 q 410 92 339 92 m 90 694 l 197 694 l 201 549 l 201 -278 l 90 -278 l 90 694 z "},"þ":{"ha":790,"x_min":90,"x_max":739,"o":"m 438 -14 q 313 22 361 -14 q 237 113 264 57 q 199 231 210 169 q 188 346 188 293 q 198 486 188 421 q 235 601 208 551 q 310 680 261 651 q 438 708 360 708 q 589 661 521 708 q 698 532 657 614 q 739 346 739 450 q 697 160 739 242 q 587 33 656 79 q 438 -14 518 -14 m 410 93 q 523 125 474 93 q 600 215 572 157 q 628 346 628 272 q 571 529 628 457 q 410 601 514 601 q 301 569 349 601 q 228 480 254 538 q 201 346 201 422 q 224 219 201 276 q 293 127 247 161 q 410 93 339 93 m 90 971 l 201 971 l 201 549 l 201 -278 l 90 -278 l 90 971 z "},"q":{"ha":811,"x_min":51,"x_max":700,"o":"m 353 -14 q 202 33 271 -14 q 92 160 133 79 q 51 346 51 242 q 92 532 51 450 q 202 661 133 614 q 353 708 271 708 q 480 680 431 708 q 556 601 529 651 q 592 486 582 551 q 603 346 603 421 q 592 231 603 293 q 553 113 581 169 q 478 22 526 57 q 353 -14 429 -14 m 381 92 q 498 126 451 92 q 567 219 544 161 q 589 346 589 276 q 566 480 589 422 q 497 570 543 538 q 381 603 450 603 q 219 530 276 603 q 163 346 163 457 q 191 215 163 272 q 269 124 219 157 q 381 92 318 92 m 700 694 l 700 -278 l 589 -278 l 589 565 l 589 694 l 700 694 z "},"r":{"ha":458,"x_min":90,"x_max":424,"o":"m 90 694 l 201 694 l 201 0 l 90 0 l 90 694 m 424 590 q 305 555 353 590 q 230 469 257 519 q 194 371 203 418 l 193 451 q 199 493 193 464 q 219 559 204 522 q 260 630 235 596 q 326 686 286 664 q 424 708 367 708 l 424 590 z "},"ŕ":{"ha":458,"x_min":90,"x_max":496,"o":"m 90 694 l 201 694 l 201 0 l 90 0 l 90 694 m 424 590 q 305 555 353 590 q 230 469 257 519 q 194 371 203 418 l 193 451 q 199 493 193 464 q 219 559 204 522 q 260 630 235 596 q 326 686 286 664 q 424 708 367 708 l 424 590 m 203 835 l 350 1058 l 496 1058 l 301 835 l 203 835 z "},"ř":{"ha":458,"x_min":35,"x_max":494,"o":"m 90 694 l 201 694 l 201 0 l 90 0 l 90 694 m 424 590 q 305 555 353 590 q 230 469 257 519 q 194 371 203 418 l 193 451 q 199 493 193 464 q 219 559 204 522 q 260 630 235 596 q 326 686 286 664 q 424 708 367 708 l 424 590 m 293 868 l 238 868 l 363 1058 l 494 1058 l 314 835 l 215 835 l 35 1058 l 167 1058 l 293 868 z "},"ŗ":{"ha":458,"x_min":68,"x_max":424,"o":"m 90 694 l 201 694 l 201 0 l 90 0 l 90 694 m 424 590 q 305 555 353 590 q 230 469 257 519 q 194 371 203 418 l 193 451 q 199 493 193 464 q 219 559 204 522 q 260 630 235 596 q 326 686 286 664 q 424 708 367 708 l 424 590 m 94 -339 l 79 -310 q 119 -263 103 -287 q 136 -219 135 -239 l 68 -204 l 68 -92 l 215 -92 l 215 -149 q 183 -271 215 -222 q 94 -339 151 -319 l 94 -339 z "},"s":{"ha":613,"x_min":54,"x_max":561,"o":"m 57 224 l 160 224 q 205 126 164 164 q 324 89 246 89 q 398 101 371 89 q 438 135 425 114 q 450 183 450 157 q 434 234 450 215 q 391 265 418 253 q 329 289 364 278 q 247 322 289 304 q 167 363 204 339 q 108 423 131 388 q 86 508 86 458 q 103 587 86 550 q 151 651 119 624 q 224 693 182 678 q 318 708 267 708 q 435 681 388 708 q 509 602 483 653 q 536 485 535 551 l 440 485 q 401 576 431 547 q 315 604 371 604 q 228 579 258 604 q 197 513 197 554 q 219 462 197 482 q 277 426 242 442 q 353 393 313 410 q 431 360 393 376 q 497 321 468 343 q 544 266 526 299 q 561 185 561 233 q 534 81 561 126 q 455 11 507 36 q 328 -14 403 -14 q 212 3 260 -14 q 132 49 164 21 q 83 110 100 78 q 60 172 65 142 q 57 224 54 203 z "},"ś":{"ha":613,"x_min":54,"x_max":561,"o":"m 57 224 l 160 224 q 205 126 164 164 q 324 89 246 89 q 398 101 371 89 q 438 135 425 114 q 450 183 450 157 q 434 234 450 215 q 391 265 418 253 q 329 289 364 278 q 247 322 289 304 q 167 363 204 339 q 108 423 131 388 q 86 508 86 458 q 103 587 86 550 q 151 651 119 624 q 224 693 182 678 q 318 708 267 708 q 435 681 388 708 q 509 602 483 653 q 536 485 535 551 l 440 485 q 401 576 431 547 q 315 604 371 604 q 228 579 258 604 q 197 513 197 554 q 219 462 197 482 q 277 426 242 442 q 353 393 313 410 q 431 360 393 376 q 497 321 468 343 q 544 266 526 299 q 561 185 561 233 q 534 81 561 126 q 455 11 507 36 q 328 -14 403 -14 q 212 3 260 -14 q 132 49 164 21 q 83 110 100 78 q 60 172 65 142 q 57 224 54 203 m 258 835 l 406 1058 l 551 1058 l 357 835 l 258 835 z "},"š":{"ha":613,"x_min":54,"x_max":561,"o":"m 57 224 l 160 224 q 205 126 164 164 q 324 89 246 89 q 398 101 371 89 q 438 135 425 114 q 450 183 450 157 q 434 234 450 215 q 391 265 418 253 q 329 289 364 278 q 247 322 289 304 q 167 363 204 339 q 108 423 131 388 q 86 508 86 458 q 103 587 86 550 q 151 651 119 624 q 224 693 182 678 q 318 708 267 708 q 435 681 388 708 q 509 602 483 653 q 536 485 535 551 l 440 485 q 401 576 431 547 q 315 604 371 604 q 228 579 258 604 q 197 513 197 554 q 219 462 197 482 q 277 426 242 442 q 353 393 313 410 q 431 360 393 376 q 497 321 468 343 q 544 266 526 299 q 561 185 561 233 q 534 81 561 126 q 455 11 507 36 q 328 -14 403 -14 q 212 3 260 -14 q 132 49 164 21 q 83 110 100 78 q 60 172 65 142 q 57 224 54 203 m 349 868 l 293 868 l 418 1058 l 550 1058 l 369 835 l 271 835 l 90 1058 l 222 1058 l 349 868 z "},"ş":{"ha":613,"x_min":54,"x_max":561,"o":"m 232 -179 q 239 -205 233 -189 q 260 -234 244 -221 q 307 -247 276 -247 q 353 -227 342 -247 q 365 -189 365 -207 q 359 -156 365 -174 q 335 -121 353 -139 q 283 -89 318 -103 l 342 -58 q 399 -84 374 -67 q 439 -129 424 -101 q 454 -199 454 -157 q 417 -291 454 -249 q 300 -333 379 -333 q 214 -311 250 -333 q 161 -253 178 -289 q 151 -179 144 -218 l 232 -179 m 283 8 l 396 8 l 396 -103 l 283 -89 l 283 8 m 57 224 l 160 224 q 205 126 164 164 q 324 89 246 89 q 398 101 371 89 q 438 135 425 114 q 450 183 450 157 q 434 234 450 215 q 391 265 418 253 q 329 289 364 278 q 247 322 289 304 q 167 363 204 339 q 108 423 131 388 q 86 508 86 458 q 103 587 86 550 q 151 651 119 624 q 224 693 182 678 q 318 708 267 708 q 435 681 388 708 q 509 602 483 653 q 536 485 535 551 l 440 485 q 401 576 431 547 q 315 604 371 604 q 228 579 258 604 q 197 513 197 554 q 219 462 197 482 q 277 426 242 442 q 353 393 313 410 q 431 360 393 376 q 497 321 468 343 q 544 266 526 299 q 561 185 561 233 q 534 81 561 126 q 455 11 507 36 q 328 -14 403 -14 q 212 3 260 -14 q 132 49 164 21 q 83 110 100 78 q 60 172 65 142 q 57 224 54 203 z "},"ș":{"ha":613,"x_min":54,"x_max":561,"o":"m 57 224 l 160 224 q 205 126 164 164 q 324 89 246 89 q 398 101 371 89 q 438 135 425 114 q 450 183 450 157 q 434 234 450 215 q 391 265 418 253 q 329 289 364 278 q 247 322 289 304 q 167 363 204 339 q 108 423 131 388 q 86 508 86 458 q 103 587 86 550 q 151 651 119 624 q 224 693 182 678 q 318 708 267 708 q 435 681 388 708 q 509 602 483 653 q 536 485 535 551 l 440 485 q 401 576 431 547 q 315 604 371 604 q 228 579 258 604 q 197 513 197 554 q 219 462 197 482 q 277 426 242 442 q 353 393 313 410 q 431 360 393 376 q 497 321 468 343 q 544 266 526 299 q 561 185 561 233 q 534 81 561 126 q 455 11 507 36 q 328 -14 403 -14 q 212 3 260 -14 q 132 49 164 21 q 83 110 100 78 q 60 172 65 142 q 57 224 54 203 m 288 -353 l 272 -324 q 312 -277 296 -301 q 329 -233 328 -253 l 261 -218 l 261 -106 l 408 -106 l 408 -162 q 376 -285 408 -236 q 288 -353 344 -333 l 288 -353 z "},"ß":{"ha":724,"x_min":107,"x_max":696,"o":"m 386 -222 l 386 -119 q 475 -108 438 -119 q 537 -76 513 -97 q 573 -25 561 -56 q 585 44 585 6 q 574 111 585 81 q 541 163 564 142 q 483 197 518 185 q 399 208 449 208 l 346 208 l 346 311 l 521 635 l 547 590 l 196 590 l 196 694 l 624 694 l 624 593 l 431 239 l 418 285 q 526 272 475 285 q 615 230 576 258 q 674 156 653 201 q 696 44 696 110 q 676 -58 696 -10 q 617 -142 656 -106 q 520 -201 578 -179 q 386 -222 463 -222 m 107 0 l 107 736 q 137 872 107 819 q 220 948 167 924 q 343 972 274 972 l 407 972 l 407 861 l 343 861 q 255 836 292 863 q 218 736 218 810 l 218 0 l 107 0 z "},"t":{"ha":492,"x_min":42,"x_max":450,"o":"m 42 694 l 450 694 l 450 590 l 42 590 l 42 694 m 190 875 l 301 875 l 301 0 l 190 0 l 190 875 z "},"ŧ":{"ha":478,"x_min":36,"x_max":450,"o":"m 36 486 l 442 486 l 442 382 l 36 382 l 36 486 m 42 694 l 450 694 l 450 590 l 42 590 l 42 694 m 190 875 l 301 875 l 301 0 l 190 0 l 190 875 z "},"ť":{"ha":492,"x_min":42,"x_max":479,"o":"m 42 694 l 450 694 l 450 590 l 42 590 l 42 694 m 190 875 l 301 875 l 301 0 l 190 0 l 190 875 m 449 760 l 386 760 l 357 936 l 357 1043 l 479 1043 l 479 936 l 449 760 z "},"ţ":{"ha":492,"x_min":42,"x_max":450,"o":"m 139 -165 q 146 -191 140 -175 q 167 -220 151 -207 q 214 -233 183 -233 q 260 -213 249 -233 q 272 -175 272 -193 q 266 -142 272 -160 q 242 -107 260 -125 q 190 -75 225 -89 l 249 -44 q 306 -70 281 -53 q 346 -115 331 -87 q 361 -185 361 -143 q 324 -277 361 -235 q 207 -319 286 -319 q 121 -297 157 -319 q 68 -240 85 -275 q 58 -165 51 -204 l 139 -165 m 190 22 l 303 22 l 303 -89 l 190 -75 l 190 22 m 42 694 l 450 694 l 450 590 l 42 590 l 42 694 m 190 875 l 301 875 l 301 0 l 190 0 l 190 875 z "},"ț":{"ha":492,"x_min":42,"x_max":450,"o":"m 42 694 l 450 694 l 450 590 l 42 590 l 42 694 m 190 875 l 301 875 l 301 0 l 190 0 l 190 875 m 194 -339 l 179 -310 q 219 -263 203 -287 q 236 -219 235 -239 l 168 -204 l 168 -92 l 315 -92 l 315 -149 q 283 -271 315 -222 q 194 -339 251 -319 l 194 -339 z "},"u":{"ha":769,"x_min":90,"x_max":679,"o":"m 679 0 l 568 0 l 568 694 l 679 694 l 679 0 m 575 324 l 576 285 q 569 233 575 268 q 548 156 563 199 q 506 75 533 114 q 437 11 479 36 q 332 -14 394 -14 q 249 -2 292 -14 q 171 37 207 10 q 113 113 135 64 q 90 233 90 161 l 90 694 l 201 694 l 201 261 q 222 163 201 199 q 276 113 242 128 q 354 97 311 97 q 472 133 425 97 q 544 222 519 169 q 575 324 569 275 z "},"ú":{"ha":769,"x_min":90,"x_max":679,"o":"m 679 0 l 568 0 l 568 694 l 679 694 l 679 0 m 575 324 l 576 285 q 569 233 575 268 q 548 156 563 199 q 506 75 533 114 q 437 11 479 36 q 332 -14 394 -14 q 249 -2 292 -14 q 171 37 207 10 q 113 113 135 64 q 90 233 90 161 l 90 694 l 201 694 l 201 261 q 222 163 201 199 q 276 113 242 128 q 354 97 311 97 q 472 133 425 97 q 544 222 519 169 q 575 324 569 275 m 339 835 l 486 1058 l 632 1058 l 438 835 l 339 835 z "},"û":{"ha":769,"x_min":90,"x_max":679,"o":"m 679 0 l 568 0 l 568 694 l 679 694 l 679 0 m 575 324 l 576 285 q 569 233 575 268 q 548 156 563 199 q 506 75 533 114 q 437 11 479 36 q 332 -14 394 -14 q 249 -2 292 -14 q 171 37 207 10 q 113 113 135 64 q 90 233 90 161 l 90 694 l 201 694 l 201 261 q 222 163 201 199 q 276 113 242 128 q 354 97 311 97 q 472 133 425 97 q 544 222 519 169 q 575 324 569 275 m 443 1058 l 631 835 l 499 835 l 367 1029 l 422 1029 l 289 835 l 156 835 l 344 1058 l 443 1058 z "},"ü":{"ha":769,"x_min":90,"x_max":679,"o":"m 679 0 l 568 0 l 568 694 l 679 694 l 679 0 m 575 324 l 576 285 q 569 233 575 268 q 548 156 563 199 q 506 75 533 114 q 437 11 479 36 q 332 -14 394 -14 q 249 -2 292 -14 q 171 37 207 10 q 113 113 135 64 q 90 233 90 161 l 90 694 l 201 694 l 201 261 q 222 163 201 199 q 276 113 242 128 q 354 97 311 97 q 472 133 425 97 q 544 222 519 169 q 575 324 569 275 m 344 972 l 344 836 l 200 836 l 200 972 l 344 972 m 590 972 l 590 836 l 446 836 l 446 972 l 590 972 z "},"ù":{"ha":769,"x_min":90,"x_max":679,"o":"m 679 0 l 568 0 l 568 694 l 679 694 l 679 0 m 575 324 l 576 285 q 569 233 575 268 q 548 156 563 199 q 506 75 533 114 q 437 11 479 36 q 332 -14 394 -14 q 249 -2 292 -14 q 171 37 207 10 q 113 113 135 64 q 90 233 90 161 l 90 694 l 201 694 l 201 261 q 222 163 201 199 q 276 113 242 128 q 354 97 311 97 q 472 133 425 97 q 544 222 519 169 q 575 324 569 275 m 344 835 l 150 1058 l 296 1058 l 443 835 l 344 835 z "},"ű":{"ha":769,"x_min":90,"x_max":751,"o":"m 679 0 l 568 0 l 568 694 l 679 694 l 679 0 m 575 324 l 576 285 q 569 233 575 268 q 548 156 563 199 q 506 75 533 114 q 437 11 479 36 q 332 -14 394 -14 q 249 -2 292 -14 q 171 37 207 10 q 113 113 135 64 q 90 233 90 161 l 90 694 l 201 694 l 201 261 q 222 163 201 199 q 276 113 242 128 q 354 97 311 97 q 472 133 425 97 q 544 222 519 169 q 575 324 569 275 m 458 835 l 606 1058 l 751 1058 l 557 835 l 458 835 m 194 835 l 342 1058 l 488 1058 l 293 835 l 194 835 z "},"ū":{"ha":769,"x_min":90,"x_max":679,"o":"m 679 0 l 568 0 l 568 694 l 679 694 l 679 0 m 575 324 l 576 285 q 569 233 575 268 q 548 156 563 199 q 506 75 533 114 q 437 11 479 36 q 332 -14 394 -14 q 249 -2 292 -14 q 171 37 207 10 q 113 113 135 64 q 90 233 90 161 l 90 694 l 201 694 l 201 261 q 222 163 201 199 q 276 113 242 128 q 354 97 311 97 q 472 133 425 97 q 544 222 519 169 q 575 324 569 275 m 228 851 l 228 949 l 561 949 l 561 851 l 228 851 z "},"ų":{"ha":769,"x_min":90,"x_max":679,"o":"m 667 -299 q 501 -253 564 -299 q 438 -132 438 -208 q 465 -47 438 -81 q 538 5 492 -14 q 638 31 583 24 l 638 0 q 561 -40 594 -10 q 528 -118 528 -71 q 544 -172 528 -149 q 591 -209 560 -196 q 667 -222 622 -222 l 667 -299 m 679 0 l 568 0 l 568 694 l 679 694 l 679 0 m 575 324 l 576 285 q 569 233 575 268 q 548 156 563 199 q 506 75 533 114 q 437 11 479 36 q 332 -14 394 -14 q 249 -2 292 -14 q 171 37 207 10 q 113 113 135 64 q 90 233 90 161 l 90 694 l 201 694 l 201 261 q 222 163 201 199 q 276 113 242 128 q 354 97 311 97 q 472 133 425 97 q 544 222 519 169 q 575 324 569 275 z "},"ů":{"ha":769,"x_min":90,"x_max":679,"o":"m 679 0 l 568 0 l 568 694 l 679 694 l 679 0 m 575 324 l 576 285 q 569 233 575 268 q 548 156 563 199 q 506 75 533 114 q 437 11 479 36 q 332 -14 394 -14 q 249 -2 292 -14 q 171 37 207 10 q 113 113 135 64 q 90 233 90 161 l 90 694 l 201 694 l 201 261 q 222 163 201 199 q 276 113 242 128 q 354 97 311 97 q 472 133 425 97 q 544 222 519 169 q 575 324 569 275 m 394 801 q 267 844 318 801 q 215 957 215 886 q 267 1069 215 1026 q 394 1111 318 1111 q 523 1069 472 1111 q 574 957 574 1026 q 523 844 574 886 q 394 801 472 801 m 394 878 q 461 899 440 878 q 482 957 482 919 q 461 1014 482 993 q 394 1035 440 1035 q 326 1014 347 1035 q 306 957 306 993 q 326 899 306 919 q 394 878 347 878 z "},"v":{"ha":686,"x_min":28,"x_max":658,"o":"m 358 96 l 325 96 l 538 694 l 658 694 l 394 0 l 290 0 l 28 694 l 149 694 l 358 96 z "},"w":{"ha":1071,"x_min":28,"x_max":1043,"o":"m 788 101 l 760 103 l 922 694 l 1043 694 l 831 0 l 726 0 l 521 608 l 549 608 l 343 0 l 239 0 l 28 694 l 149 694 l 308 103 l 281 101 l 468 694 l 603 694 l 788 101 z "},"ẃ":{"ha":1071,"x_min":28,"x_max":1043,"o":"m 788 101 l 760 103 l 922 694 l 1043 694 l 831 0 l 726 0 l 521 608 l 549 608 l 343 0 l 239 0 l 28 694 l 149 694 l 308 103 l 281 101 l 468 694 l 603 694 l 788 101 m 481 835 l 628 1058 l 774 1058 l 579 835 l 481 835 z "},"ŵ":{"ha":1071,"x_min":28,"x_max":1043,"o":"m 788 101 l 760 103 l 922 694 l 1043 694 l 831 0 l 726 0 l 521 608 l 549 608 l 343 0 l 239 0 l 28 694 l 149 694 l 308 103 l 281 101 l 468 694 l 603 694 l 788 101 m 585 1058 l 772 835 l 640 835 l 508 1029 l 564 1029 l 431 835 l 297 835 l 486 1058 l 585 1058 z "},"ẅ":{"ha":1071,"x_min":28,"x_max":1043,"o":"m 788 101 l 760 103 l 922 694 l 1043 694 l 831 0 l 726 0 l 521 608 l 549 608 l 343 0 l 239 0 l 28 694 l 149 694 l 308 103 l 281 101 l 468 694 l 603 694 l 788 101 m 486 972 l 486 836 l 342 836 l 342 972 l 486 972 m 732 972 l 732 836 l 588 836 l 588 972 l 732 972 z "},"ẁ":{"ha":1071,"x_min":28,"x_max":1043,"o":"m 788 101 l 760 103 l 922 694 l 1043 694 l 831 0 l 726 0 l 521 608 l 549 608 l 343 0 l 239 0 l 28 694 l 149 694 l 308 103 l 281 101 l 468 694 l 603 694 l 788 101 m 486 835 l 292 1058 l 438 1058 l 585 835 l 486 835 z "},"x":{"ha":708,"x_min":35,"x_max":674,"o":"m 660 694 l 390 317 l 169 0 l 35 0 l 322 399 l 525 694 l 660 694 m 35 694 l 174 694 l 389 396 l 674 0 l 539 0 l 314 317 l 35 694 z "},"y":{"ha":701,"x_min":28,"x_max":674,"o":"m 28 694 l 147 694 l 396 28 l 299 0 l 28 694 m 674 694 l 286 -278 l 165 -278 l 333 97 l 556 694 l 674 694 z "},"ý":{"ha":701,"x_min":28,"x_max":674,"o":"m 28 694 l 147 694 l 396 28 l 299 0 l 28 694 m 674 694 l 286 -278 l 165 -278 l 333 97 l 556 694 l 674 694 m 292 835 l 439 1058 l 585 1058 l 390 835 l 292 835 z "},"ŷ":{"ha":701,"x_min":28,"x_max":674,"o":"m 28 694 l 147 694 l 396 28 l 299 0 l 28 694 m 674 694 l 286 -278 l 165 -278 l 333 97 l 556 694 l 674 694 m 396 1058 l 583 835 l 451 835 l 319 1029 l 375 1029 l 242 835 l 108 835 l 297 1058 l 396 1058 z "},"ÿ":{"ha":701,"x_min":28,"x_max":674,"o":"m 28 694 l 147 694 l 396 28 l 299 0 l 28 694 m 674 694 l 286 -278 l 165 -278 l 333 97 l 556 694 l 674 694 m 297 972 l 297 836 l 153 836 l 153 972 l 297 972 m 543 972 l 543 836 l 399 836 l 399 972 l 543 972 z "},"ỳ":{"ha":701,"x_min":28,"x_max":674,"o":"m 28 694 l 147 694 l 396 28 l 299 0 l 28 694 m 674 694 l 286 -278 l 165 -278 l 333 97 l 556 694 l 674 694 m 297 835 l 103 1058 l 249 1058 l 396 835 l 297 835 z "},"z":{"ha":692,"x_min":76,"x_max":615,"o":"m 611 590 l 183 65 l 165 104 l 615 104 l 615 0 l 76 0 l 76 104 l 511 629 l 529 590 l 76 590 l 76 694 l 611 694 l 611 590 z "},"ź":{"ha":692,"x_min":76,"x_max":615,"o":"m 611 590 l 183 65 l 165 104 l 615 104 l 615 0 l 76 0 l 76 104 l 511 629 l 529 590 l 76 590 l 76 694 l 611 694 l 611 590 m 288 835 l 435 1058 l 581 1058 l 386 835 l 288 835 z "},"ž":{"ha":692,"x_min":76,"x_max":615,"o":"m 611 590 l 183 65 l 165 104 l 615 104 l 615 0 l 76 0 l 76 104 l 511 629 l 529 590 l 76 590 l 76 694 l 611 694 l 611 590 m 378 868 l 322 868 l 447 1058 l 579 1058 l 399 835 l 300 835 l 119 1058 l 251 1058 l 378 868 z "},"ż":{"ha":692,"x_min":76,"x_max":615,"o":"m 611 590 l 183 65 l 165 104 l 615 104 l 615 0 l 76 0 l 76 104 l 511 629 l 529 590 l 76 590 l 76 694 l 611 694 l 611 590 m 415 974 l 415 838 l 271 838 l 271 974 l 415 974 z "},"ﬁ":{"ha":776,"x_min":42,"x_max":693,"o":"m 394 563 l 394 667 l 676 667 l 676 563 l 394 563 m 582 667 l 693 667 l 693 0 l 582 0 l 582 667 m 165 0 l 165 736 l 276 736 l 276 0 l 165 0 m 401 972 l 693 972 l 693 861 l 401 861 q 338 851 367 863 q 293 813 310 840 q 276 736 276 786 l 165 736 q 195 872 165 819 q 278 948 225 924 q 401 972 332 972 m 42 667 l 450 667 l 450 563 l 42 563 l 42 667 z "},"ª":{"ha":729,"x_min":51,"x_max":639,"o":"m 311 417 q 174 453 233 417 q 83 553 115 490 q 51 693 51 617 q 84 842 51 776 q 178 947 117 908 q 325 986 240 986 q 427 963 386 986 q 494 898 468 939 q 531 804 519 857 q 542 693 542 751 q 529 615 542 661 q 490 523 517 568 q 419 447 463 478 q 311 417 375 417 m 339 524 q 420 538 385 524 q 479 577 456 553 q 515 632 503 601 q 528 693 528 663 q 515 769 528 735 q 478 827 503 803 q 419 865 454 851 q 339 878 383 878 q 203 826 243 878 q 163 693 163 774 q 208 574 163 624 q 339 524 253 524 m 528 972 l 639 972 l 639 431 l 538 431 q 535 455 538 431 q 531 510 533 479 q 528 556 528 540 l 528 972 z "},"º":{"ha":781,"x_min":93,"x_max":688,"o":"m 392 403 q 235 440 303 403 q 131 544 168 478 q 93 693 93 610 q 131 842 93 776 q 235 947 168 908 q 392 986 303 986 q 547 947 481 986 q 651 842 614 908 q 688 693 688 776 q 651 544 688 610 q 547 440 614 478 q 392 403 481 403 m 392 506 q 490 530 449 506 q 555 597 532 554 q 578 693 578 639 q 555 790 578 747 q 490 858 532 833 q 392 883 449 883 q 292 858 335 883 q 226 791 250 833 q 203 693 203 749 q 226 597 203 639 q 292 530 249 554 q 392 506 335 506 z "},"Α":{"ha":861,"x_min":28,"x_max":833,"o":"m 211 236 l 211 340 l 644 340 l 644 236 l 211 236 m 28 0 l 371 903 l 488 903 l 833 0 l 714 0 l 413 817 l 446 817 l 144 0 l 28 0 z "},"Β":{"ha":856,"x_min":111,"x_max":793,"o":"m 111 0 l 111 903 l 467 903 q 685 839 607 903 q 764 661 764 775 q 735 546 764 590 q 656 479 707 501 q 535 450 604 457 l 538 458 q 635 445 589 456 q 716 413 681 435 q 772 351 751 390 q 793 251 793 313 q 757 115 793 169 q 656 33 721 61 q 508 0 592 4 l 111 0 m 222 104 l 481 104 q 628 140 575 104 q 682 251 682 175 q 648 343 682 313 q 561 384 614 374 q 453 394 508 394 l 222 394 l 222 104 m 222 499 l 453 499 q 601 540 547 499 q 654 657 654 581 q 601 765 654 732 q 467 799 547 799 l 222 799 l 222 499 z "},"Γ":{"ha":792,"x_min":111,"x_max":764,"o":"m 213 903 l 764 903 l 764 799 l 213 799 l 213 903 m 111 903 l 222 903 l 222 0 l 111 0 l 111 903 z "},"Δ":{"ha":861,"x_min":28,"x_max":833,"o":"m 128 0 l 128 104 l 733 104 l 733 0 l 128 0 m 28 0 l 371 903 l 488 903 l 833 0 l 714 0 l 413 817 l 446 817 l 144 0 l 28 0 z "},"Ε":{"ha":835,"x_min":111,"x_max":751,"o":"m 222 397 l 222 104 l 751 104 l 751 0 l 111 0 l 111 903 l 750 903 l 750 799 l 222 799 l 222 501 l 654 501 l 654 397 l 222 397 z "},"Ζ":{"ha":847,"x_min":83,"x_max":764,"o":"m 83 903 l 764 903 l 764 799 l 188 67 l 169 104 l 764 104 l 764 0 l 83 0 l 83 104 l 663 836 l 681 799 l 83 799 l 83 903 z "},"Η":{"ha":1000,"x_min":111,"x_max":889,"o":"m 213 503 l 785 503 l 785 399 l 213 399 l 213 503 m 778 903 l 889 903 l 889 0 l 778 0 l 778 903 m 111 903 l 222 903 l 222 0 l 111 0 l 111 903 z "},"Θ":{"ha":1028,"x_min":69,"x_max":958,"o":"m 514 -14 q 290 44 390 -14 q 129 206 189 101 q 69 451 69 310 q 129 698 69 593 q 290 860 189 803 q 514 917 390 917 q 738 860 638 917 q 899 698 839 803 q 958 451 958 593 q 899 206 958 310 q 738 44 839 101 q 514 -14 638 -14 m 514 90 q 683 131 608 90 q 803 253 758 172 q 847 451 847 333 q 803 649 847 569 q 683 771 758 729 q 514 813 608 813 q 345 771 421 813 q 225 649 269 729 q 181 451 181 569 q 225 253 181 333 q 345 131 269 172 q 514 90 421 90 m 294 515 l 726 515 l 726 411 l 294 411 l 294 515 z "},"Ι":{"ha":389,"x_min":139,"x_max":250,"o":"m 139 903 l 250 903 l 250 0 l 139 0 l 139 903 z "},"Κ":{"ha":876,"x_min":111,"x_max":849,"o":"m 326 439 l 326 511 l 849 0 l 697 0 l 222 472 l 640 903 l 790 903 l 326 439 m 111 903 l 222 903 l 222 0 l 111 0 l 111 903 z "},"Λ":{"ha":861,"x_min":28,"x_max":833,"o":"m 28 0 l 371 903 l 488 903 l 833 0 l 714 0 l 413 817 l 446 817 l 144 0 l 28 0 z "},"Μ":{"ha":1222,"x_min":111,"x_max":1111,"o":"m 633 67 l 589 67 l 1000 903 l 1111 903 l 1111 0 l 1000 0 l 1000 710 l 1022 704 l 667 0 l 556 0 l 200 703 l 222 708 l 222 0 l 111 0 l 111 903 l 222 903 l 633 67 z "},"Ν":{"ha":1000,"x_min":111,"x_max":889,"o":"m 808 132 l 778 122 l 778 903 l 889 903 l 889 0 l 778 0 l 192 769 l 222 779 l 222 0 l 111 0 l 111 903 l 222 903 l 808 132 z "},"Ξ":{"ha":833,"x_min":83,"x_max":750,"o":"m 83 903 l 750 903 l 750 799 l 83 799 l 83 903 m 83 104 l 750 104 l 750 0 l 83 0 l 83 104 m 181 515 l 653 515 l 653 411 l 181 411 l 181 515 z "},"Ο":{"ha":1028,"x_min":69,"x_max":958,"o":"m 514 -14 q 290 44 390 -14 q 129 206 189 101 q 69 451 69 310 q 129 698 69 593 q 290 860 189 803 q 514 917 390 917 q 738 860 638 917 q 899 698 839 803 q 958 451 958 593 q 899 206 958 310 q 738 44 839 101 q 514 -14 638 -14 m 514 90 q 683 131 608 90 q 803 253 758 172 q 847 451 847 333 q 803 649 847 569 q 683 771 758 729 q 514 813 608 813 q 345 771 421 813 q 225 649 269 729 q 181 451 181 569 q 225 253 181 333 q 345 131 269 172 q 514 90 421 90 z "},"Π":{"ha":1000,"x_min":111,"x_max":889,"o":"m 213 903 l 785 903 l 785 799 l 213 799 l 213 903 m 778 903 l 889 903 l 889 0 l 778 0 l 778 903 m 111 903 l 222 903 l 222 0 l 111 0 l 111 903 z "},"Ρ":{"ha":842,"x_min":108,"x_max":779,"o":"m 197 319 l 197 424 l 481 424 q 616 476 564 424 q 668 611 668 528 q 616 748 668 697 q 481 799 564 799 l 219 799 l 219 0 l 108 0 l 108 903 l 481 903 q 597 883 543 903 q 692 826 651 864 q 756 735 733 789 q 779 611 779 681 q 756 488 779 542 q 692 396 733 433 q 597 339 651 358 q 481 319 543 319 l 197 319 z "},"Σ":{"ha":847,"x_min":111,"x_max":764,"o":"m 111 903 l 750 903 l 750 799 l 199 799 l 208 835 l 539 468 l 215 72 l 201 104 l 764 104 l 764 0 l 111 0 l 111 101 l 454 521 l 426 436 l 111 793 l 111 903 z "},"Τ":{"ha":764,"x_min":21,"x_max":743,"o":"m 21 903 l 743 903 l 743 799 l 21 799 l 21 903 m 326 810 l 438 810 l 438 0 l 326 0 l 326 810 z "},"Υ":{"ha":819,"x_min":35,"x_max":785,"o":"m 785 903 l 465 310 l 465 0 l 354 0 l 354 310 l 35 903 l 160 903 l 435 382 l 390 382 l 660 903 l 785 903 z "},"Φ":{"ha":1111,"x_min":69,"x_max":1042,"o":"m 556 111 q 347 132 438 111 q 194 196 256 153 q 101 303 132 239 q 69 451 69 367 q 101 601 69 538 q 194 707 132 664 q 347 771 256 750 q 556 792 438 792 q 765 771 675 792 q 917 707 856 750 q 1010 601 979 664 q 1042 451 1042 538 q 1010 303 1042 367 q 917 196 979 239 q 765 132 856 153 q 556 111 675 111 m 556 215 q 761 240 678 215 q 888 316 844 264 q 931 451 931 368 q 888 587 931 535 q 761 663 844 639 q 556 688 678 688 q 351 663 435 688 q 224 587 267 639 q 181 451 181 535 q 224 316 181 368 q 351 240 267 264 q 556 215 435 215 m 500 903 l 611 903 l 611 0 l 500 0 l 500 903 z "},"Χ":{"ha":856,"x_min":60,"x_max":796,"o":"m 671 903 l 796 903 l 463 422 l 460 418 l 185 0 l 60 0 l 399 508 l 401 511 l 671 903 m 199 903 l 457 513 l 458 510 l 796 0 l 657 0 l 394 421 l 392 424 l 74 903 l 199 903 z "},"Ψ":{"ha":1086,"x_min":99,"x_max":988,"o":"m 988 674 q 953 490 988 563 q 858 378 919 418 q 717 322 797 338 q 543 306 636 306 q 369 322 450 306 q 228 378 289 338 q 133 490 167 418 q 99 674 99 563 l 99 903 l 210 903 l 210 674 q 235 532 210 585 q 306 453 261 479 q 412 418 351 426 q 543 410 472 410 q 674 418 614 410 q 780 453 735 426 q 851 532 825 479 q 876 674 876 585 l 876 903 l 988 903 l 988 674 m 488 903 l 599 903 l 599 0 l 488 0 l 488 903 z "},"Ω":{"ha":1014,"x_min":69,"x_max":950,"o":"m 69 0 l 69 104 l 347 104 l 347 132 q 257 185 301 151 q 176 265 213 218 q 119 372 140 313 q 97 504 97 432 q 126 660 97 586 q 208 792 154 733 q 338 883 263 850 q 507 917 414 917 q 676 883 601 917 q 806 792 751 850 q 888 660 860 733 q 917 504 917 586 q 894 372 917 433 q 836 263 872 311 q 757 181 800 214 q 672 132 714 147 l 672 104 l 950 104 l 950 0 l 575 0 l 575 181 q 678 248 625 206 q 769 353 732 290 q 806 504 806 417 q 769 657 806 589 q 666 765 733 725 q 507 806 599 806 q 349 765 415 806 q 245 657 282 725 q 208 504 208 589 q 246 351 208 415 q 338 244 283 286 q 444 181 393 203 l 444 0 l 69 0 z "},"Ά":{"ha":890,"x_min":0,"x_max":863,"o":"m 240 236 l 240 340 l 674 340 l 674 236 l 240 236 m 57 0 l 400 903 l 517 903 l 863 0 l 743 0 l 442 817 l 475 817 l 174 0 l 57 0 m 0 679 l 147 903 l 293 903 l 99 679 l 0 679 z "},"Έ":{"ha":1100,"x_min":0,"x_max":1017,"o":"m 488 397 l 488 104 l 1017 104 l 1017 0 l 376 0 l 376 903 l 1015 903 l 1015 799 l 488 799 l 488 501 l 919 501 l 919 397 l 488 397 m 0 679 l 147 903 l 293 903 l 99 679 l 0 679 z "},"Ή":{"ha":1265,"x_min":0,"x_max":1154,"o":"m 478 503 l 1050 503 l 1050 399 l 478 399 l 478 503 m 1043 903 l 1154 903 l 1154 0 l 1043 0 l 1043 903 m 376 903 l 488 903 l 488 0 l 376 0 l 376 903 m 0 679 l 147 903 l 293 903 l 99 679 l 0 679 z "},"Ί":{"ha":654,"x_min":0,"x_max":515,"o":"m 404 903 l 515 903 l 515 0 l 404 0 l 404 903 m 0 679 l 147 903 l 293 903 l 99 679 l 0 679 z "},"Ό":{"ha":1168,"x_min":0,"x_max":1099,"o":"m 654 -14 q 430 44 531 -14 q 269 206 329 101 q 210 451 210 310 q 269 698 210 593 q 430 860 329 803 q 654 917 531 917 q 878 860 778 917 q 1039 698 979 803 q 1099 451 1099 593 q 1039 206 1099 310 q 878 44 979 101 q 654 -14 778 -14 m 654 90 q 824 131 749 90 q 943 253 899 172 q 988 451 988 333 q 943 649 988 569 q 824 771 899 729 q 654 813 749 813 q 485 771 561 813 q 365 649 410 729 q 321 451 321 569 q 365 253 321 333 q 485 131 410 172 q 654 90 561 90 m 0 679 l 147 903 l 293 903 l 99 679 l 0 679 z "},"Ύ":{"ha":1100,"x_min":1,"x_max":1065,"o":"m 1065 903 l 746 310 l 746 0 l 635 0 l 635 310 l 315 903 l 440 903 l 715 382 l 671 382 l 940 903 l 1065 903 m 1 679 l 149 903 l 294 903 l 100 679 l 1 679 z "},"Ώ":{"ha":1140,"x_min":0,"x_max":1076,"o":"m 196 0 l 196 104 l 474 104 l 474 132 q 383 185 428 151 q 303 265 339 218 q 245 372 267 313 q 224 504 224 432 q 252 660 224 586 q 335 792 281 733 q 465 883 389 850 q 633 917 540 917 q 803 883 728 917 q 932 792 878 850 q 1015 660 986 733 q 1043 504 1043 586 q 1021 372 1043 433 q 963 263 999 311 q 883 181 926 214 q 799 132 840 147 l 799 104 l 1076 104 l 1076 0 l 701 0 l 701 181 q 805 248 751 206 q 895 353 858 290 q 932 504 932 417 q 896 657 932 589 q 792 765 860 725 q 633 806 725 806 q 475 765 542 806 q 372 657 408 725 q 335 504 335 589 q 372 351 335 415 q 465 244 410 286 q 571 181 519 203 l 571 0 l 196 0 m 0 679 l 147 903 l 293 903 l 99 679 l 0 679 z "},"Ϊ":{"ha":389,"x_min":0,"x_max":390,"o":"m 139 903 l 250 903 l 250 0 l 139 0 l 139 903 m 144 1167 l 144 1031 l 0 1031 l 0 1167 l 144 1167 m 390 1167 l 390 1031 l 246 1031 l 246 1167 l 390 1167 z "},"Ϋ":{"ha":819,"x_min":35,"x_max":785,"o":"m 785 903 l 465 310 l 465 0 l 354 0 l 354 310 l 35 903 l 160 903 l 435 382 l 390 382 l 660 903 l 785 903 m 360 1167 l 360 1031 l 215 1031 l 215 1167 l 360 1167 m 606 1167 l 606 1031 l 461 1031 l 461 1167 l 606 1167 z "},"α":{"ha":790,"x_min":51,"x_max":700,"o":"m 353 -14 q 202 33 271 -14 q 92 160 133 79 q 51 346 51 242 q 93 532 51 450 q 206 661 135 614 q 367 708 278 708 q 515 659 464 708 q 584 528 565 610 q 603 346 603 446 q 592 231 603 293 q 553 113 581 169 q 478 22 526 57 q 353 -14 429 -14 m 381 92 q 498 126 451 92 q 567 219 544 161 q 589 346 589 276 q 566 480 589 422 q 497 570 543 538 q 381 603 450 603 q 219 530 276 603 q 163 346 163 457 q 191 215 163 272 q 269 124 219 157 q 381 92 318 92 m 589 694 l 700 694 l 700 0 l 599 0 q 596 29 599 4 q 591 85 593 54 q 589 139 589 117 l 589 694 z "},"β":{"ha":790,"x_min":90,"x_max":739,"o":"m 739 290 q 699 125 739 193 q 592 22 658 57 q 444 -14 525 -14 q 313 22 364 -14 q 235 113 263 57 q 197 231 207 169 q 188 346 188 293 l 90 346 l 90 665 q 131 853 90 783 q 243 955 171 924 q 410 986 315 986 q 626 916 554 986 q 697 742 697 846 q 674 644 697 689 q 605 571 650 600 q 497 538 560 542 q 634 499 581 533 q 713 410 688 465 q 739 290 739 356 m 426 576 q 547 623 508 576 q 586 728 586 669 q 568 809 586 775 q 511 862 550 843 q 410 881 472 881 q 326 872 364 881 q 260 841 288 864 q 217 776 232 818 q 201 665 201 733 l 201 346 q 224 219 201 276 q 293 126 247 161 q 410 92 339 92 q 572 145 517 92 q 628 304 628 199 q 603 404 628 364 q 533 465 578 444 q 426 486 488 486 l 294 486 l 294 576 l 426 576 m 90 346 l 176 360 l 201 360 l 201 -278 l 90 -278 l 90 346 z "},"γ":{"ha":686,"x_min":28,"x_max":658,"o":"m 286 83 l 397 83 l 397 -278 l 286 -278 l 286 83 m 358 96 l 325 96 l 538 694 l 658 694 l 394 0 l 290 0 l 28 694 l 149 694 l 358 96 z "},"δ":{"ha":763,"x_min":51,"x_max":707,"o":"m 381 -14 q 207 28 281 -14 q 92 144 133 69 q 51 317 51 218 q 89 485 51 411 q 197 603 126 560 q 367 646 267 646 q 447 632 415 646 q 501 597 479 618 q 535 551 522 575 q 557 507 549 528 l 540 526 q 476 625 519 575 q 375 722 432 675 q 256 807 318 769 q 135 868 193 844 l 207 928 q 422 816 328 886 q 578 660 515 746 q 674 489 642 575 q 707 331 707 403 q 692 219 707 271 q 650 124 678 167 q 582 51 622 82 q 491 3 542 19 q 381 -14 440 -14 m 381 90 q 494 119 446 90 q 569 198 543 147 q 596 317 596 249 q 582 412 596 369 q 540 484 568 454 q 473 530 513 514 q 381 546 433 546 q 263 517 311 546 q 188 436 214 488 q 163 317 163 385 q 190 198 163 249 q 266 119 217 147 q 381 90 315 90 m 667 972 l 667 868 l 135 868 l 135 972 l 667 972 z "},"ε":{"ha":765,"x_min":67,"x_max":728,"o":"m 371 -14 q 217 10 286 -14 q 108 81 149 35 q 67 192 67 126 q 81 254 67 225 q 122 305 96 283 q 183 340 147 326 q 260 357 218 354 q 185 371 218 358 q 129 403 153 383 q 94 449 106 424 q 82 504 82 475 q 123 616 82 571 q 233 685 164 661 q 385 708 301 708 q 535 681 464 708 q 658 599 607 653 q 728 463 710 544 l 615 463 q 567 537 600 506 q 486 586 533 568 q 381 604 439 604 q 243 572 290 604 q 196 497 196 540 q 219 444 196 465 q 283 412 243 422 q 369 401 322 401 l 501 401 l 501 311 l 357 311 q 263 298 303 311 q 202 261 224 285 q 181 206 181 238 q 208 138 181 163 q 278 101 235 113 q 371 90 322 90 q 476 103 428 90 q 562 149 524 117 q 624 233 600 181 l 728 233 q 674 128 710 174 q 591 50 639 82 q 487 2 543 18 q 371 -14 431 -14 z "},"ζ":{"ha":636,"x_min":49,"x_max":650,"o":"m 650 868 q 435 759 526 817 q 282 640 343 701 q 190 511 221 578 q 160 374 160 444 q 177 269 160 311 q 224 201 194 228 q 292 157 254 175 q 369 124 329 139 q 446 90 408 108 q 513 42 483 71 q 561 -31 543 14 q 579 -143 579 -76 l 579 -278 l 468 -278 l 468 -143 q 451 -68 468 -97 q 403 -19 433 -39 q 336 17 374 1 q 258 51 299 33 q 181 92 218 68 q 114 152 144 115 q 66 242 83 189 q 49 374 49 296 q 66 483 49 429 q 115 588 83 538 q 193 685 147 639 q 297 772 239 732 q 423 846 356 813 q 567 903 490 879 l 650 868 m 650 972 l 650 868 l 94 868 l 94 972 l 650 972 z "},"η":{"ha":769,"x_min":90,"x_max":679,"o":"m 90 694 l 201 694 l 201 0 l 90 0 l 90 694 m 440 708 q 540 692 496 708 q 615 643 585 675 q 663 566 646 611 q 679 464 679 521 l 679 -278 l 568 -278 l 568 436 q 531 557 568 517 q 418 597 493 597 q 313 568 361 597 q 233 488 264 539 q 194 371 201 438 l 193 451 q 222 557 200 510 q 276 638 243 604 q 351 690 308 672 q 440 708 393 708 z "},"θ":{"ha":847,"x_min":63,"x_max":785,"o":"m 424 -14 q 226 52 307 -14 q 104 231 146 118 q 63 486 63 344 q 104 741 63 628 q 226 920 146 854 q 424 986 307 986 q 621 920 540 986 q 743 741 701 854 q 785 486 785 628 q 743 231 785 344 q 621 52 701 118 q 424 -14 540 -14 m 424 90 q 530 119 483 90 q 608 200 576 147 q 657 325 640 253 q 674 486 674 397 q 657 647 674 574 q 608 772 640 719 q 530 853 576 825 q 424 882 483 882 q 317 853 364 882 q 239 772 271 825 q 190 647 207 719 q 174 486 174 574 q 190 325 174 397 q 239 200 207 253 q 317 119 271 147 q 424 90 364 90 m 153 550 l 696 550 l 696 446 l 153 446 l 153 550 z "},"ι":{"ha":408,"x_min":118,"x_max":367,"o":"m 367 0 q 225 17 281 -7 q 144 96 169 42 q 118 235 118 150 l 118 694 l 229 694 l 229 235 q 262 130 229 154 q 367 111 294 106 l 367 0 z "},"κ":{"ha":703,"x_min":90,"x_max":689,"o":"m 90 694 l 201 694 l 201 0 l 90 0 l 90 694 m 665 694 l 318 351 l 321 424 l 689 0 l 547 0 l 204 388 l 507 694 l 665 694 z "},"λ":{"ha":686,"x_min":28,"x_max":658,"o":"m 315 599 l 361 599 l 149 0 l 28 0 l 292 694 l 396 694 l 658 0 l 538 0 l 315 599 m 139 972 q 264 937 213 972 q 347 819 315 901 l 396 694 l 315 599 l 250 764 q 202 842 231 815 q 111 868 174 868 l 69 868 l 69 972 l 139 972 z "},"μ":{"ha":863,"x_min":90,"x_max":817,"o":"m 817 -14 q 675 16 731 -14 q 594 102 619 46 q 568 235 568 158 l 568 694 l 679 694 l 679 235 q 694 145 679 175 q 739 106 708 115 q 817 97 769 97 l 817 -14 m 575 324 l 576 285 q 569 233 575 268 q 548 156 563 199 q 506 75 533 114 q 437 11 479 36 q 332 -14 394 -14 q 243 11 281 -14 q 185 85 206 36 l 201 103 l 201 -278 l 90 -278 l 90 694 l 201 694 l 201 261 q 222 163 201 199 q 276 113 242 128 q 354 97 311 97 q 472 133 425 97 q 544 222 519 169 q 575 324 569 275 z "},"ν":{"ha":686,"x_min":28,"x_max":658,"o":"m 358 96 l 325 96 l 538 694 l 658 694 l 394 0 l 290 0 l 28 694 l 149 694 l 358 96 z "},"ξ":{"ha":617,"x_min":57,"x_max":603,"o":"m 57 294 q 74 380 57 342 q 122 447 92 418 q 190 492 151 475 q 269 511 228 508 q 194 531 228 518 q 137 564 161 544 q 100 610 113 583 q 88 671 88 638 q 95 728 88 701 q 121 777 103 754 q 169 817 139 800 q 247 849 200 835 q 357 871 293 863 q 506 882 421 879 l 603 868 q 428 847 500 860 q 313 817 357 835 q 244 778 268 800 q 210 732 219 757 q 201 678 201 707 q 228 605 201 632 q 294 566 254 578 q 375 554 333 554 l 521 554 l 521 464 l 375 464 q 266 445 313 464 q 194 389 219 426 q 168 294 168 351 q 185 226 168 254 q 229 181 201 199 q 292 149 257 163 q 363 119 326 135 q 435 85 400 104 q 499 36 471 65 q 543 -37 526 7 q 560 -143 560 -81 l 560 -278 l 449 -278 l 449 -143 q 428 -58 449 -92 q 372 -3 407 -25 q 294 35 336 18 q 211 72 253 53 q 135 117 169 90 q 78 187 100 144 q 57 294 57 229 m 603 972 l 603 868 l 61 868 l 61 972 l 603 972 z "},"ο":{"ha":781,"x_min":51,"x_max":729,"o":"m 392 -14 q 225 29 303 -14 q 99 153 147 72 q 51 346 51 235 q 99 538 51 457 q 225 664 147 619 q 392 708 303 708 q 558 664 481 708 q 682 538 635 619 q 729 346 729 457 q 682 153 729 235 q 558 29 635 72 q 392 -14 481 -14 m 392 90 q 501 119 450 90 q 585 206 553 149 q 618 346 618 264 q 585 485 618 428 q 501 574 553 543 q 392 604 450 604 q 281 574 333 604 q 196 487 229 544 q 163 346 163 429 q 195 206 163 264 q 281 119 228 149 q 392 90 333 90 z "},"π":{"ha":861,"x_min":69,"x_max":806,"o":"m 194 625 l 306 625 l 306 0 l 194 0 l 194 625 m 806 694 l 806 590 l 69 590 l 69 694 l 806 694 m 668 235 q 681 153 668 182 q 720 117 693 125 q 792 111 747 108 l 792 0 q 679 7 724 -6 q 609 49 635 19 q 572 126 583 79 q 561 235 561 172 l 561 625 l 668 625 l 668 235 z "},"ρ":{"ha":790,"x_min":90,"x_max":739,"o":"m 438 -14 q 313 22 361 -14 q 237 113 264 57 q 199 231 210 169 q 188 346 188 293 l 90 346 q 131 532 90 450 q 243 661 171 614 q 410 708 315 708 q 588 661 514 708 q 700 532 661 614 q 739 346 739 450 q 697 160 739 242 q 587 33 656 79 q 438 -14 518 -14 m 410 92 q 523 124 474 92 q 600 215 572 157 q 628 346 628 272 q 571 530 628 457 q 410 603 514 603 q 301 570 349 603 q 228 480 254 538 q 201 346 201 422 q 224 219 201 276 q 293 126 247 161 q 410 92 339 92 m 90 346 l 190 360 l 201 346 l 201 -278 l 90 -278 l 90 346 z "},"ς":{"ha":758,"x_min":51,"x_max":707,"o":"m 163 374 q 183 269 163 311 q 237 201 203 228 q 313 157 271 175 q 399 124 354 139 q 487 90 444 108 q 563 42 529 71 q 617 -31 597 14 q 638 -143 638 -76 l 638 -278 l 526 -278 l 526 -143 q 506 -68 526 -97 q 452 -19 486 -39 q 376 17 418 1 q 290 51 335 33 q 202 92 244 68 q 126 152 160 115 q 72 242 92 189 q 51 374 51 296 q 99 559 51 485 q 225 671 147 633 q 392 708 303 708 q 538 675 471 708 q 651 581 606 642 q 707 435 696 519 l 606 435 q 524 559 582 514 q 392 604 465 604 q 279 581 332 604 q 194 506 226 557 q 163 374 163 456 z "},"σ":{"ha":781,"x_min":51,"x_max":781,"o":"m 392 -14 q 225 29 303 -14 q 99 153 147 72 q 51 346 51 235 q 99 535 51 457 q 225 653 147 613 q 392 694 303 694 l 406 604 q 497 593 454 604 q 576 562 540 582 q 641 514 613 542 q 689 453 669 486 q 719 382 708 419 q 729 304 729 344 q 682 135 729 207 q 558 25 635 64 q 392 -14 481 -14 m 392 90 q 501 116 450 90 q 585 196 553 142 q 618 332 618 250 q 585 472 618 414 q 501 560 553 529 q 392 590 450 590 q 281 564 333 590 q 196 483 229 538 q 163 346 163 429 q 195 206 163 264 q 281 119 228 149 q 392 90 333 90 m 781 694 l 781 590 l 392 590 l 392 694 l 781 694 z "},"τ":{"ha":486,"x_min":28,"x_max":458,"o":"m 458 694 l 458 590 l 28 590 l 28 694 l 458 694 m 293 235 q 306 153 293 182 q 345 117 318 125 q 417 111 372 108 l 417 0 q 304 7 349 -6 q 234 49 260 19 q 197 126 208 79 q 186 235 186 172 l 186 625 l 293 625 l 293 235 z "},"υ":{"ha":769,"x_min":90,"x_max":679,"o":"m 679 694 l 568 694 l 568 346 q 520 156 568 222 q 386 90 472 90 q 249 156 297 90 q 201 346 201 222 l 201 694 l 90 694 l 90 339 q 171 78 90 171 q 386 -14 251 -14 q 541 28 475 -14 q 643 149 607 69 q 679 339 679 228 l 679 694 z "},"φ":{"ha":969,"x_min":51,"x_max":918,"o":"m 918 347 q 901 470 918 414 q 849 571 883 526 q 763 646 815 615 q 642 692 711 676 q 486 708 572 708 q 329 692 399 708 q 208 646 260 676 q 121 571 156 615 q 69 470 86 526 q 51 347 51 414 q 69 224 51 281 q 121 124 86 168 q 208 49 156 79 q 329 2 260 18 q 486 -14 399 -14 q 642 2 572 -14 q 763 49 711 18 q 849 124 815 79 q 901 224 883 168 q 918 347 918 281 m 163 347 q 196 485 163 428 q 301 574 229 543 q 486 604 372 604 q 669 574 599 604 q 774 485 740 543 q 807 347 807 428 q 774 209 807 267 q 669 121 740 151 q 486 90 599 90 q 301 121 372 90 q 196 209 229 151 q 163 347 163 267 m 540 -278 l 540 972 l 429 972 l 429 -278 l 540 -278 z "},"χ":{"ha":708,"x_min":35,"x_max":674,"o":"m 660 694 l 390 178 l 163 -278 l 35 -278 l 322 260 l 532 694 l 660 694 m 35 694 l 167 694 l 389 257 l 674 -278 l 546 -278 l 314 178 l 35 694 z "},"ψ":{"ha":964,"x_min":90,"x_max":874,"o":"m 874 694 l 763 694 l 763 346 q 731 206 763 264 q 638 119 700 149 q 483 90 576 90 q 327 119 390 90 q 233 206 264 149 q 201 346 201 264 l 201 694 l 90 694 l 90 339 q 117 190 90 256 q 194 78 143 124 q 317 10 244 33 q 483 -14 390 -14 q 649 10 576 -14 q 771 78 721 33 q 847 190 821 124 q 874 339 874 256 l 874 694 m 538 -278 l 538 694 l 426 694 l 426 -278 l 538 -278 z "},"ω":{"ha":1114,"x_min":51,"x_max":1063,"o":"m 790 -14 q 649 31 708 -14 q 560 155 590 75 q 529 339 529 235 l 529 500 l 613 500 l 613 346 q 631 213 613 271 q 687 123 649 156 q 783 90 725 90 q 878 126 842 90 q 933 219 915 161 q 951 346 951 278 q 928 474 951 415 q 859 568 906 532 q 739 604 813 604 l 739 708 q 915 658 843 708 q 1025 526 988 608 q 1063 346 1063 444 q 1031 167 1063 249 q 940 35 1000 85 q 790 -14 879 -14 m 326 -14 q 176 35 238 -14 q 83 167 114 85 q 51 346 51 249 q 89 526 51 444 q 199 658 126 608 q 375 708 272 708 l 375 604 q 256 568 303 604 q 185 474 208 532 q 163 346 163 415 q 181 219 163 278 q 237 126 199 161 q 333 90 275 90 q 428 123 392 90 q 483 213 465 156 q 501 346 501 271 l 501 500 l 585 500 l 585 339 q 554 155 585 235 q 466 31 524 75 q 326 -14 408 -14 z "},"ί":{"ha":408,"x_min":118,"x_max":411,"o":"m 367 0 q 225 17 281 -7 q 144 96 169 42 q 118 235 118 150 l 118 694 l 229 694 l 229 235 q 262 130 229 154 q 367 111 294 106 l 367 0 m 118 835 l 265 1058 l 411 1058 l 217 835 l 118 835 z "},"ϊ":{"ha":408,"x_min":-17,"x_max":374,"o":"m 367 0 q 225 17 281 -7 q 144 96 169 42 q 118 235 118 150 l 118 694 l 229 694 l 229 235 q 262 130 229 154 q 367 111 294 106 l 367 0 m 128 972 l 128 836 l -17 836 l -17 972 l 128 972 m 374 972 l 374 836 l 229 836 l 229 972 l 374 972 z "},"ΐ":{"ha":408,"x_min":-99,"x_max":499,"o":"m 367 0 q 225 17 281 -7 q 144 96 169 42 q 118 235 118 150 l 118 694 l 229 694 l 229 235 q 262 130 229 154 q 367 111 294 106 l 367 0 m 46 972 l 46 836 l -99 836 l -99 972 l 46 972 m 499 972 l 499 836 l 354 836 l 354 972 l 499 972 m 86 832 l 233 1056 l 379 1056 l 185 832 l 86 832 z "},"ύ":{"ha":769,"x_min":90,"x_max":679,"o":"m 679 694 l 568 694 l 568 346 q 520 156 568 222 q 386 90 472 90 q 249 156 297 90 q 201 346 201 222 l 201 694 l 90 694 l 90 339 q 171 78 90 171 q 386 -14 251 -14 q 541 28 475 -14 q 643 149 607 69 q 679 339 679 228 l 679 694 m 331 835 l 478 1058 l 624 1058 l 429 835 l 331 835 z "},"ϋ":{"ha":769,"x_min":90,"x_max":679,"o":"m 679 694 l 568 694 l 568 346 q 520 156 568 222 q 386 90 472 90 q 249 156 297 90 q 201 346 201 222 l 201 694 l 90 694 l 90 339 q 171 78 90 171 q 386 -14 251 -14 q 541 28 475 -14 q 643 149 607 69 q 679 339 679 228 l 679 694 m 335 972 l 335 836 l 190 836 l 190 972 l 335 972 m 581 972 l 581 836 l 436 836 l 436 972 l 581 972 z "},"ΰ":{"ha":769,"x_min":90,"x_max":688,"o":"m 679 694 l 568 694 l 568 346 q 520 156 568 222 q 386 90 472 90 q 249 156 297 90 q 201 346 201 222 l 201 694 l 90 694 l 90 339 q 171 78 90 171 q 386 -14 251 -14 q 541 28 475 -14 q 643 149 607 69 q 679 339 679 228 l 679 694 m 235 972 l 235 836 l 90 836 l 90 972 l 235 972 m 688 972 l 688 836 l 543 836 l 543 972 l 688 972 m 275 832 l 422 1056 l 568 1056 l 374 832 l 275 832 z "},"ό":{"ha":781,"x_min":51,"x_max":729,"o":"m 392 -14 q 225 29 303 -14 q 99 153 147 72 q 51 346 51 235 q 99 538 51 457 q 225 664 147 619 q 392 708 303 708 q 558 664 481 708 q 682 538 635 619 q 729 346 729 457 q 682 153 729 235 q 558 29 635 72 q 392 -14 481 -14 m 392 90 q 501 119 450 90 q 585 206 553 149 q 618 346 618 264 q 585 485 618 428 q 501 574 553 543 q 392 604 450 604 q 281 574 333 604 q 196 487 229 544 q 163 346 163 429 q 195 206 163 264 q 281 119 228 149 q 392 90 333 90 m 336 835 l 483 1058 l 629 1058 l 435 835 l 336 835 z "},"ώ":{"ha":1114,"x_min":51,"x_max":1063,"o":"m 790 -14 q 649 31 708 -14 q 560 155 590 75 q 529 339 529 235 l 529 500 l 613 500 l 613 346 q 631 213 613 271 q 687 123 649 156 q 783 90 725 90 q 878 126 842 90 q 933 219 915 161 q 951 346 951 278 q 928 474 951 415 q 859 568 906 532 q 739 604 813 604 l 739 708 q 915 658 843 708 q 1025 526 988 608 q 1063 346 1063 444 q 1031 167 1063 249 q 940 35 1000 85 q 790 -14 879 -14 m 326 -14 q 176 35 238 -14 q 83 167 114 85 q 51 346 51 249 q 89 526 51 444 q 199 658 126 608 q 375 708 272 708 l 375 604 q 256 568 303 604 q 185 474 208 532 q 163 346 163 415 q 181 219 163 278 q 237 126 199 161 q 333 90 275 90 q 428 123 392 90 q 483 213 465 156 q 501 346 501 271 l 501 500 l 585 500 l 585 339 q 554 155 585 235 q 466 31 524 75 q 326 -14 408 -14 m 501 835 l 649 1058 l 794 1058 l 600 835 l 501 835 z "},"ά":{"ha":790,"x_min":51,"x_max":700,"o":"m 353 -14 q 202 33 271 -14 q 92 160 133 79 q 51 346 51 242 q 93 532 51 450 q 206 661 135 614 q 367 708 278 708 q 515 659 464 708 q 584 528 565 610 q 603 346 603 446 q 592 231 603 293 q 553 113 581 169 q 478 22 526 57 q 353 -14 429 -14 m 381 92 q 498 126 451 92 q 567 219 544 161 q 589 346 589 276 q 566 480 589 422 q 497 570 543 538 q 381 603 450 603 q 219 530 276 603 q 163 346 163 457 q 191 215 163 272 q 269 124 219 157 q 381 92 318 92 m 589 694 l 700 694 l 700 0 l 599 0 q 596 29 599 4 q 591 85 593 54 q 589 139 589 117 l 589 694 m 335 835 l 482 1058 l 628 1058 l 433 835 l 335 835 z "},"έ":{"ha":765,"x_min":67,"x_max":728,"o":"m 371 -14 q 217 10 286 -14 q 108 81 149 35 q 67 192 67 126 q 81 254 67 225 q 122 305 96 283 q 183 340 147 326 q 260 357 218 354 q 185 371 218 358 q 129 403 153 383 q 94 449 106 424 q 82 504 82 475 q 123 616 82 571 q 233 685 164 661 q 385 708 301 708 q 535 681 464 708 q 658 599 607 653 q 728 463 710 544 l 615 463 q 567 537 600 506 q 486 586 533 568 q 381 604 439 604 q 243 572 290 604 q 196 497 196 540 q 219 444 196 465 q 283 412 243 422 q 369 401 322 401 l 501 401 l 501 311 l 357 311 q 263 298 303 311 q 202 261 224 285 q 181 206 181 238 q 208 138 181 163 q 278 101 235 113 q 371 90 322 90 q 476 103 428 90 q 562 149 524 117 q 624 233 600 181 l 728 233 q 674 128 710 174 q 591 50 639 82 q 487 2 543 18 q 371 -14 431 -14 m 329 835 l 476 1058 l 622 1058 l 428 835 l 329 835 z "},"ή":{"ha":769,"x_min":90,"x_max":679,"o":"m 90 694 l 201 694 l 201 0 l 90 0 l 90 694 m 440 708 q 540 692 496 708 q 615 643 585 675 q 663 566 646 611 q 679 464 679 521 l 679 -278 l 568 -278 l 568 436 q 531 557 568 517 q 418 597 493 597 q 313 568 361 597 q 233 488 264 539 q 194 371 201 438 l 193 451 q 222 557 200 510 q 276 638 243 604 q 351 690 308 672 q 440 708 393 708 m 364 835 l 511 1058 l 657 1058 l 463 835 l 364 835 z "},"⁄":{"ha":186,"x_min":-208,"x_max":394,"o":"m 319 972 l 394 931 l -136 -28 l -208 17 l 319 972 z "},"½":{"ha":1100,"x_min":35,"x_max":1044,"o":"m 35 361 l 35 451 l 154 451 l 154 811 l 43 811 l 43 903 l 258 903 l 258 451 l 361 451 l 361 361 l 35 361 m 799 972 l 874 931 l 343 -28 l 271 17 l 799 972 m 1044 0 l 713 0 l 713 90 q 780 160 747 125 q 840 226 813 194 q 890 288 868 258 q 923 342 911 317 q 935 390 935 368 q 867 463 935 463 q 816 442 832 463 q 800 404 800 422 l 714 404 q 730 480 710 446 q 788 533 750 514 q 872 553 825 553 q 958 534 922 553 q 1012 482 993 515 q 1031 404 1031 449 q 1007 309 1031 354 q 947 223 983 264 q 874 143 911 182 l 822 90 l 1044 90 l 1044 0 z "},"↉":{"ha":1142,"x_min":51,"x_max":1090,"o":"m 261 908 q 376 872 329 908 q 446 771 422 835 q 469 628 469 707 q 446 485 469 549 q 376 384 422 421 q 261 347 329 347 q 146 384 193 347 q 75 485 99 421 q 51 628 51 549 q 75 771 51 707 q 146 872 99 835 q 261 908 193 908 m 261 457 q 345 504 315 457 q 375 628 375 551 q 345 752 375 706 q 261 799 315 799 q 176 752 206 799 q 147 628 147 706 q 176 504 147 551 q 261 457 206 457 m 840 972 l 915 931 l 385 -28 l 313 17 l 840 972 m 950 285 q 1026 263 994 279 q 1074 220 1057 247 q 1090 153 1090 193 q 1045 35 1090 83 q 926 -14 1000 -14 q 834 10 874 -14 q 775 72 794 33 q 760 153 756 110 l 843 153 q 864 99 843 121 q 926 78 885 78 q 982 99 965 78 q 999 157 999 121 q 974 216 999 193 q 900 239 949 239 l 868 239 l 868 324 l 900 324 q 970 343 949 324 q 992 397 992 363 q 972 443 992 425 q 921 461 951 461 q 871 443 890 461 q 851 397 851 425 l 767 397 q 781 474 763 439 q 837 531 800 510 q 921 551 874 551 q 1038 508 994 551 q 1082 411 1082 464 q 1048 324 1082 354 q 950 285 1014 293 z "},"⅓":{"ha":1100,"x_min":35,"x_max":1049,"o":"m 35 361 l 35 451 l 154 451 l 154 811 l 43 811 l 43 903 l 258 903 l 258 451 l 361 451 l 361 361 l 35 361 m 799 972 l 874 931 l 343 -28 l 271 17 l 799 972 m 908 285 q 984 263 953 279 q 1032 220 1015 247 q 1049 153 1049 193 q 1003 35 1049 83 q 885 -14 958 -14 q 792 10 832 -14 q 733 72 753 33 q 718 153 714 110 l 801 153 q 822 99 801 121 q 885 78 843 78 q 940 99 924 78 q 957 157 957 121 q 932 216 957 193 q 858 239 907 239 l 826 239 l 826 324 l 858 324 q 928 343 907 324 q 950 397 950 363 q 930 443 950 425 q 879 461 910 461 q 829 443 849 461 q 810 397 810 425 l 725 397 q 740 474 721 439 q 795 531 758 510 q 879 551 832 551 q 997 508 953 551 q 1040 411 1040 464 q 1006 324 1040 354 q 908 285 972 293 z "},"⅔":{"ha":1111,"x_min":44,"x_max":1060,"o":"m 379 361 l 47 361 l 47 451 q 115 522 82 488 q 175 588 147 556 q 224 649 203 619 q 258 703 246 678 q 269 751 269 729 q 201 824 269 824 q 151 803 167 824 q 135 765 135 783 l 49 765 q 65 841 44 807 q 122 894 85 875 q 207 914 160 914 q 292 895 257 914 q 347 843 328 876 q 365 765 365 810 q 342 671 365 717 q 282 584 318 625 q 208 504 246 543 l 157 451 l 379 451 l 379 361 m 810 972 l 885 931 l 354 -28 l 282 17 l 810 972 m 919 285 q 995 263 964 279 q 1043 220 1026 247 q 1060 153 1060 193 q 1015 35 1060 83 q 896 -14 969 -14 q 803 10 843 -14 q 744 72 764 33 q 729 153 725 110 l 813 153 q 833 99 813 121 q 896 78 854 78 q 951 99 935 78 q 968 157 968 121 q 943 216 968 193 q 869 239 918 239 l 838 239 l 838 324 l 869 324 q 940 343 918 324 q 961 397 961 363 q 941 443 961 425 q 890 461 921 461 q 840 443 860 461 q 821 397 821 425 l 736 397 q 751 474 732 439 q 806 531 769 510 q 890 551 843 551 q 1008 508 964 551 q 1051 411 1051 464 q 1017 324 1051 354 q 919 285 983 293 z "},"¼":{"ha":1046,"x_min":35,"x_max":983,"o":"m 35 361 l 35 451 l 154 451 l 154 811 l 43 811 l 43 903 l 258 903 l 258 451 l 361 451 l 361 361 l 35 361 m 799 972 l 874 931 l 343 -28 l 271 17 l 799 972 m 833 0 l 833 106 l 617 106 l 617 189 l 835 542 l 928 542 l 928 196 l 983 196 l 983 106 l 928 106 l 928 0 l 833 0 m 722 196 l 833 196 l 833 390 l 722 196 z "},"¾":{"ha":1001,"x_min":49,"x_max":939,"o":"m 243 646 q 319 624 288 640 q 367 581 350 608 q 383 514 383 554 q 338 396 383 444 q 219 347 293 347 q 127 371 167 347 q 68 433 88 394 q 53 514 49 471 l 136 514 q 157 460 136 482 q 219 439 178 439 q 275 460 258 439 q 292 518 292 482 q 267 577 292 554 q 193 600 242 600 l 161 600 l 161 685 l 193 685 q 263 704 242 685 q 285 758 285 724 q 265 804 285 786 q 214 822 244 822 q 164 804 183 822 q 144 758 144 786 l 60 758 q 74 835 56 800 q 130 892 93 871 q 214 913 167 913 q 331 869 288 913 q 375 772 375 825 q 341 685 375 715 q 243 646 307 654 m 754 972 l 829 931 l 299 -28 l 226 17 l 754 972 m 789 0 l 789 106 l 572 106 l 572 189 l 790 542 l 883 542 l 883 196 l 939 196 l 939 106 l 883 106 l 883 0 l 789 0 m 678 196 l 789 196 l 789 390 l 678 196 z "},"⅕":{"ha":1179,"x_min":35,"x_max":1117,"o":"m 35 361 l 35 451 l 154 451 l 154 811 l 43 811 l 43 903 l 258 903 l 258 451 l 361 451 l 361 361 l 35 361 m 799 972 l 874 931 l 343 -28 l 271 17 l 799 972 m 951 361 q 1038 338 1000 361 q 1096 272 1075 314 q 1117 175 1117 231 q 1066 39 1117 92 q 938 -14 1015 -14 q 843 8 885 -14 q 777 69 801 29 q 749 164 753 110 l 840 164 q 869 104 843 126 q 938 82 896 82 q 1002 107 978 82 q 1026 175 1026 132 q 1003 244 1026 219 q 942 269 981 269 q 901 263 919 269 q 871 244 883 257 q 850 213 858 232 l 764 232 l 783 542 l 1069 542 l 1069 453 l 867 453 l 857 310 q 895 348 872 335 q 951 361 918 361 z "},"⅖":{"ha":1190,"x_min":44,"x_max":1128,"o":"m 379 361 l 47 361 l 47 451 q 115 522 82 488 q 175 588 147 556 q 224 649 203 619 q 258 703 246 678 q 269 751 269 729 q 201 824 269 824 q 151 803 167 824 q 135 765 135 783 l 49 765 q 65 841 44 807 q 122 894 85 875 q 207 914 160 914 q 292 895 257 914 q 347 843 328 876 q 365 765 365 810 q 342 671 365 717 q 282 584 318 625 q 208 504 246 543 l 157 451 l 379 451 l 379 361 m 810 972 l 885 931 l 354 -28 l 282 17 l 810 972 m 963 361 q 1049 338 1011 361 q 1107 272 1086 314 q 1128 175 1128 231 q 1077 39 1128 92 q 949 -14 1026 -14 q 854 8 896 -14 q 788 69 813 29 q 760 164 764 110 l 851 164 q 881 104 854 126 q 949 82 907 82 q 1013 107 989 82 q 1038 175 1038 132 q 1015 244 1038 219 q 953 269 992 269 q 913 263 931 269 q 882 244 894 257 q 861 213 869 232 l 775 232 l 794 542 l 1081 542 l 1081 453 l 878 453 l 868 310 q 906 348 883 335 q 963 361 929 361 z "},"⅗":{"ha":1135,"x_min":49,"x_max":1072,"o":"m 243 646 q 319 624 288 640 q 367 581 350 608 q 383 514 383 554 q 338 396 383 444 q 219 347 293 347 q 127 371 167 347 q 68 433 88 394 q 53 514 49 471 l 136 514 q 157 460 136 482 q 219 439 178 439 q 275 460 258 439 q 292 518 292 482 q 267 577 292 554 q 193 600 242 600 l 161 600 l 161 685 l 193 685 q 263 704 242 685 q 285 758 285 724 q 265 804 285 786 q 214 822 244 822 q 164 804 183 822 q 144 758 144 786 l 60 758 q 74 835 56 800 q 130 892 93 871 q 214 913 167 913 q 331 869 288 913 q 375 772 375 825 q 341 685 375 715 q 243 646 307 654 m 754 972 l 829 931 l 299 -28 l 226 17 l 754 972 m 907 361 q 993 338 956 361 q 1051 272 1031 314 q 1072 175 1072 231 q 1022 39 1072 92 q 893 -14 971 -14 q 799 8 840 -14 q 733 69 757 29 q 704 164 708 110 l 796 164 q 825 104 799 126 q 893 82 851 82 q 958 107 933 82 q 982 175 982 132 q 959 244 982 219 q 897 269 936 269 q 857 263 875 269 q 826 244 839 257 q 806 213 814 232 l 719 232 l 739 542 l 1025 542 l 1025 453 l 822 453 l 813 310 q 851 348 828 335 q 907 361 874 361 z "},"⅘":{"ha":1206,"x_min":63,"x_max":1143,"o":"m 279 361 l 279 467 l 63 467 l 63 550 l 281 903 l 374 903 l 374 557 l 429 557 l 429 467 l 374 467 l 374 361 l 279 361 m 168 557 l 279 557 l 279 751 l 168 557 m 825 972 l 900 931 l 369 -28 l 297 17 l 825 972 m 978 361 q 1064 338 1026 361 q 1122 272 1101 314 q 1143 175 1143 231 q 1092 39 1143 92 q 964 -14 1042 -14 q 869 8 911 -14 q 803 69 828 29 q 775 164 779 110 l 867 164 q 896 104 869 126 q 964 82 922 82 q 1028 107 1004 82 q 1053 175 1053 132 q 1030 244 1053 219 q 968 269 1007 269 q 928 263 946 269 q 897 244 910 257 q 876 213 885 232 l 790 232 l 810 542 l 1096 542 l 1096 453 l 893 453 l 883 310 q 922 348 899 335 q 978 361 944 361 z "},"⅙":{"ha":1097,"x_min":35,"x_max":1046,"o":"m 35 361 l 35 451 l 154 451 l 154 811 l 43 811 l 43 903 l 258 903 l 258 451 l 361 451 l 361 361 l 35 361 m 799 972 l 874 931 l 343 -28 l 271 17 l 799 972 m 876 364 q 998 309 950 364 q 1046 174 1046 254 q 994 38 1046 90 q 867 -14 942 -14 q 769 11 811 -14 q 703 78 726 36 q 679 167 679 119 q 685 216 679 193 q 700 265 690 239 q 720 313 706 281 q 753 384 735 346 q 788 458 771 422 q 817 517 806 494 q 828 540 828 540 l 933 540 l 831 349 q 851 360 840 357 q 876 364 863 364 m 867 79 q 931 107 907 79 q 954 178 954 135 q 930 249 954 221 q 864 276 906 276 q 796 249 822 276 q 769 178 769 221 q 797 108 769 136 q 867 79 824 79 z "},"⅚":{"ha":1132,"x_min":83,"x_max":1081,"o":"m 286 722 q 372 699 335 722 q 431 633 410 675 q 451 536 451 592 q 401 400 451 453 q 272 347 350 347 q 178 369 219 347 q 112 431 136 392 q 83 525 88 471 l 175 525 q 204 465 178 488 q 272 443 231 443 q 337 468 313 443 q 361 536 361 493 q 338 606 361 581 q 276 631 315 631 q 236 624 254 631 q 206 606 218 618 q 185 574 193 593 l 99 593 l 118 903 l 404 903 l 404 814 l 201 814 l 192 671 q 230 709 207 696 q 286 722 253 722 m 833 972 l 908 931 l 378 -28 l 306 17 l 833 972 m 911 364 q 1033 309 985 364 q 1081 174 1081 254 q 1028 38 1081 90 q 901 -14 976 -14 q 803 11 846 -14 q 738 78 761 36 q 714 167 714 119 q 719 216 714 193 q 735 265 725 239 q 755 313 740 281 q 788 384 769 346 q 823 458 806 422 q 851 517 840 494 q 863 540 863 540 l 968 540 l 865 349 q 886 360 875 357 q 911 364 897 364 m 901 79 q 965 107 942 79 q 989 178 989 135 q 965 249 989 221 q 899 276 940 276 q 831 249 857 276 q 804 178 804 221 q 831 108 804 136 q 901 79 858 79 z "},"⅐":{"ha":1097,"x_min":35,"x_max":1069,"o":"m 35 361 l 35 451 l 154 451 l 154 811 l 43 811 l 43 903 l 258 903 l 258 451 l 361 451 l 361 361 l 35 361 m 799 972 l 874 931 l 343 -28 l 271 17 l 799 972 m 763 454 l 763 542 l 1069 542 l 1069 463 l 889 0 l 799 0 l 974 454 l 763 454 z "},"⅛":{"ha":1108,"x_min":35,"x_max":1060,"o":"m 35 361 l 35 451 l 154 451 l 154 811 l 43 811 l 43 903 l 258 903 l 258 451 l 361 451 l 361 361 l 35 361 m 799 972 l 874 931 l 343 -28 l 271 17 l 799 972 m 978 282 q 1022 253 1004 272 q 1050 209 1040 235 q 1060 153 1060 183 q 1037 66 1060 104 q 975 7 1014 28 q 886 -14 936 -14 q 797 7 836 -14 q 736 66 758 28 q 714 153 714 104 q 724 209 714 183 q 751 253 733 235 q 794 282 769 272 q 757 308 772 292 q 733 347 742 324 q 725 396 725 369 q 771 506 725 463 q 886 550 817 550 q 1002 506 957 550 q 1047 396 1047 463 q 1029 326 1047 356 q 978 282 1011 296 m 886 458 q 836 440 856 458 q 817 392 817 421 q 837 342 817 361 q 886 324 857 324 q 937 342 917 324 q 957 392 957 361 q 937 440 957 421 q 886 458 917 458 m 886 74 q 945 96 922 74 q 968 153 968 118 q 945 211 968 189 q 886 233 922 233 q 828 211 851 233 q 806 153 806 189 q 828 96 806 118 q 886 74 851 74 z "},"⅜":{"ha":1064,"x_min":49,"x_max":1015,"o":"m 243 646 q 319 624 288 640 q 367 581 350 608 q 383 514 383 554 q 338 396 383 444 q 219 347 293 347 q 127 371 167 347 q 68 433 88 394 q 53 514 49 471 l 136 514 q 157 460 136 482 q 219 439 178 439 q 275 460 258 439 q 292 518 292 482 q 267 577 292 554 q 193 600 242 600 l 161 600 l 161 685 l 193 685 q 263 704 242 685 q 285 758 285 724 q 265 804 285 786 q 214 822 244 822 q 164 804 183 822 q 144 758 144 786 l 60 758 q 74 835 56 800 q 130 892 93 871 q 214 913 167 913 q 331 869 288 913 q 375 772 375 825 q 341 685 375 715 q 243 646 307 654 m 754 972 l 829 931 l 299 -28 l 226 17 l 754 972 m 933 282 q 978 253 960 272 q 1006 209 996 235 q 1015 153 1015 183 q 992 66 1015 104 q 931 7 969 28 q 842 -14 892 -14 q 753 7 792 -14 q 692 66 714 28 q 669 153 669 104 q 679 209 669 183 q 707 253 689 235 q 750 282 725 272 q 713 308 728 292 q 689 347 697 324 q 681 396 681 369 q 726 506 681 463 q 842 550 772 550 q 958 506 913 550 q 1003 396 1003 463 q 985 326 1003 356 q 933 282 967 296 m 842 458 q 792 440 811 458 q 772 392 772 421 q 792 342 772 361 q 842 324 813 324 q 892 342 872 324 q 913 392 913 361 q 892 440 913 421 q 842 458 872 458 m 842 74 q 901 96 878 74 q 924 153 924 118 q 901 211 924 189 q 842 233 878 233 q 784 211 807 233 q 761 153 761 189 q 784 96 761 118 q 842 74 807 74 z "},"⅝":{"ha":1143,"x_min":83,"x_max":1094,"o":"m 286 722 q 372 699 335 722 q 431 633 410 675 q 451 536 451 592 q 401 400 451 453 q 272 347 350 347 q 178 369 219 347 q 112 431 136 392 q 83 525 88 471 l 175 525 q 204 465 178 488 q 272 443 231 443 q 337 468 313 443 q 361 536 361 493 q 338 606 361 581 q 276 631 315 631 q 236 624 254 631 q 206 606 218 618 q 185 574 193 593 l 99 593 l 118 903 l 404 903 l 404 814 l 201 814 l 192 671 q 230 709 207 696 q 286 722 253 722 m 833 972 l 908 931 l 378 -28 l 306 17 l 833 972 m 1013 282 q 1057 253 1039 272 q 1085 209 1075 235 q 1094 153 1094 183 q 1072 66 1094 104 q 1010 7 1049 28 q 921 -14 971 -14 q 832 7 871 -14 q 771 66 793 28 q 749 153 749 104 q 758 209 749 183 q 786 253 768 235 q 829 282 804 272 q 792 308 807 292 q 768 347 776 324 q 760 396 760 369 q 806 506 760 463 q 921 550 851 550 q 1037 506 992 550 q 1082 396 1082 463 q 1064 326 1082 356 q 1013 282 1046 296 m 921 458 q 871 440 890 458 q 851 392 851 421 q 872 342 851 361 q 921 324 892 324 q 972 342 951 324 q 992 392 992 361 q 972 440 992 421 q 921 458 951 458 m 921 74 q 980 96 957 74 q 1003 153 1003 118 q 980 211 1003 189 q 921 233 957 233 q 863 211 886 233 q 840 153 840 189 q 863 96 840 118 q 921 74 886 74 z "},"⅞":{"ha":950,"x_min":28,"x_max":901,"o":"m 28 815 l 28 903 l 335 903 l 335 824 l 154 361 l 64 361 l 239 815 l 28 815 m 640 972 l 715 931 l 185 -28 l 113 17 l 640 972 m 819 282 q 864 253 846 272 q 892 209 882 235 q 901 153 901 183 q 878 66 901 104 q 817 7 856 28 q 728 -14 778 -14 q 639 7 678 -14 q 578 66 600 28 q 556 153 556 104 q 565 209 556 183 q 593 253 575 235 q 636 282 611 272 q 599 308 614 292 q 575 347 583 324 q 567 396 567 369 q 613 506 567 463 q 728 550 658 550 q 844 506 799 550 q 889 396 889 463 q 871 326 889 356 q 819 282 853 296 m 728 458 q 678 440 697 458 q 658 392 658 421 q 678 342 658 361 q 728 324 699 324 q 778 342 758 324 q 799 392 799 361 q 778 440 799 421 q 728 458 758 458 m 728 74 q 787 96 764 74 q 810 153 810 118 q 787 211 810 189 q 728 233 764 233 q 670 211 693 233 q 647 153 647 189 q 670 96 647 118 q 728 74 693 74 z "},"⅑":{"ha":1125,"x_min":35,"x_max":1083,"o":"m 35 361 l 35 451 l 154 451 l 154 811 l 43 811 l 43 903 l 258 903 l 258 451 l 361 451 l 361 361 l 35 361 m 799 972 l 874 931 l 343 -28 l 271 17 l 799 972 m 903 551 q 997 526 956 551 q 1060 460 1038 501 q 1083 371 1083 419 q 1078 322 1083 344 q 1063 272 1074 299 q 1042 225 1057 257 q 1010 155 1028 193 q 974 81 992 117 q 946 23 957 46 q 935 0 935 0 l 829 0 l 932 188 q 912 177 922 181 q 886 174 901 174 q 765 228 813 174 q 717 364 717 283 q 769 499 717 447 q 903 551 822 551 m 899 261 q 967 290 940 261 q 993 361 993 318 q 967 431 993 403 q 899 458 940 458 q 832 431 856 458 q 808 361 808 404 q 833 290 808 318 q 899 261 857 261 z "},"⅒":{"ha":1593,"x_min":35,"x_max":1544,"o":"m 35 361 l 35 451 l 154 451 l 154 811 l 43 811 l 43 903 l 258 903 l 258 451 l 361 451 l 361 361 l 35 361 m 799 972 l 874 931 l 343 -28 l 271 17 l 799 972 m 769 0 l 769 90 l 889 90 l 889 450 l 778 450 l 778 542 l 993 542 l 993 90 l 1096 90 l 1096 0 l 769 0 m 1336 547 q 1451 510 1404 547 q 1521 410 1497 474 q 1544 267 1544 346 q 1521 124 1544 188 q 1451 24 1497 61 q 1336 -14 1404 -14 q 1221 24 1268 -14 q 1150 124 1174 61 q 1126 267 1126 188 q 1150 410 1126 346 q 1221 510 1174 474 q 1336 547 1268 547 m 1336 96 q 1420 143 1390 96 q 1450 267 1450 190 q 1420 391 1450 344 q 1336 438 1390 438 q 1251 391 1281 438 q 1222 267 1222 344 q 1251 143 1222 190 q 1336 96 1281 96 z "},"¹":{"ha":329,"x_min":56,"x_max":260,"o":"m 56 883 l 56 972 l 260 972 l 260 556 l 165 556 l 165 883 l 56 883 z "},"²":{"ha":463,"x_min":63,"x_max":393,"o":"m 199 640 l 393 644 l 393 556 l 82 556 l 82 643 q 196 723 149 693 q 267 776 243 753 q 292 829 292 799 q 275 872 292 856 q 226 889 258 889 q 174 865 193 889 q 165 808 156 842 l 74 808 q 81 897 63 857 q 140 962 100 938 q 233 986 181 986 q 352 944 311 986 q 393 843 393 901 q 342 728 393 772 q 199 640 290 683 z "},"³":{"ha":456,"x_min":65,"x_max":386,"o":"m 289 763 q 386 657 386 742 q 349 570 386 610 q 231 531 313 531 q 103 578 142 531 q 69 686 65 626 l 161 686 q 173 648 160 668 q 231 628 186 628 q 276 643 263 628 q 290 681 290 658 q 224 728 290 728 l 147 728 l 147 796 l 224 796 q 271 810 257 796 q 285 846 285 824 q 228 892 285 892 q 174 875 189 892 q 161 840 160 858 l 76 840 q 107 942 67 899 q 231 986 147 986 q 342 951 304 986 q 381 861 381 915 q 359 800 381 826 q 289 763 338 774 z "},"⁴":{"ha":436,"x_min":56,"x_max":408,"o":"m 353 744 l 408 744 l 408 661 l 353 661 l 353 556 l 265 556 l 265 661 l 56 661 l 56 744 l 260 976 l 353 976 l 353 744 m 265 744 l 265 869 l 157 744 l 265 744 z "},"\r":{"ha":833,"x_min":0,"x_max":0,"o":""}," ":{"ha":292,"x_min":0,"x_max":0,"o":""}," ":{"ha":292,"x_min":0,"x_max":0,"o":""},"·":{"ha":325,"x_min":90,"x_max":235,"o":"m 235 694 l 235 558 l 90 558 l 90 694 l 235 694 z "},";":{"ha":331,"x_min":90,"x_max":240,"o":"m 238 675 l 238 539 l 93 539 l 93 675 l 238 675 m 131 -197 l 101 -167 q 140 -90 124 -128 q 158 -15 157 -51 l 90 0 l 90 135 l 240 135 l 240 38 q 206 -101 240 -47 q 131 -197 172 -156 z "},".":{"ha":325,"x_min":90,"x_max":235,"o":"m 235 136 l 235 0 l 90 0 l 90 136 l 235 136 z "},",":{"ha":275,"x_min":63,"x_max":213,"o":"m 103 -197 l 74 -167 q 113 -90 96 -128 q 131 -15 129 -51 l 63 0 l 63 135 l 213 135 l 213 38 q 178 -101 213 -47 q 103 -197 144 -156 z "},":":{"ha":381,"x_min":104,"x_max":249,"o":"m 249 136 l 249 0 l 104 0 l 104 136 l 249 136 m 249 676 l 249 540 l 104 540 l 104 676 l 249 676 z "},";":{"ha":331,"x_min":90,"x_max":240,"o":"m 238 675 l 238 539 l 93 539 l 93 675 l 238 675 m 131 -197 l 101 -167 q 140 -90 124 -128 q 158 -15 157 -51 l 90 0 l 90 135 l 240 135 l 240 38 q 206 -101 240 -47 q 131 -197 172 -156 z "},"…":{"ha":844,"x_min":90,"x_max":754,"o":"m 754 136 l 754 0 l 610 0 l 610 136 l 754 136 m 235 136 l 235 0 l 90 0 l 90 136 l 235 136 m 496 136 l 496 0 l 351 0 l 351 136 l 496 136 z "},"!":{"ha":367,"x_min":111,"x_max":256,"o":"m 129 972 l 238 972 l 238 279 l 129 279 l 129 972 m 256 136 l 256 0 l 111 0 l 111 136 l 256 136 z "},"¡":{"ha":367,"x_min":111,"x_max":256,"o":"m 129 -165 l 129 528 l 238 528 l 238 -165 l 129 -165 m 256 671 l 111 671 l 111 807 l 256 807 l 256 671 z "},"?":{"ha":731,"x_min":83,"x_max":647,"o":"m 282 279 l 282 519 l 315 519 q 481 569 426 519 q 536 706 536 618 q 488 835 536 788 q 364 882 439 882 q 276 861 315 882 q 216 803 238 840 q 194 714 194 765 l 83 714 q 97 801 83 760 q 135 876 110 842 q 197 934 161 910 q 276 972 232 958 q 371 986 319 986 q 485 965 435 986 q 572 906 536 944 q 628 817 608 868 q 647 707 647 767 q 614 565 647 624 q 523 474 581 507 q 393 432 465 440 l 393 279 l 282 279 m 265 0 l 265 136 l 408 136 l 408 0 l 265 0 z "},"¿":{"ha":731,"x_min":83,"x_max":647,"o":"m 322 671 l 322 807 l 467 807 l 467 671 l 322 671 m 536 93 l 647 93 q 634 6 647 47 q 595 -69 621 -35 q 534 -127 569 -103 q 455 -165 499 -151 q 360 -179 411 -179 q 245 -158 296 -179 q 158 -99 194 -137 q 103 -10 122 -61 q 83 100 83 40 q 117 242 83 185 q 208 333 150 300 q 339 375 267 367 l 339 528 l 450 528 l 450 288 l 417 288 q 249 238 304 288 q 194 101 194 189 q 244 -28 194 19 q 367 -75 293 -75 q 455 -54 417 -75 q 515 5 493 -33 q 536 93 536 43 z "},"·":{"ha":325,"x_min":90,"x_max":235,"o":"m 235 447 l 235 311 l 90 311 l 90 447 l 235 447 z "},"•":{"ha":619,"x_min":139,"x_max":481,"o":"m 139 535 l 481 535 l 481 193 l 139 193 l 139 535 z "},"*":{"ha":597,"x_min":69,"x_max":528,"o":"m 497 872 l 528 779 l 383 732 l 482 594 l 403 536 l 299 681 l 193 536 l 114 594 l 211 729 l 69 776 l 100 869 l 250 821 l 250 986 l 347 986 l 347 824 l 497 872 z "},"#":{"ha":958,"x_min":97,"x_max":861,"o":"m 581 875 l 669 875 l 669 28 l 581 28 l 581 875 m 297 875 l 386 875 l 386 28 l 297 28 l 297 875 m 861 342 l 861 250 l 97 250 l 97 342 l 861 342 m 861 653 l 861 561 l 97 561 l 97 653 l 861 653 z "},"/":{"ha":579,"x_min":42,"x_max":538,"o":"m 439 1003 l 538 968 l 139 -126 l 42 -90 l 439 1003 z "},"\\":{"ha":579,"x_min":42,"x_max":538,"o":"m 139 1003 l 538 -90 l 439 -126 l 42 968 l 139 1003 z "},"-":{"ha":625,"x_min":111,"x_max":514,"o":"m 111 426 l 514 426 l 514 324 l 111 324 l 111 426 z "},"­":{"ha":833,"x_min":111,"x_max":514,"o":"m 111 426 l 514 426 l 514 324 l 111 324 l 111 426 z "},"–":{"ha":778,"x_min":111,"x_max":667,"o":"m 111 429 l 667 429 l 667 322 l 111 322 l 111 429 z "},"—":{"ha":1111,"x_min":83,"x_max":1028,"o":"m 83 431 l 1028 431 l 1028 324 l 83 324 l 83 431 z "},"_":{"ha":1097,"x_min":111,"x_max":986,"o":"m 111 -171 l 986 -171 l 986 -278 l 111 -278 l 111 -171 z "},"(":{"ha":424,"x_min":69,"x_max":354,"o":"m 354 -121 l 263 -185 q 243 -160 263 -185 q 195 -86 224 -135 q 138 33 167 -37 q 89 194 108 103 q 69 397 69 286 q 89 600 69 508 q 138 762 108 692 q 195 881 167 832 q 243 954 224 929 q 263 979 263 979 l 354 915 q 328 881 354 915 q 267 781 301 847 q 207 619 233 715 q 181 397 181 522 q 198 215 181 297 q 242 71 215 133 q 294 -35 268 8 q 337 -99 319 -78 q 354 -121 354 -121 z "},")":{"ha":424,"x_min":69,"x_max":354,"o":"m 69 -121 q 87 -99 69 -121 q 131 -35 104 -78 q 183 71 157 8 q 226 215 208 133 q 243 397 243 297 q 217 619 243 522 q 156 781 190 715 q 96 881 122 847 q 69 915 69 915 l 161 979 q 181 954 161 979 q 229 881 200 929 q 287 762 258 832 q 335 600 315 692 q 354 397 354 508 q 335 194 354 286 q 286 33 315 103 q 228 -86 257 -37 q 181 -160 200 -135 q 161 -185 161 -185 l 69 -121 z "},"{":{"ha":582,"x_min":81,"x_max":460,"o":"m 164 1111 l 460 1111 l 460 1000 l 288 1000 q 301 909 288 957 q 333 813 315 861 q 365 717 351 764 q 379 626 379 669 q 355 526 379 568 q 284 460 331 485 q 172 424 238 435 l 172 440 q 284 405 238 431 q 355 338 331 379 q 379 238 379 297 q 365 147 379 194 q 333 51 351 100 q 301 -44 315 3 q 288 -136 288 -92 l 460 -136 l 460 -247 l 164 -247 q 167 -112 153 -182 q 205 24 181 -43 q 249 146 229 90 q 268 238 268 201 q 222 338 268 299 q 81 376 175 376 l 81 488 q 222 526 175 488 q 268 626 268 565 q 249 718 268 663 q 205 840 229 774 q 167 977 181 907 q 164 1111 153 1047 z "},"}":{"ha":582,"x_min":122,"x_max":501,"o":"m 314 626 q 361 526 314 565 q 501 488 408 488 l 501 376 q 361 338 408 376 q 314 238 314 299 q 334 146 314 201 q 378 24 354 90 q 415 -112 401 -43 q 418 -247 429 -182 l 122 -247 l 122 -136 l 294 -136 q 281 -44 294 -92 q 249 51 267 3 q 217 147 231 100 q 203 238 203 194 q 227 338 203 297 q 298 405 251 379 q 410 440 344 431 l 410 424 q 298 460 344 435 q 227 526 251 485 q 203 626 203 568 q 217 717 203 669 q 249 813 231 764 q 281 909 267 861 q 294 1000 294 957 l 122 1000 l 122 1111 l 418 1111 q 415 977 429 1047 q 378 840 401 907 q 334 718 354 774 q 314 626 314 663 z "},"[":{"ha":476,"x_min":122,"x_max":396,"o":"m 396 -136 l 396 -247 l 122 -247 l 122 1111 l 396 1111 l 396 1000 l 233 1000 l 233 -136 l 396 -136 z "},"]":{"ha":482,"x_min":83,"x_max":357,"o":"m 83 -135 l 246 -135 l 246 1000 l 83 1000 l 83 1111 l 357 1111 l 357 -246 l 83 -246 l 83 -135 z "},"‚":{"ha":275,"x_min":63,"x_max":213,"o":"m 103 -197 l 74 -167 q 113 -90 96 -128 q 131 -15 129 -51 l 63 0 l 63 135 l 213 135 l 213 38 q 178 -101 213 -47 q 103 -197 144 -156 z "},"„":{"ha":483,"x_min":63,"x_max":421,"o":"m 103 -197 l 74 -167 q 113 -90 96 -128 q 131 -15 129 -51 l 63 0 l 63 135 l 213 135 l 213 38 q 178 -101 213 -47 q 103 -197 144 -156 m 311 -197 l 282 -167 q 321 -90 304 -128 q 339 -15 338 -51 l 271 0 l 271 135 l 421 135 l 421 38 q 387 -101 421 -47 q 311 -197 353 -156 z "},"“":{"ha":483,"x_min":63,"x_max":421,"o":"m 171 971 l 201 940 q 163 863 179 901 q 143 789 146 825 l 213 774 l 213 639 l 63 639 l 63 736 q 97 876 63 822 q 171 971 131 929 m 379 971 l 410 940 q 371 863 388 901 q 351 789 354 825 l 421 774 l 421 639 l 271 639 l 271 736 q 305 876 271 822 q 379 971 339 929 z "},"”":{"ha":483,"x_min":63,"x_max":421,"o":"m 103 571 l 74 601 q 113 678 96 640 q 131 753 129 717 l 63 768 l 63 903 l 213 903 l 213 806 q 178 667 213 721 q 103 571 144 613 m 311 571 l 282 601 q 321 678 304 640 q 339 753 338 717 l 271 768 l 271 903 l 421 903 l 421 806 q 387 667 421 721 q 311 571 353 613 z "},"‘":{"ha":275,"x_min":63,"x_max":213,"o":"m 171 971 l 201 940 q 163 863 179 901 q 143 789 146 825 l 213 774 l 213 639 l 63 639 l 63 736 q 97 876 63 822 q 171 971 131 929 z "},"’":{"ha":275,"x_min":63,"x_max":213,"o":"m 103 571 l 74 601 q 113 678 96 640 q 131 753 129 717 l 63 768 l 63 903 l 213 903 l 213 806 q 178 667 213 721 q 103 571 144 613 z "},"«":{"ha":692,"x_min":58,"x_max":567,"o":"m 375 732 l 451 656 l 194 388 l 451 119 l 375 43 l 58 388 l 375 732 m 493 543 l 567 469 l 486 388 l 567 306 l 493 232 l 351 388 l 493 543 z "},"»":{"ha":703,"x_min":111,"x_max":619,"o":"m 226 656 l 303 732 l 619 388 l 303 43 l 226 119 l 483 388 l 226 656 m 111 469 l 185 543 l 326 388 l 185 232 l 111 306 l 192 388 l 111 469 z "},"‹":{"ha":546,"x_min":83,"x_max":476,"o":"m 83 388 l 400 732 l 476 656 l 160 325 l 83 388 m 83 388 l 160 450 l 476 119 l 400 43 l 83 388 z "},"›":{"ha":546,"x_min":69,"x_max":463,"o":"m 463 388 l 386 325 l 69 656 l 146 732 l 463 388 m 463 388 l 146 43 l 69 119 l 386 450 l 463 388 z "},"\"":{"ha":438,"x_min":63,"x_max":375,"o":"m 154 619 l 92 619 l 63 796 l 63 903 l 185 903 l 185 796 l 154 619 m 344 619 l 282 619 l 253 796 l 253 903 l 375 903 l 375 796 l 344 619 z "},"'":{"ha":247,"x_min":63,"x_max":185,"o":"m 154 619 l 92 619 l 63 796 l 63 903 l 185 903 l 185 796 l 154 619 z "},"ƒ":{"ha":1032,"x_min":56,"x_max":976,"o":"m 732 917 q 859 884 804 917 q 945 797 914 851 q 976 672 976 742 l 865 672 q 829 774 865 735 q 732 813 793 813 q 676 801 704 813 q 625 761 649 790 q 587 677 601 732 q 572 533 572 622 l 572 343 q 538 133 572 211 q 445 20 503 54 q 314 -14 388 -14 q 184 19 243 -14 q 90 107 125 51 q 56 232 56 163 l 167 232 q 210 130 167 169 q 314 90 253 90 q 385 110 351 90 q 440 185 418 131 q 461 343 461 239 l 461 533 q 499 763 461 679 q 598 881 536 846 q 732 917 660 917 m 300 510 l 758 510 l 758 413 l 300 413 l 300 510 z "},"":{"ha":1194,"x_min":42,"x_max":1153,"o":"m 597 -14 q 378 19 479 -14 q 201 113 276 51 q 83 260 125 174 q 42 451 42 346 q 83 644 42 558 q 201 790 125 729 q 378 884 276 851 q 597 917 479 917 q 817 884 717 917 q 994 790 918 851 q 1111 644 1069 729 q 1153 451 1153 558 q 1111 260 1153 346 q 994 113 1069 174 q 817 19 918 51 q 597 -14 717 -14 m 450 74 q 378 143 408 101 q 325 232 347 185 q 228 192 267 217 q 326 119 269 149 q 450 74 383 89 m 197 228 q 306 283 239 263 q 289 354 296 319 q 281 424 282 389 l 128 424 q 149 317 131 365 q 197 228 167 268 m 567 65 l 567 257 q 465 253 511 256 q 379 243 418 250 q 454 126 407 175 q 567 65 501 76 m 128 479 l 279 479 q 307 628 283 556 q 201 681 243 649 q 150 590 169 640 q 128 479 131 539 m 361 299 q 456 312 404 307 q 567 318 507 317 l 567 424 l 340 424 q 361 299 344 358 m 629 65 q 741 125 694 76 q 815 242 788 174 q 731 252 776 249 q 629 257 685 256 l 629 65 m 340 479 l 567 479 l 567 594 q 456 601 507 596 q 361 614 404 606 q 340 479 344 550 m 744 74 q 965 190 878 103 q 922 213 946 203 q 868 231 899 224 q 816 142 847 183 q 744 74 785 101 m 326 679 q 376 763 347 725 q 444 828 406 801 q 233 717 317 799 q 326 679 271 693 m 833 297 q 847 360 842 328 q 854 424 853 393 l 629 424 l 629 318 q 833 297 747 317 m 567 656 l 567 839 q 455 783 501 829 q 381 669 408 736 q 465 660 418 664 q 567 656 511 657 m 629 479 l 854 479 q 847 549 853 515 q 832 615 842 583 q 629 594 749 597 l 629 479 m 996 225 q 1045 315 1026 265 q 1067 424 1064 365 l 914 424 q 906 353 913 389 q 888 282 899 318 q 947 258 921 272 q 996 225 974 243 m 629 656 q 730 660 685 657 q 814 671 775 664 q 740 783 786 736 q 629 839 694 829 l 629 656 m 915 479 l 1067 479 q 1044 592 1064 540 q 990 683 1024 643 q 944 654 969 667 q 888 631 918 642 q 915 479 911 556 m 867 682 q 917 699 894 689 q 958 719 940 708 q 750 828 875 799 q 818 764 789 801 q 867 682 847 726 z "},"@":{"ha":1222,"x_min":83,"x_max":1146,"o":"m 622 -56 q 340 6 461 -56 q 151 181 218 68 q 83 449 83 294 q 151 715 83 604 q 339 885 218 825 q 622 944 460 944 q 902 885 785 944 q 1083 719 1019 826 q 1146 463 1146 611 q 1128 350 1146 401 q 1071 268 1110 299 q 967 238 1032 238 q 891 250 924 238 q 836 284 858 263 q 803 331 814 306 q 792 381 792 356 l 792 690 l 903 690 l 903 449 q 909 388 903 414 q 931 349 915 363 q 975 335 947 335 q 1019 349 1004 335 q 1040 392 1035 364 q 1046 463 1046 421 q 1017 624 1046 553 q 935 744 989 694 q 801 819 881 793 q 622 844 722 844 q 440 819 521 844 q 302 742 360 793 q 214 618 244 692 q 183 449 183 544 q 238 231 183 322 q 390 92 292 140 q 622 44 489 44 q 731 52 681 44 q 823 74 781 60 q 900 110 865 89 l 946 22 q 854 -20 904 -3 q 747 -47 804 -37 q 622 -56 689 -56 m 575 163 q 438 199 497 163 q 347 299 379 236 q 315 439 315 363 q 348 588 315 522 q 442 693 381 654 q 589 732 504 732 q 717 691 669 732 q 785 583 764 650 q 806 439 806 517 q 793 360 806 407 q 753 269 781 314 q 683 193 726 224 q 575 163 639 163 m 603 269 q 684 284 649 269 q 743 323 719 299 q 779 378 767 347 q 792 439 792 408 q 779 515 792 481 q 742 573 767 549 q 683 610 718 597 q 603 624 647 624 q 467 572 507 624 q 426 439 426 519 q 472 319 426 369 q 603 269 517 269 z "},"&":{"ha":813,"x_min":51,"x_max":771,"o":"m 288 -14 q 196 3 239 -14 q 120 51 153 21 q 69 124 88 82 q 51 217 51 167 q 75 325 51 278 q 140 405 99 372 q 233 456 181 438 q 340 479 285 475 l 344 472 q 246 487 292 475 q 165 522 200 499 q 111 583 131 546 q 92 672 92 619 q 126 797 92 742 q 224 884 160 851 q 374 917 288 917 q 476 901 431 917 q 554 857 522 886 q 603 785 586 828 q 621 686 621 742 l 524 686 q 483 781 524 749 q 371 813 443 813 q 247 774 290 813 q 203 671 203 735 q 224 592 203 626 q 285 540 246 558 q 378 521 325 521 l 771 521 l 771 417 l 635 417 l 635 0 l 533 0 q 527 83 529 47 q 524 159 525 119 q 524 256 524 199 l 531 240 q 503 143 522 189 q 455 62 485 97 q 383 6 425 26 q 288 -14 342 -14 m 324 93 q 431 128 386 93 q 499 217 475 163 q 524 331 524 272 l 524 417 l 378 417 q 220 370 278 417 q 163 246 163 324 q 205 133 163 174 q 324 93 247 93 z "},"¶":{"ha":789,"x_min":42,"x_max":678,"o":"m 678 903 l 678 0 l 569 0 l 569 372 l 494 372 l 494 0 l 386 0 l 386 372 l 326 372 q 185 404 250 372 q 81 496 121 436 q 42 638 42 556 q 81 779 42 719 q 185 871 121 839 q 326 903 250 903 l 678 903 m 335 479 l 569 479 l 569 796 l 335 796 q 206 760 258 796 q 153 638 153 724 q 206 515 153 551 q 335 479 258 479 z "},"§":{"ha":599,"x_min":46,"x_max":543,"o":"m 346 322 l 390 329 q 506 254 468 294 q 543 146 543 214 q 483 4 543 58 q 328 -50 422 -50 q 188 -22 243 -50 q 101 48 132 7 q 58 128 69 89 q 47 188 46 167 l 150 188 q 205 97 163 136 q 319 57 247 58 q 403 81 375 56 q 432 146 432 107 q 413 200 432 181 q 362 232 393 219 q 292 258 331 244 q 183 307 239 281 q 90 373 128 333 q 53 472 53 413 q 74 547 53 513 q 147 601 96 582 q 283 614 197 621 l 226 606 q 128 654 167 629 q 71 711 89 679 q 53 785 53 743 q 115 928 53 871 q 281 986 178 986 q 449 925 386 986 q 514 763 513 864 l 417 763 q 370 850 407 824 q 276 876 333 876 q 195 852 226 876 q 164 789 164 828 q 185 738 164 757 q 242 707 207 719 q 315 678 276 694 q 422 633 369 657 q 509 570 475 610 q 543 458 543 531 q 498 355 543 397 q 346 322 453 313 m 164 483 q 186 431 164 451 q 247 393 208 410 q 332 356 285 376 q 405 391 378 363 q 432 458 432 419 q 412 514 432 494 q 357 547 392 533 q 275 581 322 561 q 195 548 226 574 q 164 483 164 522 z "},"©":{"ha":1021,"x_min":69,"x_max":951,"o":"m 511 19 q 278 74 378 19 q 124 228 179 129 q 69 461 69 328 q 124 694 69 596 q 277 847 178 793 q 511 901 376 901 q 744 847 646 901 q 897 694 843 793 q 951 461 951 596 q 897 228 951 328 q 743 74 842 129 q 511 19 644 19 m 511 119 q 653 143 590 119 q 760 211 717 167 q 828 319 804 256 q 851 461 851 382 q 828 603 851 540 q 761 711 806 667 q 653 778 717 756 q 511 801 590 801 q 367 778 431 801 q 260 711 304 756 q 192 603 215 667 q 169 461 169 540 q 193 319 169 382 q 261 211 217 256 q 369 143 306 167 q 511 119 432 119 m 685 435 q 663 348 685 385 q 602 291 640 311 q 515 271 564 271 q 388 325 439 271 q 336 460 336 379 q 360 557 336 514 q 424 625 383 600 q 515 650 465 650 q 601 630 564 650 q 662 574 639 610 q 685 488 685 538 l 599 488 q 569 540 593 522 q 515 558 546 558 q 454 531 479 558 q 429 460 429 503 q 453 390 429 417 q 515 363 478 363 q 571 381 547 363 q 599 435 594 400 l 685 435 z "},"®":{"ha":938,"x_min":69,"x_max":868,"o":"m 469 132 q 266 185 357 132 q 122 328 175 238 q 69 532 69 419 q 122 735 69 646 q 265 878 174 825 q 469 931 356 931 q 673 878 583 931 q 815 735 763 825 q 868 532 868 646 q 815 328 868 419 q 672 185 763 238 q 469 132 582 132 m 469 232 q 594 255 539 232 q 688 318 649 278 q 747 413 726 358 q 768 532 768 468 q 747 651 768 596 q 688 746 726 706 q 594 808 649 786 q 469 831 539 831 q 344 808 400 831 q 250 746 289 786 q 190 651 211 706 q 169 532 169 596 q 190 413 169 468 q 250 318 211 358 q 344 255 289 278 q 469 232 400 232 m 335 357 l 335 721 l 485 721 q 599 690 565 721 q 632 610 632 658 q 617 544 632 571 q 560 510 603 517 q 601 494 588 506 q 621 466 615 482 q 626 429 626 450 l 626 357 l 535 357 l 535 428 q 532 451 535 442 q 519 464 529 460 q 485 468 508 468 l 426 468 l 426 357 l 335 357 m 425 551 l 488 551 q 528 563 515 551 q 542 597 542 575 q 529 626 542 617 q 488 635 517 635 l 425 635 l 425 551 z "},"™":{"ha":1182,"x_min":111,"x_max":1071,"o":"m 347 556 l 236 556 l 236 799 l 111 799 l 111 903 l 472 903 l 472 799 l 347 799 l 347 556 m 821 654 l 960 903 l 1071 903 l 1071 556 l 963 556 l 961 738 l 876 556 l 765 556 l 681 736 l 679 556 l 571 556 l 571 903 l 682 903 l 821 654 m 1071 364 l 125 364 l 125 465 l 1071 465 l 1071 364 z "},"°":{"ha":486,"x_min":69,"x_max":417,"o":"m 243 571 q 156 594 196 571 q 93 658 117 618 q 69 746 69 697 q 93 833 69 794 q 156 896 117 872 q 243 919 196 919 q 331 896 292 919 q 393 833 369 872 q 417 746 417 794 q 393 658 417 697 q 331 594 369 618 q 243 571 292 571 m 243 660 q 302 685 278 660 q 326 746 326 711 q 302 806 326 781 q 243 831 278 831 q 184 806 208 831 q 160 746 160 781 q 184 685 160 711 q 243 660 208 660 z "},"|":{"ha":375,"x_min":139,"x_max":236,"o":"m 139 1111 l 236 1111 l 236 -222 l 139 -222 l 139 1111 z "},"¦":{"ha":375,"x_min":139,"x_max":236,"o":"m 236 257 l 236 -222 l 139 -222 l 139 257 l 236 257 m 236 1111 l 236 632 l 139 632 l 139 1111 l 236 1111 z "},"†":{"ha":828,"x_min":143,"x_max":685,"o":"m 143 694 l 685 694 l 685 590 l 143 590 l 143 694 m 358 972 l 469 972 l 469 -278 l 358 -278 l 358 972 z "},"‡":{"ha":828,"x_min":143,"x_max":685,"o":"m 358 -278 l 358 972 l 469 972 l 469 -278 l 358 -278 m 143 10 l 143 114 l 685 114 l 685 10 l 143 10 m 143 590 l 143 694 l 685 694 l 685 590 l 143 590 z "},"¢":{"ha":758,"x_min":51,"x_max":707,"o":"m 607 261 l 707 261 q 652 113 697 175 q 539 19 607 51 q 392 -14 471 -14 q 378 -14 385 -14 q 364 -12 371 -14 l 343 -133 l 240 -115 l 263 11 q 112 133 172 47 q 51 346 51 219 q 98 537 51 456 q 221 663 144 618 q 385 708 297 707 l 410 847 l 513 829 l 489 694 q 633 602 574 669 q 707 435 693 535 l 606 435 q 553 531 588 492 q 471 589 518 571 l 382 90 l 392 90 q 530 135 476 90 q 607 261 583 181 m 163 346 q 196 206 163 264 q 282 118 229 147 l 367 603 q 266 565 313 597 q 191 477 219 532 q 163 346 163 422 z "},"¤":{"ha":778,"x_min":69,"x_max":708,"o":"m 389 175 q 260 210 318 175 q 168 302 203 244 q 133 431 133 360 q 168 559 133 501 q 261 651 203 617 q 389 686 319 686 q 517 651 460 686 q 610 559 575 617 q 644 431 644 501 q 610 302 644 360 q 517 210 575 244 q 389 175 460 175 m 389 275 q 499 321 454 275 q 544 431 544 367 q 499 541 544 496 q 389 586 454 586 q 279 541 325 586 q 233 431 233 496 q 279 321 233 367 q 389 275 325 275 m 138 111 l 69 181 l 206 317 l 278 251 l 138 111 m 639 111 l 499 251 l 575 313 l 708 181 l 639 111 m 211 539 l 69 681 l 138 750 l 279 608 l 211 539 m 563 536 l 496 606 l 639 750 l 708 681 l 563 536 z "},"$":{"ha":628,"x_min":67,"x_max":575,"o":"m 372 974 l 475 956 l 440 763 l 338 781 l 372 974 m 186 -82 l 219 111 l 322 93 l 289 -100 l 186 -82 m 71 314 l 174 314 q 219 217 178 254 q 339 181 260 181 q 413 192 385 181 q 452 226 440 204 q 464 274 464 247 q 448 324 464 306 q 405 356 432 343 q 343 381 378 368 q 260 412 303 394 q 181 453 218 429 q 122 514 144 478 q 100 600 100 550 q 117 678 100 642 q 165 741 133 714 q 238 783 196 768 q 332 799 281 799 q 449 771 401 799 q 523 693 497 743 q 550 576 549 643 l 454 576 q 415 666 444 638 q 329 694 385 694 q 242 669 272 694 q 211 603 211 644 q 233 552 211 572 q 291 517 256 532 q 367 485 326 501 q 444 451 407 468 q 511 412 482 435 q 558 356 540 389 q 575 275 575 324 q 548 172 575 217 q 469 101 521 126 q 342 76 417 76 q 203 103 258 76 q 119 169 149 129 q 78 248 89 208 q 71 314 67 288 z "},"€":{"ha":1060,"x_min":28,"x_max":990,"o":"m 540 322 l 28 322 l 111 406 l 613 406 l 540 322 m 688 475 l 28 475 l 111 558 l 760 558 l 688 475 m 296 342 q 363 206 317 261 q 474 122 410 150 q 608 93 538 93 q 730 117 674 93 q 827 187 786 140 q 888 301 868 233 l 990 301 q 924 133 976 204 q 790 24 871 63 q 608 -14 708 -14 q 458 10 528 -14 q 331 81 388 35 q 237 194 275 128 q 182 342 199 260 l 296 342 m 854 679 q 751 776 815 743 q 608 810 686 810 q 467 778 533 810 q 353 685 400 746 q 290 533 307 624 l 178 533 q 228 693 190 622 q 322 814 265 764 q 452 890 379 864 q 608 917 525 917 q 794 877 711 917 q 928 764 876 838 l 854 679 z "},"£":{"ha":644,"x_min":47,"x_max":589,"o":"m 47 364 l 47 447 l 464 447 l 464 364 l 47 364 m 317 279 q 303 210 317 240 q 272 158 290 179 q 236 123 254 136 q 208 104 218 110 l 576 104 l 576 0 l 90 0 l 90 104 q 102 111 90 104 q 132 132 114 118 q 167 167 150 146 q 197 216 185 188 q 208 279 208 244 q 199 337 208 308 q 175 394 190 365 q 172 402 174 399 q 167 409 169 406 q 164 416 165 413 q 160 424 163 419 q 131 481 146 451 q 102 542 115 511 q 81 606 89 574 q 74 672 74 639 q 108 803 74 749 q 200 887 142 857 q 332 917 258 917 q 438 898 390 917 q 519 846 485 879 q 571 768 553 813 q 589 672 589 724 l 478 672 q 458 746 478 714 q 406 795 439 778 q 332 813 372 813 q 261 798 294 813 q 206 752 228 783 q 185 672 185 721 q 205 567 185 617 q 251 472 225 518 q 297 379 276 426 q 317 279 317 332 z "},"¥":{"ha":819,"x_min":35,"x_max":785,"o":"m 354 310 l 35 903 l 160 903 l 435 382 l 390 382 l 660 903 l 785 903 l 465 310 l 354 310 m 354 0 l 354 158 l 465 158 l 465 0 l 354 0 m 201 206 l 618 206 l 618 108 l 201 108 l 201 206 m 201 358 l 618 358 l 618 261 l 201 261 l 201 358 z "},"∕":{"ha":603,"x_min":0,"x_max":603,"o":"m 528 972 l 603 931 l 72 -28 l 0 17 l 528 972 z "},"+":{"ha":639,"x_min":69,"x_max":569,"o":"m 69 424 l 569 424 l 569 326 l 69 326 l 69 424 m 368 625 l 368 125 l 271 125 l 271 625 l 368 625 z "},"−":{"ha":611,"x_min":69,"x_max":542,"o":"m 69 426 l 542 426 l 542 324 l 69 324 l 69 426 z "},"×":{"ha":561,"x_min":69,"x_max":492,"o":"m 138 164 l 492 518 l 424 586 l 69 232 l 138 164 m 424 164 l 492 232 l 138 586 l 69 518 l 424 164 z "},"÷":{"ha":667,"x_min":69,"x_max":597,"o":"m 69 426 l 597 426 l 597 324 l 69 324 l 69 426 m 378 253 l 378 118 l 233 118 l 233 253 l 378 253 m 378 631 l 378 494 l 233 494 l 233 631 l 378 631 z "},"=":{"ha":653,"x_min":69,"x_max":583,"o":"m 69 563 l 583 563 l 583 458 l 69 458 l 69 563 m 69 313 l 583 313 l 583 208 l 69 208 l 69 313 z "},"≠":{"ha":653,"x_min":69,"x_max":583,"o":"m 189 54 l 375 749 l 464 724 l 278 31 l 189 54 m 69 563 l 583 563 l 583 458 l 69 458 l 69 563 m 69 313 l 583 313 l 583 208 l 69 208 l 69 313 z "},">":{"ha":739,"x_min":139,"x_max":642,"o":"m 139 631 l 194 725 l 642 467 l 642 340 l 194 82 l 139 178 l 532 404 l 139 631 z "},"<":{"ha":739,"x_min":97,"x_max":600,"o":"m 544 725 l 600 631 l 207 404 l 600 178 l 544 82 l 97 340 l 97 467 l 544 725 z "},"≥":{"ha":749,"x_min":139,"x_max":651,"o":"m 651 349 l 176 160 l 139 264 l 524 422 l 149 639 l 204 733 l 651 475 l 651 349 m 625 -14 l 153 -14 l 153 90 l 625 90 l 625 -14 z "},"≤":{"ha":828,"x_min":176,"x_max":689,"o":"m 689 264 l 651 160 l 176 349 l 176 475 l 624 733 l 679 639 l 304 422 l 689 264 m 675 -14 l 203 -14 l 203 90 l 675 90 l 675 -14 z "},"±":{"ha":639,"x_min":69,"x_max":569,"o":"m 69 354 l 69 451 l 569 451 l 569 354 l 69 354 m 83 -14 l 83 90 l 556 90 l 556 -14 l 83 -14 m 271 181 l 271 625 l 368 625 l 368 181 l 271 181 z "},"≈":{"ha":694,"x_min":64,"x_max":629,"o":"m 531 594 l 622 594 q 614 503 629 543 q 566 440 599 463 q 486 417 533 417 q 410 432 444 417 q 347 467 376 447 q 291 501 318 486 q 235 517 264 517 q 181 494 199 517 q 163 444 163 471 l 71 444 q 80 537 64 497 q 132 599 96 576 q 221 622 168 622 q 297 607 263 622 q 360 572 331 592 q 416 538 389 553 q 472 522 443 522 q 519 545 508 522 q 531 594 531 568 m 531 349 l 622 349 q 620 277 628 310 q 594 221 613 244 q 549 184 576 197 q 486 171 522 171 q 410 186 444 171 q 347 221 376 201 q 291 256 318 240 q 235 271 264 271 q 181 248 199 271 q 163 199 163 225 l 71 199 q 80 291 64 251 q 132 353 96 331 q 221 376 168 376 q 297 361 263 376 q 360 326 331 346 q 416 292 389 307 q 472 276 443 276 q 519 299 508 276 q 531 349 531 322 z "},"~":{"ha":367,"x_min":111,"x_max":256,"o":"m 256 447 l 256 311 l 111 311 l 111 447 l 256 447 z "},"¬":{"ha":826,"x_min":118,"x_max":688,"o":"m 118 563 l 688 563 l 688 222 l 576 222 l 576 458 l 118 458 l 118 563 z "},"^":{"ha":815,"x_min":336,"x_max":481,"o":"m 481 835 l 481 699 l 336 699 l 336 835 l 481 835 z "},"∅":{"ha":935,"x_min":83,"x_max":851,"o":"m 226 -94 l 142 -46 l 235 115 q 125 247 167 168 q 83 419 83 326 q 113 569 83 499 q 196 692 143 639 q 318 774 249 744 q 467 804 388 804 q 544 797 507 804 q 615 774 581 789 l 708 935 l 792 886 l 700 726 q 810 594 769 674 q 851 419 851 514 q 822 271 851 340 q 739 149 792 201 q 616 66 686 96 q 467 36 546 36 q 390 44 428 36 q 319 65 353 51 l 226 -94 m 285 203 l 565 686 q 518 700 543 696 q 467 704 493 704 q 324 666 389 704 q 222 563 260 628 q 183 419 183 499 q 211 299 183 356 q 285 203 239 242 m 467 136 q 610 174 546 136 q 713 277 675 213 q 751 419 751 342 q 724 542 751 485 q 649 638 696 599 l 369 154 q 417 140 393 144 q 467 136 440 136 z "},"∞":{"ha":1207,"x_min":69,"x_max":1138,"o":"m 872 122 q 785 138 825 122 q 714 181 746 154 q 655 244 682 208 q 603 318 628 279 q 533 222 571 267 q 447 151 494 178 q 335 124 399 124 q 199 164 260 124 q 104 271 139 204 q 69 417 69 338 q 104 562 69 496 q 199 668 139 628 q 335 708 260 708 q 421 692 382 708 q 492 649 460 676 q 552 587 525 622 q 604 513 579 551 q 655 587 628 551 q 715 649 682 622 q 786 692 747 676 q 872 708 825 708 q 1008 668 949 708 q 1103 562 1068 628 q 1138 415 1138 496 q 1103 269 1138 336 q 1008 163 1068 203 q 872 122 949 122 m 335 224 q 418 250 382 224 q 485 320 454 276 q 546 415 517 364 q 485 510 517 467 q 418 581 454 554 q 335 607 382 607 q 250 581 288 607 q 191 513 213 556 q 169 417 169 469 q 182 342 169 378 q 217 281 194 307 q 269 239 239 254 q 335 224 300 224 m 872 222 q 938 238 908 222 q 990 279 968 253 q 1025 341 1013 306 q 1038 415 1038 376 q 1016 513 1038 469 q 957 583 994 557 q 872 608 919 608 q 790 581 826 608 q 722 511 753 554 q 661 417 692 468 q 722 321 692 365 q 790 249 753 276 q 872 222 826 222 z "},"∫":{"ha":543,"x_min":28,"x_max":515,"o":"m 453 1056 l 515 1056 l 515 944 l 453 944 q 365 919 401 946 q 328 819 328 893 l 328 83 q 298 -52 328 0 q 215 -128 268 -104 q 92 -153 161 -153 l 28 -153 l 28 -42 l 92 -42 q 181 -17 144 -43 q 217 83 217 10 l 217 819 q 283 1000 217 944 q 453 1056 349 1056 z "},"∏":{"ha":986,"x_min":63,"x_max":924,"o":"m 243 819 l 354 819 l 354 0 l 243 0 l 243 819 m 924 903 l 924 796 l 63 796 l 63 903 l 924 903 m 743 0 l 632 0 l 632 819 l 743 819 l 743 0 z "},"∑":{"ha":828,"x_min":117,"x_max":700,"o":"m 117 903 l 700 903 l 700 799 l 211 799 l 221 835 l 529 440 l 225 72 l 211 104 l 700 104 l 700 0 l 117 0 l 117 101 l 447 500 l 419 415 l 117 793 l 117 903 z "},"√":{"ha":876,"x_min":28,"x_max":863,"o":"m 863 903 l 863 799 l 654 799 l 394 0 l 290 0 l 28 694 l 149 694 l 338 153 l 571 903 l 863 903 z "},"µ":{"ha":831,"x_min":90,"x_max":817,"o":"m 817 -14 q 675 16 731 -14 q 594 102 619 46 q 568 235 568 158 l 568 694 l 679 694 l 679 235 q 694 145 679 175 q 739 106 708 115 q 817 97 769 97 l 817 -14 m 575 324 l 576 285 q 569 233 575 268 q 548 156 563 199 q 506 75 533 114 q 437 11 479 36 q 332 -14 394 -14 q 243 11 281 -14 q 185 85 206 36 l 201 103 l 201 -278 l 90 -278 l 90 694 l 201 694 l 201 261 q 222 163 201 199 q 276 113 242 128 q 354 97 311 97 q 472 133 425 97 q 544 222 519 169 q 575 324 569 275 z "},"∂":{"ha":769,"x_min":51,"x_max":700,"o":"m 381 -14 q 207 33 281 -14 q 92 160 133 79 q 51 346 51 242 q 74 490 51 424 q 136 606 96 557 q 232 681 176 654 q 353 708 288 708 q 441 694 403 708 q 507 656 479 681 q 553 597 535 632 l 549 601 q 494 685 528 644 q 415 761 461 725 q 306 830 368 797 q 164 892 243 863 l 204 986 q 382 902 306 949 q 513 803 458 856 q 604 694 568 750 q 662 580 640 638 q 692 465 683 522 q 700 351 700 407 q 688 248 700 300 q 650 149 675 196 q 587 65 625 101 q 497 7 549 28 q 381 -14 446 -14 m 381 93 q 498 127 451 93 q 567 219 544 161 q 589 346 589 276 q 576 450 589 403 q 537 531 563 497 q 472 583 511 565 q 381 601 433 601 q 219 529 276 601 q 163 346 163 457 q 223 164 163 235 q 381 93 283 93 z "},"%":{"ha":1085,"x_min":56,"x_max":1029,"o":"m 254 467 q 151 496 196 467 q 81 576 106 525 q 56 692 56 626 q 111 854 56 792 q 254 917 167 917 q 397 854 340 917 q 453 692 453 792 q 427 576 453 626 q 357 496 401 525 q 254 467 313 467 m 254 569 q 322 603 294 569 q 350 692 350 636 q 322 782 350 749 q 254 815 294 815 q 186 782 214 815 q 158 692 158 749 q 186 603 158 636 q 254 569 214 569 m 831 -14 q 688 49 744 -14 q 632 211 632 113 q 688 373 632 310 q 831 436 744 436 q 974 373 918 436 q 1029 211 1029 310 q 974 49 1029 113 q 831 -14 918 -14 m 831 88 q 899 122 871 88 q 926 211 926 156 q 899 300 926 267 q 831 333 871 333 q 763 300 790 333 q 735 211 735 267 q 763 122 735 156 q 831 88 790 88 m 765 953 l 840 911 l 310 -47 l 238 -3 l 765 953 z "},"‰":{"ha":1232,"x_min":56,"x_max":1176,"o":"m 254 467 q 151 496 196 467 q 81 576 106 525 q 56 692 56 626 q 111 854 56 792 q 254 917 167 917 q 397 854 340 917 q 453 692 453 792 q 427 576 453 626 q 357 496 401 525 q 254 467 313 467 m 254 569 q 322 603 294 569 q 350 692 350 636 q 322 782 350 749 q 254 815 294 815 q 186 782 214 815 q 158 692 158 749 q 186 603 158 636 q 254 569 214 569 m 978 308 q 875 338 919 308 q 805 417 831 367 q 779 533 779 468 q 835 696 779 633 q 978 758 890 758 q 1120 696 1064 758 q 1176 533 1176 633 q 1151 417 1176 468 q 1081 338 1125 367 q 978 308 1036 308 m 978 411 q 1046 444 1018 411 q 1074 533 1074 478 q 1046 622 1074 589 q 978 656 1018 656 q 910 622 938 656 q 882 533 882 589 q 910 444 882 478 q 978 411 938 411 m 724 -147 q 622 -118 667 -147 q 551 -38 576 -89 q 525 78 525 13 q 581 240 525 178 q 724 303 638 303 q 867 240 811 303 q 922 78 922 176 q 897 -38 922 13 q 827 -118 872 -89 q 724 -147 782 -147 m 724 -44 q 792 -11 764 -44 q 819 78 819 22 q 792 167 819 133 q 724 201 764 201 q 656 167 683 201 q 628 78 628 133 q 656 -11 628 22 q 724 -44 683 -44 m 760 953 l 835 911 l 304 -47 l 232 -3 l 760 953 z "},"↑":{"ha":939,"x_min":125,"x_max":814,"o":"m 417 -42 l 417 733 l 417 803 l 201 597 l 125 674 l 469 990 l 814 674 l 738 597 l 521 804 l 521 743 l 521 -42 l 417 -42 z "},"↗":{"ha":1064,"x_min":139,"x_max":925,"o":"m 213 117 l 139 190 l 665 717 l 738 788 l 438 794 l 438 903 l 906 883 l 925 415 l 817 415 l 810 714 l 747 651 l 213 117 z "},"→":{"ha":1171,"x_min":56,"x_max":1088,"o":"m 771 43 l 694 119 l 901 336 l 833 336 l 56 336 l 56 440 l 835 440 l 900 440 l 694 656 l 771 732 l 1088 388 l 771 43 z "},"↘":{"ha":1064,"x_min":139,"x_max":925,"o":"m 438 0 l 438 108 l 736 115 l 697 154 l 139 713 l 213 786 l 776 222 l 810 189 l 817 486 l 925 486 l 906 19 l 438 0 z "},"↓":{"ha":939,"x_min":125,"x_max":814,"o":"m 469 -49 l 125 268 l 201 344 l 418 138 l 418 200 l 418 983 l 522 983 l 522 200 l 522 139 l 738 344 l 814 268 l 469 -49 z "},"↙":{"ha":1064,"x_min":139,"x_max":925,"o":"m 626 0 l 158 19 l 139 486 l 247 486 l 254 189 l 315 250 l 851 786 l 925 713 l 388 175 l 328 115 l 626 108 l 626 0 z "},"←":{"ha":1171,"x_min":83,"x_max":1115,"o":"m 400 43 l 83 388 l 400 732 l 476 656 l 271 440 l 375 440 l 1115 440 l 1115 336 l 371 336 l 269 336 l 476 119 l 400 43 z "},"↖":{"ha":1064,"x_min":139,"x_max":925,"o":"m 851 117 l 317 653 l 254 715 l 247 417 l 139 417 l 158 883 l 626 903 l 626 796 l 326 789 l 399 718 l 925 190 l 851 117 z "},"↔":{"ha":1407,"x_min":83,"x_max":1324,"o":"m 400 43 l 83 388 l 400 732 l 476 656 l 271 440 l 374 440 l 1033 440 l 1136 440 l 931 656 l 1007 732 l 1324 388 l 1007 43 l 931 119 l 1138 336 l 1033 336 l 374 336 l 269 336 l 476 119 l 400 43 z "},"↕":{"ha":939,"x_min":125,"x_max":814,"o":"m 469 -176 l 125 140 l 201 217 l 417 11 l 417 89 l 417 803 l 417 875 l 201 669 l 125 746 l 469 1063 l 814 746 l 738 669 l 521 876 l 521 803 l 521 92 l 521 10 l 738 217 l 814 140 l 469 -176 z "},"◊":{"ha":765,"x_min":69,"x_max":696,"o":"m 383 -8 l 69 468 l 382 944 l 696 468 l 383 -8 m 383 183 l 579 468 l 382 753 l 186 468 l 383 183 z "},"΄":{"ha":542,"x_min":129,"x_max":422,"o":"m 129 835 l 276 1058 l 422 1058 l 228 835 l 129 835 z "},"΅":{"ha":597,"x_min":0,"x_max":597,"o":"m 144 972 l 144 836 l 0 836 l 0 972 l 144 972 m 597 972 l 597 836 l 453 836 l 453 972 l 597 972 m 185 832 l 332 1056 l 478 1056 l 283 832 l 185 832 z "},"̈":{"ha":0,"x_min":139,"x_max":529,"o":"m 283 972 l 283 836 l 139 836 l 139 972 l 283 972 m 529 972 l 529 836 l 385 836 l 385 972 l 529 972 z "},"̇":{"ha":0,"x_min":139,"x_max":283,"o":"m 283 974 l 283 838 l 139 838 l 139 974 l 283 974 z "},"̀":{"ha":0,"x_min":139,"x_max":432,"o":"m 333 835 l 139 1058 l 285 1058 l 432 835 l 333 835 z "},"́":{"ha":0,"x_min":129,"x_max":422,"o":"m 129 835 l 276 1058 l 422 1058 l 228 835 l 129 835 z "},"̋":{"ha":0,"x_min":139,"x_max":696,"o":"m 403 835 l 550 1058 l 696 1058 l 501 835 l 403 835 m 139 835 l 286 1058 l 432 1058 l 238 835 l 139 835 z "},"̂":{"ha":0,"x_min":144,"x_max":619,"o":"m 432 1058 l 619 835 l 488 835 l 356 1029 l 411 1029 l 278 835 l 144 835 l 333 1058 l 432 1058 z "},"̌":{"ha":0,"x_min":153,"x_max":613,"o":"m 411 868 l 356 868 l 481 1058 l 613 1058 l 432 835 l 333 835 l 153 1058 l 285 1058 l 411 868 z "},"̆":{"ha":0,"x_min":139,"x_max":514,"o":"m 514 1014 q 494 903 514 951 q 432 828 474 856 q 326 800 390 800 q 221 828 263 800 q 159 903 179 856 q 139 1014 139 951 l 236 1014 q 259 925 236 953 q 326 897 282 897 q 394 925 371 897 q 417 1014 417 953 l 514 1014 z "},"̊":{"ha":0,"x_min":146,"x_max":504,"o":"m 325 801 q 197 844 249 801 q 146 957 146 886 q 197 1069 146 1026 q 325 1111 249 1111 q 453 1069 403 1111 q 504 957 504 1026 q 453 844 504 886 q 325 801 403 801 m 325 878 q 392 899 371 878 q 413 957 413 919 q 392 1014 413 993 q 325 1035 371 1035 q 257 1014 278 1035 q 236 957 236 993 q 257 899 236 919 q 325 878 278 878 z "},"̃":{"ha":0,"x_min":108,"x_max":622,"o":"m 475 836 q 413 849 439 836 q 365 881 386 863 q 321 912 343 899 q 269 925 299 925 q 228 910 242 925 q 208 875 214 896 q 200 835 203 854 l 108 835 q 129 928 111 886 q 178 997 147 971 q 256 1022 210 1022 q 320 1009 292 1022 q 372 978 349 996 q 416 947 394 960 q 461 933 438 933 q 502 948 488 933 q 522 984 517 963 q 531 1024 528 1006 l 622 1024 q 601 930 618 972 q 551 862 583 888 q 475 836 519 836 z "},"̄":{"ha":0,"x_min":139,"x_max":472,"o":"m 139 851 l 139 949 l 472 949 l 472 851 l 139 851 z "},"̒":{"ha":0,"x_min":264,"x_max":414,"o":"m 388 1047 l 403 1018 q 366 975 385 1001 q 346 928 347 949 l 414 913 l 414 800 l 264 800 l 264 857 q 298 981 264 932 q 388 1047 332 1029 z "},"̦":{"ha":0,"x_min":74,"x_max":221,"o":"m 100 -339 l 85 -310 q 124 -263 108 -287 q 142 -219 140 -239 l 74 -204 l 74 -92 l 221 -92 l 221 -149 q 189 -271 221 -222 q 100 -339 157 -319 l 100 -339 z "},"̧":{"ha":0,"x_min":146,"x_max":456,"o":"m 397 22 l 397 -118 l 369 -53 q 404 -73 389 -61 q 431 -101 419 -85 q 449 -137 443 -117 q 456 -185 456 -158 q 418 -277 456 -235 q 301 -319 381 -319 q 215 -297 251 -319 q 163 -240 179 -275 q 153 -165 146 -204 l 233 -165 q 240 -191 235 -175 q 262 -220 246 -207 q 308 -233 278 -233 q 355 -213 343 -233 q 367 -175 367 -193 q 360 -142 367 -160 q 337 -107 354 -125 q 285 -75 319 -89 l 285 22 l 397 22 z "},"̨":{"ha":0,"x_min":139,"x_max":368,"o":"m 368 -299 q 202 -253 265 -299 q 139 -132 139 -208 q 166 -47 139 -81 q 239 5 193 -14 q 339 31 285 24 l 339 0 q 263 -40 296 -10 q 229 -118 229 -71 q 245 -172 229 -149 q 292 -209 261 -196 q 368 -222 324 -222 l 368 -299 z "},"̵":{"ha":0,"x_min":139,"x_max":556,"o":"m 139 596 l 556 596 l 556 499 l 139 499 l 139 596 z "},"̶":{"ha":0,"x_min":139,"x_max":694,"o":"m 139 589 l 694 589 l 694 506 l 139 506 l 139 589 z "},"̷":{"ha":0,"x_min":139,"x_max":757,"o":"m 706 783 l 757 710 l 188 321 l 139 394 l 706 783 z "},"̸":{"ha":0,"x_min":139,"x_max":742,"o":"m 667 972 l 742 931 l 211 -28 l 139 17 l 667 972 z "},"¨":{"ha":740,"x_min":151,"x_max":542,"o":"m 296 972 l 296 836 l 151 836 l 151 972 l 296 972 m 542 972 l 542 836 l 397 836 l 397 972 l 542 972 z "},"˙":{"ha":422,"x_min":139,"x_max":283,"o":"m 283 974 l 283 838 l 139 838 l 139 974 l 283 974 z "},"`":{"ha":571,"x_min":139,"x_max":432,"o":"m 333 835 l 139 1058 l 285 1058 l 432 835 l 333 835 z "},"´":{"ha":542,"x_min":129,"x_max":422,"o":"m 129 835 l 276 1058 l 422 1058 l 228 835 l 129 835 z "},"˝":{"ha":764,"x_min":139,"x_max":696,"o":"m 403 835 l 550 1058 l 696 1058 l 501 835 l 403 835 m 139 835 l 286 1058 l 432 1058 l 238 835 l 139 835 z "},"ˆ":{"ha":765,"x_min":144,"x_max":619,"o":"m 432 1058 l 619 835 l 488 835 l 356 1029 l 411 1029 l 278 835 l 144 835 l 333 1058 l 432 1058 z "},"ˇ":{"ha":753,"x_min":153,"x_max":613,"o":"m 411 868 l 356 868 l 481 1058 l 613 1058 l 432 835 l 333 835 l 153 1058 l 285 1058 l 411 868 z "},"˘":{"ha":653,"x_min":139,"x_max":514,"o":"m 514 1014 q 494 903 514 951 q 432 828 474 856 q 326 800 390 800 q 221 828 263 800 q 159 903 179 856 q 139 1014 139 951 l 236 1014 q 259 925 236 953 q 326 897 282 897 q 394 925 371 897 q 417 1014 417 953 l 514 1014 z "},"˚":{"ha":650,"x_min":146,"x_max":504,"o":"m 325 801 q 197 844 249 801 q 146 957 146 886 q 197 1069 146 1026 q 325 1111 249 1111 q 453 1069 403 1111 q 504 957 504 1026 q 453 844 504 886 q 325 801 403 801 m 325 878 q 392 899 371 878 q 413 957 413 919 q 392 1014 413 993 q 325 1035 371 1035 q 257 1014 278 1035 q 236 957 236 993 q 257 899 236 919 q 325 878 278 878 z "},"˜":{"ha":768,"x_min":108,"x_max":622,"o":"m 475 836 q 413 849 439 836 q 365 881 386 863 q 321 912 343 899 q 269 925 299 925 q 228 910 242 925 q 208 875 214 896 q 200 835 203 854 l 108 835 q 129 928 111 886 q 178 997 147 971 q 256 1022 210 1022 q 320 1009 292 1022 q 372 978 349 996 q 416 947 394 960 q 461 933 438 933 q 502 948 488 933 q 522 984 517 963 q 531 1024 528 1006 l 622 1024 q 601 930 618 972 q 551 862 583 888 q 475 836 519 836 z "},"¯":{"ha":611,"x_min":139,"x_max":472,"o":"m 139 851 l 139 949 l 472 949 l 472 851 l 139 851 z "},"¸":{"ha":594,"x_min":146,"x_max":456,"o":"m 397 22 l 397 -118 l 369 -53 q 404 -73 389 -61 q 431 -101 419 -85 q 449 -137 443 -117 q 456 -185 456 -158 q 418 -277 456 -235 q 301 -319 381 -319 q 215 -297 251 -319 q 163 -240 179 -275 q 153 -165 146 -204 l 233 -165 q 240 -191 235 -175 q 262 -220 246 -207 q 308 -233 278 -233 q 355 -213 343 -233 q 367 -175 367 -193 q 360 -142 367 -160 q 337 -107 354 -125 q 285 -75 319 -89 l 285 22 l 397 22 z "},"˛":{"ha":507,"x_min":139,"x_max":368,"o":"m 368 -299 q 202 -253 265 -299 q 139 -132 139 -208 q 166 -47 139 -81 q 239 5 193 -14 q 339 31 285 24 l 339 0 q 263 -40 296 -10 q 229 -118 229 -71 q 245 -172 229 -149 q 292 -209 261 -196 q 368 -222 324 -222 l 368 -299 z "}}}
